<svg width="13" height="14" viewBox="0 0 13 14" fill="none" xmlns="http://www.w3.org/2000/svg">
<path d="M5.33332 0.333313C6.62844 0.333113 7.87938 0.804184 8.85267 1.6586C9.82597 2.51303 10.4551 3.69241 10.6227 4.97665L12.1227 7.33598C12.2213 7.49131 12.2013 7.72265 11.9727 7.82131L10.6667 8.37998V10.3333C10.6667 10.6869 10.5262 11.0261 10.2761 11.2761C10.0261 11.5262 9.68694 11.6666 9.33332 11.6666H8.00066L7.99999 13.6666H1.99999V11.204C1.99999 10.4173 1.70932 9.67265 1.16999 9.00065C0.541791 8.21628 0.147975 7.2704 0.0339174 6.27198C-0.0801401 5.27355 0.0902017 4.26322 0.525316 3.35739C0.960431 2.45156 1.64261 1.68708 2.49326 1.15206C3.34391 0.617027 4.32841 0.333212 5.33332 0.333313ZM4.97999 4.17531C4.76 3.96275 4.46532 3.8451 4.15942 3.84769C3.85352 3.85029 3.56088 3.97293 3.34453 4.18919C3.12818 4.40546 3.00542 4.69805 3.0027 5.00395C2.99998 5.30984 3.11752 5.60457 3.32999 5.82465L5.33332 7.82865L7.33666 5.82465C7.44806 5.717 7.53691 5.58825 7.59803 5.4459C7.65914 5.30355 7.6913 5.15045 7.69261 4.99554C7.69393 4.84063 7.66438 4.68701 7.60569 4.54365C7.547 4.40028 7.46034 4.27004 7.35078 4.16052C7.24122 4.051 7.11094 3.9644 6.96755 3.90576C6.82416 3.84713 6.67052 3.81764 6.51561 3.81902C6.36071 3.8204 6.20762 3.85261 6.0653 3.91379C5.92297 3.97496 5.79425 4.06386 5.68666 4.17531L5.33332 4.52865L4.97999 4.17531Z" fill="white"/>
</svg>
