<svg width="14" height="14" viewBox="0 0 14 14" fill="none" xmlns="http://www.w3.org/2000/svg">
<path d="M12.42 1.77001C12.0224 1.42972 11.5503 1.18781 11.0418 1.06389C10.5334 0.93996 10.0029 0.937491 9.49333 1.05668C8.46888 1.28099 7.5735 1.89866 7 2.77668C6.42964 1.90151 5.53955 1.28419 4.52 1.05668C4.01272 0.934829 3.48417 0.931589 2.97542 1.04721C2.46668 1.16283 1.99145 1.39421 1.58667 1.72335C0.533334 2.64335 -0.046666 4.68335 0.613334 6.75001C0.688001 6.97846 0.776889 7.20068 0.880001 7.41668C0.906667 7.4669 0.931112 7.51801 0.953334 7.57001C2.66667 11.0633 6.62667 12.9033 6.8 12.99C6.8644 13.0212 6.93511 13.0372 7.00667 13.0367C7.07822 13.0372 7.14893 13.0212 7.21333 12.99C7.38 12.9167 11.38 11.09 13.08 7.55668L13.1333 7.44335C13.2387 7.21668 13.3298 6.98335 13.4067 6.74335C14.0333 4.74335 13.46 2.70335 12.42 1.77001ZM12.2133 7.05668C12.12 7.26601 12.0133 7.46824 11.8933 7.66335H9.68667C9.57686 7.66278 9.4689 7.6351 9.37237 7.58276C9.27584 7.53042 9.19373 7.45505 9.13333 7.36335L8.43333 6.32335L6.94667 9.29668C6.89971 9.39083 6.83114 9.47253 6.74655 9.5351C6.66197 9.59767 6.56377 9.63933 6.46 9.65668H6.35333C6.26513 9.65631 6.17787 9.63845 6.09662 9.60412C6.01537 9.56979 5.94174 9.51967 5.88 9.45668L4.07333 7.65668H2.13333C2.01067 7.44068 1.89956 7.21846 1.8 6.99001C1.69681 6.77538 1.61206 6.55235 1.54667 6.32335H4.35333C4.44107 6.32284 4.52805 6.33966 4.60927 6.37283C4.6905 6.40601 4.76437 6.45489 4.82667 6.51668L6.16 7.85001L7.74667 4.67668C7.7994 4.57162 7.87897 4.48236 7.97731 4.41797C8.07566 4.35358 8.18929 4.31633 8.30667 4.31001C8.42255 4.30302 8.53824 4.3264 8.64231 4.37785C8.74637 4.42929 8.8352 4.50703 8.9 4.60335L10.0333 6.31001H12.5C12.4271 6.56779 12.3316 6.81668 12.2133 7.05668Z" fill="white"/>
</svg>
