<svg width="14" height="12" viewBox="0 0 14 12" fill="none" xmlns="http://www.w3.org/2000/svg">
<path fill-rule="evenodd" clip-rule="evenodd" d="M4.97465 10.3127C3.01265 8.80934 0.333313 6.326 0.333313 3.978C0.333313 0.0553376 3.99998 -1.40933 6.99998 1.62C9.99998 -1.40933 13.6666 0.0553376 13.6666 3.978C13.6666 6.326 10.9866 8.80934 9.02531 10.3127C8.13731 10.9927 7.69331 11.3333 6.99998 11.3333C6.30665 11.3333 5.86265 10.9933 4.97465 10.3127ZM9.99998 2.16667C10.1326 2.16667 10.2598 2.21935 10.3535 2.31312C10.4473 2.40689 10.5 2.53406 10.5 2.66667V3.5H11.3333C11.4659 3.5 11.5931 3.55268 11.6869 3.64645C11.7806 3.74022 11.8333 3.8674 11.8333 4C11.8333 4.13261 11.7806 4.25979 11.6869 4.35356C11.5931 4.44733 11.4659 4.5 11.3333 4.5H10.5V5.33334C10.5 5.46595 10.4473 5.59312 10.3535 5.68689C10.2598 5.78066 10.1326 5.83334 9.99998 5.83334C9.86737 5.83334 9.74019 5.78066 9.64643 5.68689C9.55266 5.59312 9.49998 5.46595 9.49998 5.33334V4.5H8.66665C8.53404 4.5 8.40686 4.44733 8.31309 4.35356C8.21932 4.25979 8.16665 4.13261 8.16665 4C8.16665 3.8674 8.21932 3.74022 8.31309 3.64645C8.40686 3.55268 8.53404 3.5 8.66665 3.5H9.49998V2.66667C9.49998 2.53406 9.55266 2.40689 9.64643 2.31312C9.74019 2.21935 9.86737 2.16667 9.99998 2.16667Z" fill="#11D3AC"/>
</svg>
