<svg width="16" height="16" viewBox="0 0 16 16" fill="none" xmlns="http://www.w3.org/2000/svg">
<path d="M6.125 0.5C5.87636 0.5 5.6379 0.598772 5.46209 0.774587C5.28627 0.950403 5.1875 1.18886 5.1875 1.4375V5.1875H1.4375C1.18886 5.1875 0.950403 5.28627 0.774587 5.46209C0.598772 5.6379 0.5 5.87636 0.5 6.125V9.875C0.5 10.1236 0.598772 10.3621 0.774587 10.5379C0.950403 10.7137 1.18886 10.8125 1.4375 10.8125H5.1875V14.5625C5.1875 14.8111 5.28627 15.0496 5.46209 15.2254C5.6379 15.4012 5.87636 15.5 6.125 15.5H9.875C10.1236 15.5 10.3621 15.4012 10.5379 15.2254C10.7137 15.0496 10.8125 14.8111 10.8125 14.5625V10.8125H14.5625C14.8111 10.8125 15.0496 10.7137 15.2254 10.5379C15.4012 10.3621 15.5 10.1236 15.5 9.875V6.125C15.5 5.87636 15.4012 5.6379 15.2254 5.46209C15.0496 5.28627 14.8111 5.1875 14.5625 5.1875H10.8125V1.4375C10.8125 1.18886 10.7137 0.950403 10.5379 0.774587C10.3621 0.598772 10.1236 0.5 9.875 0.5H6.125Z" fill="white"/>
</svg>
