<svg width="14" height="14" viewBox="0 0 14 14" fill="none" xmlns="http://www.w3.org/2000/svg">
<path d="M9.484 5.962C9.7175 5.962 9.91475 5.88025 10.0758 5.71675C10.2367 5.55325 10.3173 5.355 10.3173 5.122C10.3173 4.889 10.2358 4.6915 10.0728 4.5295C9.90925 4.369 9.71075 4.28875 9.47725 4.28875C9.24375 4.28875 9.0465 4.37025 8.8855 4.53325C8.7245 4.69625 8.644 4.8945 8.644 5.128C8.644 5.3615 8.72575 5.559 8.88925 5.7205C9.05225 5.8815 9.2505 5.962 9.484 5.962ZM4.52275 5.962C4.75575 5.962 4.95275 5.88025 5.11375 5.71675C5.27525 5.55325 5.356 5.355 5.356 5.122C5.356 4.8885 5.27425 4.691 5.11075 4.5295C4.94725 4.369 4.749 4.28875 4.516 4.28875C4.2825 4.28875 4.08525 4.37025 3.92425 4.53325C3.76325 4.69675 3.68275 4.895 3.68275 5.128C3.68275 5.3615 3.76425 5.559 3.92725 5.7205C4.09075 5.8815 4.28925 5.962 4.52275 5.962ZM7 8.125C6.285 8.125 5.626 8.3225 5.023 8.7175C4.4205 9.112 3.968 9.63575 3.6655 10.2887H10.3345C10.0315 9.63575 9.579 9.11175 8.977 8.71675C8.374 8.32225 7.715 8.125 7 8.125ZM7.00225 13.75C6.06875 13.75 5.19125 13.573 4.36975 13.219C3.54825 12.8645 2.8335 12.3835 2.2255 11.776C1.6175 11.1685 1.13625 10.4545 0.78175 9.634C0.42725 8.8135 0.25 7.93625 0.25 7.00225C0.25 6.06825 0.42725 5.19075 0.78175 4.36975C1.13575 3.54825 1.616 2.8335 2.2225 2.2255C2.829 1.6175 3.54325 1.13625 4.36525 0.78175C5.18725 0.42725 6.06475 0.25 6.99775 0.25C7.93075 0.25 8.80825 0.42725 9.63025 0.78175C10.4517 1.13575 11.1665 1.61625 11.7745 2.22325C12.3825 2.83025 12.8638 3.5445 13.2183 4.366C13.5728 5.1875 13.75 6.06475 13.75 6.99775C13.75 7.93075 13.573 8.80825 13.219 9.63025C12.865 10.4522 12.384 11.167 11.776 11.7745C11.168 12.382 10.454 12.8633 9.634 13.2183C8.814 13.5732 7.93675 13.7505 7.00225 13.75Z" fill="white"/>
</svg>
