<svg width="16" height="16" viewBox="0 0 16 16" fill="none" xmlns="http://www.w3.org/2000/svg">
<path d="M8 0.5C12.1423 0.5 15.5 3.85775 15.5 8C15.5 12.1423 12.1423 15.5 8 15.5C6.01088 15.5 4.10322 14.7098 2.6967 13.3033C1.29018 11.8968 0.5 9.98912 0.5 8C0.5 6.01088 1.29018 4.10322 2.6967 2.6967C4.10322 1.29018 6.01088 0.5 8 0.5ZM10.7803 9.71975C10.6576 9.59711 10.4963 9.52074 10.3238 9.50365C10.1512 9.48656 9.97803 9.52979 9.83375 9.626L9.125 10.0985L8.41625 9.626L8.32925 9.5765C8.2115 9.51888 8.0807 9.49313 7.9499 9.50181C7.81909 9.5105 7.69285 9.55332 7.58375 9.626L6.875 10.0985L6.16625 9.626C6.02197 9.52979 5.84881 9.48656 5.67624 9.50365C5.50367 9.52074 5.34235 9.59711 5.21975 9.71975L4.46975 10.4698C4.32915 10.6104 4.25016 10.8011 4.25016 11C4.25016 11.1989 4.32915 11.3896 4.46975 11.5303L4.54025 11.5925C4.68455 11.7044 4.86474 11.7599 5.04701 11.7484C5.22928 11.737 5.40111 11.6594 5.53025 11.5303L5.84525 11.2153L6.45875 11.624L6.54575 11.6735C6.6635 11.7311 6.7943 11.7569 6.9251 11.7482C7.05591 11.7395 7.18215 11.6967 7.29125 11.624L8 11.1515L8.70875 11.624L8.79575 11.6735C8.9135 11.7311 9.0443 11.7569 9.1751 11.7482C9.30591 11.7395 9.43215 11.6967 9.54125 11.624L10.154 11.2153L10.469 11.5303C10.5386 11.5999 10.6213 11.6552 10.7123 11.6929C10.8033 11.7307 10.9008 11.7501 10.9994 11.7502C11.0979 11.7502 11.1954 11.7308 11.2865 11.6932C11.3775 11.6555 11.4602 11.6003 11.5299 11.5306C11.5996 11.461 11.6548 11.3783 11.6926 11.2873C11.7303 11.1963 11.7497 11.0988 11.7498 11.0003C11.7498 10.9018 11.7304 10.8042 11.6928 10.7132C11.6551 10.6221 11.5999 10.5394 11.5303 10.4698L10.7803 9.71975ZM5.90525 4.84475C5.7646 4.70415 5.57387 4.62516 5.375 4.62516C5.17613 4.62516 4.9854 4.70415 4.84475 4.84475L4.7825 4.91525C4.67056 5.05955 4.61512 5.23974 4.62658 5.42201C4.63804 5.60428 4.71562 5.77611 4.84475 5.90525L5.43875 6.5L4.84475 7.09475C4.70813 7.2362 4.63254 7.42565 4.63424 7.6223C4.63595 7.81895 4.71483 8.00706 4.85389 8.14611C4.99294 8.28517 5.18105 8.36405 5.3777 8.36576C5.57435 8.36746 5.7638 8.29187 5.90525 8.15525L7.03025 7.03025C7.17085 6.8896 7.24984 6.69887 7.24984 6.5C7.24984 6.30113 7.17085 6.1104 7.03025 5.96975L5.90525 4.84475ZM11.1553 4.84475C11.0146 4.70415 10.8239 4.62516 10.625 4.62516C10.4261 4.62516 10.2354 4.70415 10.0948 4.84475L8.96975 5.96975C8.82915 6.1104 8.75016 6.30113 8.75016 6.5C8.75016 6.69887 8.82915 6.8896 8.96975 7.03025L10.0948 8.15525C10.2354 8.29585 10.4261 8.37484 10.625 8.37484C10.8239 8.37484 11.0146 8.29585 11.1553 8.15525L11.2175 8.08475C11.3294 7.94045 11.3849 7.76026 11.3734 7.57799C11.362 7.39572 11.2844 7.2239 11.1553 7.09475L10.5613 6.5L11.1553 5.90525C11.2959 5.7646 11.3748 5.57387 11.3748 5.375C11.3748 5.17613 11.2959 4.9854 11.1553 4.84475Z" fill="white"/>
</svg>
