<svg width="16" height="16" viewBox="0 0 16 16" fill="none" xmlns="http://www.w3.org/2000/svg">
<path d="M8.49994 15.2511C8.89111 15.5981 9.36689 15.8358 9.87926 15.9402C10.3916 16.0446 10.9225 16.0119 11.4182 15.8456C11.914 15.6793 12.3571 15.3851 12.7028 14.9928C13.0485 14.6005 13.2847 14.124 13.3874 13.6112L13.4244 13.4253C14.0845 13.2857 14.6847 12.9439 15.1417 12.4475C15.5986 11.9511 15.8897 11.3248 15.9743 10.6554C16.059 9.98601 15.9331 9.30689 15.6141 8.71236C15.2951 8.11783 14.7988 7.63741 14.1943 7.33784C14.448 7.10383 14.6505 6.81982 14.789 6.50369C14.9276 6.18756 14.9991 5.84617 14.9992 5.50102V5.30304C14.9989 4.6794 14.7827 4.0751 14.3874 3.59279C13.992 3.11049 13.4419 2.77993 12.8305 2.65729L12.4245 2.57729L12.2985 1.94935C12.2189 1.55109 12.0404 1.17923 11.7795 0.867978C11.5186 0.556723 11.1836 0.316055 10.8054 0.168104C10.4271 0.0201516 10.0178 -0.030337 9.61492 0.0212794C9.21207 0.0728959 8.82866 0.224961 8.49994 0.463494V15.2511ZM7.50006 0.462494C7.17133 0.223729 6.78783 0.0714707 6.38485 0.019728C5.98187 -0.0320147 5.57235 0.0184195 5.19396 0.166391C4.81558 0.314362 4.48048 0.555118 4.2195 0.866509C3.95852 1.1779 3.78004 1.54992 3.70048 1.94835L3.5755 2.57629L3.16954 2.65729C2.5581 2.77993 2.00797 3.11049 1.61262 3.59279C1.21727 4.0751 1.00108 4.6794 1.00079 5.30304V5.50102C1.00079 6.22695 1.31075 6.88089 1.8057 7.33784C1.20115 7.63741 0.704915 8.11783 0.38592 8.71236C0.0669255 9.30689 -0.0589881 9.98601 0.0256715 10.6554C0.110331 11.3248 0.40136 11.9511 0.85833 12.4475C1.3153 12.9439 1.91552 13.2857 2.57561 13.4253L2.61261 13.6102C2.71519 14.1231 2.95123 14.5997 3.29691 14.9921C3.64259 15.3846 4.08567 15.6788 4.58143 15.8453C5.07719 16.0117 5.60808 16.0444 6.12053 15.9401C6.63297 15.8358 7.10882 15.5981 7.50006 15.2511V0.462494Z" fill="#11D3AC"/>
</svg>
