<svg width="64" height="64" viewBox="0 0 64 64" fill="none" xmlns="http://www.w3.org/2000/svg">
<path d="M33.9998 61.0044C35.5644 62.3924 37.4676 63.3432 39.5171 63.7607C41.5666 64.1782 43.6899 64.0477 45.6729 63.3824C47.6558 62.7171 49.4282 61.5404 50.8112 59.9713C52.1941 58.4021 53.1387 56.4959 53.5496 54.445L53.6976 53.7011C56.3379 53.1426 58.7388 51.7757 60.5667 49.7901C62.3946 47.8046 63.5587 45.299 63.8973 42.6215C64.2359 39.944 63.7323 37.2276 62.4563 34.8494C61.1803 32.4713 59.1954 30.5496 56.7772 29.3514C57.792 28.4153 58.602 27.2793 59.1561 26.0147C59.7102 24.7502 59.9965 23.3847 59.9968 22.0041V21.2121C59.9957 18.7176 59.1309 16.3004 57.5495 14.3712C55.9681 12.442 53.7676 11.1197 51.3218 10.6291L49.698 10.3092L49.1941 7.79741C48.8755 6.20435 48.1616 4.71693 47.118 3.47191C46.0743 2.22689 44.7344 1.26422 43.2215 0.672414C41.7085 0.0806065 40.0711 -0.121348 38.4597 0.0851178C36.8483 0.291583 35.3146 0.899843 33.9998 1.85397V61.0044ZM30.0002 1.84997C28.6853 0.894915 27.1513 0.285883 25.5394 0.0789119C23.9275 -0.128059 22.2894 0.0736782 20.7758 0.665563C19.2623 1.25745 17.9219 2.22047 16.878 3.46603C15.8341 4.7116 15.1202 6.19969 14.8019 7.79341L14.302 10.3052L12.6782 10.6291C10.2324 11.1197 8.03187 12.442 6.45047 14.3712C4.86907 16.3004 4.00432 18.7176 4.00315 21.2121V22.0041C4.00315 24.9078 5.24301 27.5235 7.22279 29.3514C4.80461 30.5496 2.81966 32.4713 1.54368 34.8494C0.267702 37.2276 -0.235952 39.944 0.102686 42.6215C0.441325 45.299 1.60544 47.8046 3.43332 49.7901C5.2612 51.7757 7.66208 53.1426 10.3024 53.7011L10.4504 54.441C10.8607 56.4922 11.8049 58.3989 13.1876 59.9685C14.5703 61.5382 16.3427 62.7153 18.3257 63.3811C20.3088 64.0469 22.4323 64.1777 24.4821 63.7604C26.5319 63.3431 28.4353 62.3924 30.0002 61.0044V1.84997Z" fill="#11D3AC"/>
</svg>
