<svg width="32" height="32" viewBox="0 0 32 32" fill="none" xmlns="http://www.w3.org/2000/svg">
<path d="M16.9999 30.5022C17.7822 31.1962 18.7338 31.6716 19.7585 31.8803C20.7833 32.0891 21.845 32.0239 22.8364 31.6912C23.8279 31.3585 24.7141 30.7702 25.4056 29.9856C26.0971 29.201 26.5693 28.2479 26.7748 27.2225L26.8488 26.8505C28.169 26.5713 29.3694 25.8878 30.2833 24.8951C31.1973 23.9023 31.7793 22.6495 31.9487 21.3108C32.118 19.972 31.8661 18.6138 31.2282 17.4247C30.5902 16.2357 29.5977 15.2748 28.3886 14.6757C28.896 14.2077 29.301 13.6396 29.5781 13.0074C29.8551 12.3751 29.9982 11.6923 29.9984 11.002V10.6061C29.9978 9.3588 29.5655 8.15019 28.7748 7.18559C27.9841 6.22098 26.8838 5.55987 25.6609 5.31457L24.849 5.15459L24.597 3.89871C24.4378 3.10217 24.0808 2.35847 23.559 1.73596C23.0372 1.11345 22.3672 0.632111 21.6107 0.336207C20.8543 0.0403032 20.0355 -0.0606739 19.2298 0.0425589C18.4241 0.145792 17.6573 0.449921 16.9999 0.926987V30.5022ZM15.0001 0.924987C14.3427 0.447457 13.5757 0.142941 12.7697 0.0394559C11.9637 -0.0640295 11.1447 0.0368391 10.3879 0.332782C9.63115 0.628724 8.96096 1.11024 8.439 1.73302C7.91704 2.3558 7.56008 3.09985 7.40097 3.89671L7.15099 5.15259L6.33909 5.31457C5.11619 5.55987 4.01593 6.22098 3.22523 7.18559C2.43453 8.15019 2.00216 9.3588 2.00158 10.6061V11.002C2.00158 12.4539 2.62151 13.7618 3.61139 14.6757C2.40231 15.2748 1.40983 16.2357 0.771841 17.4247C0.133851 18.6138 -0.117976 19.972 0.0513431 21.3108C0.220662 22.6495 0.802721 23.9023 1.71666 24.8951C2.6306 25.8878 3.83104 26.5713 5.15122 26.8505L5.22521 27.2205C5.43037 28.2461 5.90246 29.1994 6.59382 29.9843C7.28517 30.7691 8.17134 31.3577 9.16286 31.6905C10.1544 32.0234 11.2162 32.0888 12.2411 31.8802C13.2659 31.6715 14.2176 31.1962 15.0001 30.5022V0.924987Z" fill="#11D3AC"/>
</svg>
