<svg width="49" height="16" viewBox="0 0 49 16" fill="none" xmlns="http://www.w3.org/2000/svg">
<path d="M0.179047 0.917626H3.78728C4.15116 0.925966 4.55254 0.944033 4.92614 1.10943C5.61918 1.44579 5.63584 2.12963 5.63584 2.27557C5.63884 2.45467 5.6057 2.63254 5.53841 2.79852C5.47111 2.9645 5.37104 3.11519 5.24419 3.24156C4.81642 3.68773 4.25116 3.75305 3.84145 3.79753C4.28727 3.8156 5.00808 3.85313 5.56362 4.41743C5.78167 4.62731 6.04556 5.0012 6.04556 5.59469C6.04556 6.01305 5.90945 6.45088 5.56362 6.79697C5.0428 7.3154 4.38727 7.33486 3.822 7.35293H0.179047V7.11526H1.06236V1.15252H0.179047V0.917626ZM2.51093 1.19005L2.49287 3.67939H3.09425C3.49562 3.67939 3.81506 3.55151 3.94145 3.3875C4.09561 3.20542 4.17755 2.90381 4.17755 2.43124C4.17755 1.39993 3.8595 1.20951 3.15813 1.19005H2.51093ZM2.49287 3.94208L2.51093 7.08746H3.20396C3.52201 7.07078 3.8595 7.04298 4.15116 6.76083C4.52615 6.3786 4.52615 5.72117 4.52615 5.49323C4.52615 4.79132 4.37199 4.41882 4.08866 4.19922C3.87895 4.03521 3.51507 3.93513 2.95953 3.94208H2.49287ZM7.53718 0.917626C7.96495 0.907897 8.09272 0.907896 8.49271 0.881487V7.11664H9.12047V7.35432H6.46082V7.11664H7.14414V1.15391H6.46082V0.917626H7.53718ZM10.0302 2.93995C10.5052 2.93161 10.6496 2.93161 11.0968 2.9052L11.0788 5.79484C11.0788 6.14092 11.0968 6.40501 11.1704 6.58709C11.2885 6.87063 11.5343 6.9985 11.8357 6.9985C12.0996 6.9985 12.3273 6.89843 12.5009 6.73442C12.8551 6.3786 12.8481 5.90464 12.8481 5.50295L12.8287 3.17763H12.1523V2.93995C12.1523 2.93995 13.4648 2.93161 14.1481 2.9052V7.10692H14.8037V7.35432H14.1106C13.5287 7.35432 13.319 7.36266 12.8815 7.39046L12.8523 6.68716C12.662 6.92484 12.2162 7.45301 11.1857 7.45301C10.5121 7.45301 10.0829 7.19865 9.90934 6.85117C9.77323 6.59543 9.78295 6.26741 9.78295 5.99359L9.76351 3.17763H9.09825V2.93995H10.0302ZM19.4132 6.07699C19.1771 6.52315 18.6855 7.45301 17.3078 7.45301C15.8953 7.45301 15.03 6.36887 15.03 5.10266C15.03 3.88926 15.8508 2.81486 17.3161 2.81486C18.2272 2.81486 18.7285 3.20682 18.9466 3.43337C19.448 3.9532 19.466 4.50082 19.4757 4.89278H16.4328C16.4425 5.66696 16.4606 6.36887 16.8425 6.77195C17.0508 6.99016 17.3522 7.0819 17.6522 7.0819C18.6355 7.0819 19.0105 6.25212 19.1383 5.96023L19.4132 6.07699ZM18.0827 4.61897C18.0911 3.90733 18.0994 3.06782 17.28 3.06782C16.505 3.06782 16.4689 3.84339 16.4425 4.61897H18.0827ZM25.9617 6.89704C25.2881 7.14305 24.4492 7.44466 23.4006 7.44466C21.5243 7.44466 20.1313 6.09506 20.1313 4.12555C20.1313 2.00176 21.734 0.770294 23.5479 0.770294C24.1034 0.770294 24.9603 0.898165 25.9256 1.31792V3.13315H25.6422C25.5978 2.78567 25.5256 2.22136 24.97 1.66401C24.7952 1.48169 24.5857 1.33614 24.3539 1.2359C24.1221 1.13566 23.8726 1.08274 23.6201 1.08024C23.1381 1.08024 22.6548 1.28178 22.3354 1.60007C21.8798 2.05597 21.6799 2.78567 21.6799 4.11721C21.6799 5.40288 21.834 6.19652 22.3076 6.67882C22.5715 6.95263 22.9909 7.17224 23.4923 7.17224C23.9742 7.17224 24.5478 6.97904 25.0131 6.4884C25.5603 5.92271 25.6242 5.43902 25.6603 5.09293H25.9617V6.89704ZM28.4755 7.11664H29.1491V7.35432H26.4797V7.11664H27.145V3.17763H26.4797V2.93995C26.4797 2.93995 27.9186 2.93161 28.438 2.9052L28.4561 3.79892C28.5114 3.5811 28.6252 3.38259 28.7852 3.22488C28.8933 3.11095 29.023 3.01988 29.1669 2.95709C29.3108 2.8943 29.4658 2.86106 29.6227 2.85934C30.206 2.85934 30.4518 3.32357 30.4518 3.73498C30.4518 4.28956 30.088 4.38268 29.888 4.38268C29.7977 4.38268 29.3227 4.33682 29.3227 3.78085C29.3227 3.73498 29.3519 3.50704 29.3519 3.46256C29.3519 3.26936 29.2144 3.26936 29.188 3.26936C29.0685 3.26936 28.9047 3.4153 28.7866 3.59738C28.4852 4.08107 28.4672 4.79132 28.4575 5.29447L28.4755 7.11664ZM35.3503 5.16381C35.3503 6.60516 34.2031 7.45161 32.974 7.45161C31.6351 7.45161 30.6588 6.48701 30.6588 5.12768C30.6588 3.69607 31.6976 2.83988 32.9545 2.82042C34.4309 2.79401 35.3503 3.842 35.3503 5.16381ZM32.0435 4.94699C32.0435 6.37721 32.1351 7.19865 33.0101 7.19865C33.8934 7.19865 33.9573 6.36748 33.9573 5.16381C33.9573 4.06161 33.9031 3.04975 33.0018 3.05809C32.1532 3.05948 32.0435 3.9254 32.0435 4.94699ZM36.3045 5.67669C36.3406 5.93939 36.3683 6.16038 36.5142 6.43281C36.6586 6.72469 37.0336 7.18058 37.6794 7.18058C38.2183 7.18058 38.5738 6.87897 38.5738 6.51481C38.5738 6.1034 38.1725 5.93939 37.5891 5.7309C36.7781 5.42929 36.0961 5.18327 36.0961 4.21728C36.0961 3.06782 37.0989 2.80374 37.7266 2.80374C38.2266 2.80374 38.6377 2.94829 39.0669 3.09562L39.0849 4.28122H38.8113C38.7832 4.11276 38.7371 3.9478 38.6738 3.78919C38.5572 3.54318 38.2114 3.10674 37.6266 3.10674C37.135 3.10674 36.9156 3.43337 36.9156 3.66271C36.9156 3.94347 37.153 4.063 37.253 4.10748C37.3975 4.17281 38.1183 4.4355 38.2822 4.49944C38.8377 4.72738 39.4127 5.03733 39.4127 5.87545C39.4127 6.83171 38.6655 7.46412 37.5725 7.46412C36.9697 7.46412 36.5156 7.29872 36.042 7.12637L36.0225 5.67669H36.3045ZM40.2835 5.67669C40.3182 5.93939 40.346 6.16038 40.4918 6.43281C40.6377 6.72469 41.0113 7.18058 41.6585 7.18058C42.196 7.18058 42.5515 6.87897 42.5515 6.51481C42.5515 6.1034 42.1515 5.93939 41.5668 5.7309C40.7571 5.42929 40.0738 5.18327 40.0738 4.21728C40.0738 3.06782 41.0766 2.80374 41.7057 2.80374C42.2057 2.80374 42.6154 2.94829 43.0432 3.09562L43.0612 4.28122H42.7876C42.76 4.11281 42.7143 3.94786 42.6515 3.78919C42.5335 3.54318 42.1876 3.10674 41.6057 3.10674C41.1141 3.10674 40.8932 3.43337 40.8932 3.66271C40.8932 3.94347 41.1307 4.063 41.2307 4.10748C41.3779 4.17281 42.0974 4.4355 42.2612 4.49944C42.8168 4.72738 43.3904 5.03733 43.3904 5.87545C43.3904 6.83171 42.6432 7.46412 41.5501 7.46412C40.9474 7.46412 40.4932 7.29872 40.0182 7.12637L40.0002 5.67669H40.2835ZM0.191546 9.46143H3.79978C4.16366 9.47116 4.56504 9.48923 4.93864 9.65185C5.63168 9.99099 5.64973 10.6748 5.64973 10.8194C5.65273 10.9985 5.61959 11.1763 5.55229 11.3423C5.485 11.5083 5.38493 11.659 5.25808 11.7854C4.82892 12.2329 4.26366 12.2969 3.85395 12.3413C4.30116 12.3608 5.01919 12.3955 5.57612 12.9612C5.79417 13.1711 6.05805 13.545 6.05805 14.1385C6.05805 14.5582 5.92056 14.9947 5.57612 15.3422C5.0553 15.8606 4.40115 15.8787 3.83589 15.8967H0.191546V15.6591H1.07486V9.69633H0.191546V9.46143ZM2.52343 9.73385L2.50398 12.2232H3.10536C3.50673 12.2232 3.82478 12.0953 3.95256 11.9313C4.10672 11.7478 4.18866 11.449 4.18866 10.975C4.18866 9.94512 3.87061 9.75192 3.16924 9.73385H2.52343ZM2.50537 12.4887L2.52482 15.634H3.21785C3.5359 15.616 3.87339 15.5896 4.16505 15.306C4.54004 14.9238 4.54004 14.2664 4.54004 14.0398C4.54004 13.3365 4.38588 12.964 4.10255 12.7444C3.89422 12.5804 3.52896 12.4803 2.97342 12.4887H2.50537ZM7.54968 9.46143C7.97745 9.45309 8.10522 9.45309 8.5066 9.42529V15.6604H9.13436V15.8981H6.47332V15.6604H7.15802V9.69772H6.47332V9.46143H7.54968ZM10.0441 11.4851C10.5177 11.4754 10.6621 11.4754 11.1093 11.4504L11.0913 14.3386C11.0913 14.6847 11.1093 14.9502 11.1829 15.1323C11.301 15.4144 11.5468 15.5423 11.8482 15.5423C12.0957 15.5437 12.3342 15.4491 12.5134 15.2782C12.869 14.9224 12.8593 14.4484 12.8593 14.0481L12.8412 11.7214H12.1662V11.4851C12.1662 11.4851 13.4787 11.4754 14.162 11.4504V15.6521H14.8175V15.8981H14.1245C13.5412 15.8981 13.3315 15.9079 12.894 15.9343L12.8662 15.231C12.6745 15.47 12.2287 15.9982 11.1996 15.9982C10.526 15.9982 10.0968 15.7425 9.92462 15.3964C9.78573 15.1406 9.79684 14.8112 9.79684 14.5388L9.77879 11.7214H9.11353V11.4851H10.0441ZM19.3341 14.6222C19.098 15.0683 18.6049 15.9982 17.23 15.9982C15.8175 15.9982 14.9523 14.9127 14.9523 13.6465C14.9523 12.4345 15.7717 11.3587 17.2383 11.3587C18.1494 11.3587 18.6522 11.7492 18.8702 11.9786C19.3702 12.497 19.3896 13.0446 19.398 13.4366H16.3564C16.3647 14.2122 16.3842 14.9127 16.7661 15.3158C16.8735 15.4195 17.0006 15.5005 17.14 15.554C17.2793 15.6075 17.428 15.6324 17.5772 15.6271C18.5605 15.6271 18.9355 14.7959 19.0619 14.5054L19.3341 14.6222ZM18.0036 13.1628C18.0133 12.4511 18.023 11.613 17.2022 11.613C16.4286 11.613 16.3925 12.3886 16.3633 13.1628H18.0036ZM20.3174 13.7007C20.3632 13.9648 20.4077 14.2024 20.5632 14.5221C21.1104 15.6521 22.1035 15.6799 22.3048 15.6799C23.0243 15.6799 23.634 15.2504 23.634 14.586C23.634 13.9217 23.1326 13.7007 21.7562 13.1364C21.5382 13.0446 21.3285 12.9626 21.1285 12.8542C20.891 12.7263 20.1091 12.2691 20.1091 11.2211C20.1091 10.0911 21.009 9.33495 22.2771 9.33495C23.0701 9.33495 23.6895 9.59764 24.0173 9.73525L24.109 11.2683H23.8173C23.6895 10.7944 23.6159 10.5289 23.2993 10.2106C22.9812 9.88258 22.5604 9.65324 22.1062 9.65324C21.4132 9.65324 21.0479 10.1189 21.0479 10.5942C21.0479 11.1766 21.5771 11.424 21.8132 11.5338C22.1229 11.6783 22.4326 11.7881 22.7423 11.916C23.5354 12.2343 24.5284 12.7083 24.5284 13.9578C24.5284 15.1351 23.609 16.001 22.0687 16.001C21.2854 16.001 20.684 15.7828 20.0924 15.5729L20.0382 13.7021H20.3174M25.8534 9.46143C26.3186 9.46143 26.427 9.45309 26.8367 9.42529L26.8186 12.1509C26.9908 11.8785 27.1644 11.6214 27.6839 11.4671C27.9019 11.3948 28.12 11.3684 28.3491 11.3684C29.0241 11.3684 29.3519 11.6325 29.4977 11.7687C29.8352 12.1064 29.8616 12.5067 29.881 12.8542L29.8991 15.6618H30.5282V15.8995H27.8589V15.6618H28.5602L28.5783 12.8361C28.5783 12.4803 28.5783 11.7687 27.8672 11.7687C27.6103 11.772 27.3651 11.8769 27.1853 12.0606C26.8742 12.3705 26.8478 12.7819 26.82 13.3087L26.838 15.6604H27.5214V15.8981H24.8603V15.6604H25.5256V9.69772H24.8603V9.46143H25.8534ZM32.7032 11.4504V15.6604H33.3323V15.8981H30.6713V15.6604H31.3546V11.7214H30.6713V11.4851C30.6713 11.4851 32.074 11.4754 32.7032 11.4504ZM31.2727 10.1369C31.2727 9.74497 31.6004 9.41556 32.0018 9.41556C32.3935 9.41556 32.7129 9.73386 32.7129 10.1369C32.7129 10.54 32.3948 10.8583 32.0018 10.8583C31.8117 10.8525 31.6308 10.7749 31.4955 10.6411C31.3603 10.5072 31.2806 10.3271 31.2727 10.1369ZM38.0114 14.6222C37.7753 15.0683 37.2836 15.9982 35.9072 15.9982C34.4934 15.9982 33.6295 14.9127 33.6295 13.6465C33.6295 12.4345 34.449 11.3587 35.9156 11.3587C36.8267 11.3587 37.328 11.7492 37.5475 11.9786C38.0475 12.497 38.0655 13.0446 38.0752 13.4366H35.0337C35.042 14.2122 35.0614 14.9127 35.4434 15.3158C35.5507 15.4196 35.6778 15.5008 35.8172 15.5543C35.9565 15.6078 36.1053 15.6325 36.2545 15.6271C37.2378 15.6271 37.6128 14.7959 37.7378 14.5054L38.0114 14.6222ZM36.6822 13.1628C36.6906 12.4511 36.6989 11.613 35.8809 11.613C35.1059 11.613 35.0698 12.3886 35.042 13.1628H36.6822ZM39.4238 9.46143C39.8516 9.45309 39.9794 9.45309 40.3793 9.42529V15.6604H41.0099V15.8981H38.3489V15.6604H39.0322V9.69772H38.3489V9.46143H39.4238ZM44.7223 9.46143C45.2514 9.46143 45.4167 9.45309 45.825 9.42529V15.6521H46.4722V15.8981C46.4722 15.8981 45.1056 15.9079 44.5126 15.9343V15.331C44.3042 15.5951 43.9765 15.9968 43.1293 15.9968C41.7626 15.9968 41.2154 14.7556 41.2154 13.7535C41.2154 12.3233 42.071 11.4031 43.2473 11.4031C43.8112 11.4031 44.1126 11.5852 44.3223 11.7937C44.4133 11.8739 44.4794 11.9786 44.5126 12.0953L44.4945 9.69633H43.8209V9.46004L44.7223 9.46143ZM42.9557 12.005C42.6918 12.2788 42.6446 12.8167 42.6446 13.6729C42.6446 14.7223 42.6723 15.5965 43.5112 15.5965C43.6418 15.5984 43.7715 15.5735 43.8921 15.5233C44.0128 15.4731 44.1218 15.3987 44.2126 15.3046C44.4584 15.0503 44.5306 14.7306 44.5306 13.5825C44.5306 12.7611 44.5306 11.759 43.5654 11.7673C43.4529 11.763 43.3408 11.7819 43.2359 11.8228C43.131 11.8637 43.0356 11.9257 42.9557 12.005ZM43.1765 2.34646C43.177 2.10045 43.2504 1.86011 43.3873 1.65576C43.5242 1.45142 43.7185 1.29223 43.9457 1.19828C44.1728 1.10432 44.4228 1.07982 44.6638 1.12784C44.9049 1.17587 45.1264 1.29429 45.3003 1.46815C45.4743 1.64201 45.5928 1.86353 45.6411 2.10475C45.6894 2.34598 45.6651 2.59611 45.5715 2.82358C45.4779 3.05105 45.319 3.24567 45.115 3.38289C44.911 3.52011 44.6709 3.59378 44.4251 3.5946C44.0943 3.59423 43.7771 3.46266 43.5431 3.22871C43.3091 2.99475 43.1772 2.6775 43.1765 2.34646ZM45.4667 2.34646C45.4722 2.20797 45.449 2.06985 45.3986 1.94076C45.3482 1.81167 45.2717 1.69438 45.1739 1.59625C45.0761 1.49812 44.9591 1.42126 44.8303 1.3705C44.7014 1.31974 44.5635 1.29616 44.4251 1.30124C44.2863 1.29602 44.1479 1.31944 44.0185 1.37005C43.8891 1.42065 43.7715 1.49736 43.673 1.5954C43.5745 1.69344 43.4973 1.81071 43.446 1.93992C43.3948 2.06913 43.3706 2.20751 43.3751 2.34646C43.3751 2.95802 43.8154 3.39584 44.4251 3.39584C45.032 3.39584 45.4667 2.95802 45.4667 2.34646ZM44.1404 3.05115H43.9584V1.62787H44.5709C44.9403 1.62787 45.0667 1.76686 45.0667 2.02261C45.0667 2.29642 44.8751 2.39928 44.6265 2.41873L45.0514 3.05115H44.8459L44.4445 2.41873H44.1404V3.05115ZM44.3917 2.25472C44.5917 2.25472 44.8695 2.2853 44.8695 2.01844C44.8695 1.81829 44.7042 1.79327 44.532 1.79327H44.1417V2.25472H44.3917ZM46.075 10.5289C46.0756 10.2825 46.149 10.0419 46.2861 9.83727C46.4232 9.63267 46.6178 9.4733 46.8454 9.37929C47.0729 9.28527 47.3232 9.26081 47.5646 9.30901C47.806 9.3572 48.0277 9.47589 48.2017 9.65008C48.3758 9.82427 48.4944 10.0462 48.5426 10.2878C48.5907 10.5293 48.5663 10.7798 48.4723 11.0075C48.3784 11.2352 48.2191 11.4299 48.0147 11.5671C47.8102 11.7044 47.5698 11.7779 47.3236 11.7784C46.9926 11.7781 46.6752 11.6463 46.4411 11.412C46.2071 11.1778 46.0754 10.8602 46.075 10.5289ZM48.3652 10.5289C48.3703 10.3906 48.3468 10.2528 48.2963 10.1241C48.2457 9.99529 48.1692 9.87834 48.0714 9.78051C47.9737 9.68269 47.8568 9.60608 47.7281 9.55549C47.5995 9.50489 47.4618 9.48139 47.3236 9.48645C46.7153 9.48645 46.2736 9.92288 46.2736 10.5289C46.2736 11.1418 46.7139 11.5797 47.3236 11.5797C47.9291 11.5797 48.3652 11.1418 48.3652 10.5289ZM47.0389 11.235H46.857V9.81169H47.468C47.8389 9.81169 47.9639 9.95207 47.9639 10.205C47.9639 10.4802 47.7708 10.5831 47.5236 10.6026L47.9486 11.235H47.7444L47.3431 10.6026H47.0389V11.235ZM47.2903 10.4358C47.4903 10.4358 47.7667 10.4691 47.7667 10.2009C47.7667 10.0007 47.6014 9.9757 47.4305 9.9757H47.0403V10.4358H47.2903Z" fill="black"/>
</svg>
