<svg width="127" height="44" viewBox="0 0 127 44" fill="none" xmlns="http://www.w3.org/2000/svg">
<path d="M14.9468 18.5574C16.0951 18.5574 23.5475 21.8449 23.5475 33.6533C23.5475 39.2965 21.6457 44 20.5251 44C20.0301 44 19.8425 43.5062 19.8425 42.5571C19.8425 40.4676 20.5794 38.6168 20.5794 34.1574C20.5794 25.5466 17.0306 22.0725 15.4417 20.1169C14.9728 19.538 14.6174 19.1615 14.6174 18.8213C14.6174 18.6826 14.7159 18.5574 14.9468 18.5574ZM33.7306 18.8213C33.7306 19.1615 33.3752 19.538 32.9063 20.1169C31.3182 22.0725 27.7709 25.5466 27.7709 34.1558C27.7709 38.616 28.5047 40.4668 28.5047 42.5571C28.5047 43.5062 28.3171 44 27.8238 44C26.7007 44 24.7998 39.2965 24.7998 33.6533C24.7998 21.8449 32.2537 18.5574 33.4036 18.5574C33.6329 18.5574 33.7306 18.6826 33.7306 18.8213Z" fill="#0982C6"/>
<path d="M21.4535 20.921C21.4535 22.4631 22.6703 23.7114 24.1725 23.7114C25.6793 23.7114 26.8978 22.4631 26.8978 20.921C26.8978 19.3773 25.6793 18.1305 24.1733 18.1305C22.6703 18.1305 21.4535 19.3773 21.4535 20.921Z" fill="#F8971F"/>
<path d="M10.0384 16.5096C8.61588 15.867 7.55036 14.5785 7.37697 13.3285C8.43304 12.6339 10.1015 12.5803 11.5248 13.2238C13.0143 13.8972 13.3635 15.0353 13.3721 16.0363C12.6132 16.6932 11.5295 17.1846 10.0384 16.5096ZM14.1193 8.99517C13.2035 7.5893 12.9907 5.80933 13.5573 4.57989C14.9137 4.56177 16.4536 5.48169 17.3679 6.88598C18.323 8.35879 17.9786 9.58902 17.4049 10.4987C16.3378 10.6523 15.0745 10.468 14.1193 8.99517ZM16.2377 16.4403C15.1091 15.4842 14.4747 14.0342 14.6418 12.8489C15.7845 12.4913 17.3206 12.8772 18.4491 13.8318C19.6313 14.8352 19.6502 15.9615 19.3972 16.8767C18.5351 17.2744 17.4199 17.4398 16.2377 16.4395M19.6904 12.8418C19.2049 11.2729 19.4784 9.53625 20.343 8.52576C21.6268 8.86994 22.8326 10.1529 23.3181 11.7218C23.8264 13.3656 23.1699 14.4327 22.3873 15.1376C21.3431 14.9975 20.1964 14.4855 19.6904 12.8418ZM13.7441 24.2974C12.6203 24.5164 11.4342 24.1942 10.7974 23.5193C11.1323 22.6529 12.1151 21.9126 13.2405 21.6944C14.4187 21.466 15.1115 21.9992 15.5434 22.597C15.3661 23.3137 14.9263 24.0667 13.7441 24.2974ZM10.7729 20.9698C9.49226 20.8312 8.32586 20.0956 7.86718 19.1583C8.51422 18.3408 9.81381 17.8706 11.0953 18.0092C12.4374 18.1549 13.0033 18.9583 13.2689 19.742C12.8402 20.4532 12.1159 21.1155 10.7729 20.9698ZM10.6587 11.4659C9.65382 10.6137 9.09033 9.32596 9.23928 8.27294C10.2536 7.95317 11.6194 8.29735 12.6242 9.14638C13.6732 10.0379 13.6929 11.039 13.4675 11.8534C12.6991 12.2078 11.7092 12.3543 10.6587 11.4659ZM17.5058 4.71063C17.1007 3.40321 17.3308 1.95403 18.0496 1.11366C19.1214 1.40271 20.127 2.4707 20.5321 3.77654C20.9553 5.14696 20.4068 6.03458 19.7535 6.62528C18.8826 6.50714 17.9314 6.08184 17.5066 4.71142M0.680389 38.6364C0.680389 38.6719 0.703245 38.7002 0.748167 38.7002C0.789937 38.7002 0.865596 38.6664 0.947559 38.6372C4.9685 37.1959 10.9053 35.427 19.2373 34.8883C19.2475 34.8127 19.2964 34.4417 19.2964 34.1558C19.2964 33.5533 19.2254 32.9248 19.2065 32.82C10.6689 33.6029 4.7762 36.0768 0.905001 38.4545C0.747379 38.5522 0.680389 38.5742 0.680389 38.6364ZM34.9782 16.0355C34.9869 15.0353 35.3344 13.8964 36.824 13.223C38.2457 12.5795 39.9165 12.6323 40.9718 13.3277C40.7976 14.5777 39.7337 15.8662 38.3119 16.5081C36.8192 17.183 35.7364 16.6924 34.9782 16.0355ZM30.9447 10.4979C30.3725 9.58823 30.0265 8.35721 30.9833 6.8844C31.8967 5.4809 33.4359 4.56098 34.793 4.5791C35.3581 5.80854 35.1437 7.58851 34.2311 8.99438C33.2759 10.4672 32.0102 10.6515 30.9447 10.4979ZM28.9507 16.8759C28.6993 15.9607 28.7182 14.8344 29.9004 13.831C31.0306 12.8765 32.5642 12.4905 33.7086 12.8489C33.8741 14.0326 33.2404 15.4834 32.1111 16.4388C30.9313 17.439 29.8129 17.2736 28.9507 16.8759ZM25.9614 15.1376C25.1788 14.4327 24.5231 13.3656 25.0315 11.721C25.5146 10.1529 26.7259 8.87072 28.0074 8.52576C28.8719 9.53625 29.1454 11.2721 28.6599 12.8418C28.1516 14.4855 27.0096 14.9975 25.9614 15.1376ZM32.8077 22.5978C33.2396 22.0016 33.9292 21.466 35.1098 21.6952C36.2368 21.9134 37.2172 22.6553 37.553 23.5201C36.9177 24.195 35.7301 24.5164 34.6046 24.2982C33.424 24.0674 32.9819 23.3137 32.8077 22.5978ZM35.0814 19.7427C35.347 18.9591 35.9137 18.1557 37.2558 18.01C38.5365 17.8714 39.8345 18.3432 40.4816 19.1599C40.0237 20.0956 38.8565 20.832 37.5774 20.9706C36.2337 21.1163 35.5078 20.4539 35.0814 19.7427ZM34.8821 11.8541C34.6559 11.0398 34.674 10.0387 35.7261 9.14638C36.731 8.29814 38.096 7.95317 39.1103 8.27373C39.2584 9.32675 38.6949 10.6145 37.6909 11.4659C36.6411 12.3558 35.6489 12.2094 34.8821 11.8541ZM28.5953 6.62607C27.9419 6.03537 27.395 5.14775 27.819 3.77732C28.2225 2.47148 29.2297 1.4035 30.296 1.11445C31.0211 1.95561 31.2473 3.404 30.8438 4.71142C30.4198 6.08184 29.4669 6.50793 28.5953 6.62607ZM47.4438 38.4553C43.5741 36.0775 37.6814 33.6037 29.143 32.8208C29.0861 33.2638 29.0561 33.7099 29.0532 34.1566C29.0532 34.4425 29.1028 34.8134 29.1123 34.889C37.4434 35.4286 43.3787 37.1967 47.4028 38.638C47.4855 38.6672 47.5628 38.701 47.5998 38.701C47.6471 38.701 47.6707 38.6719 47.6707 38.638C47.6707 38.575 47.5998 38.553 47.4438 38.4553ZM24.174 8.00043C23.0683 7.48613 21.9791 6.52998 21.9791 4.54287C21.9791 2.64476 22.8752 0.819103 24.1748 0C25.4744 0.819103 26.3705 2.64397 26.3705 4.54208C26.3705 6.52998 25.2829 7.48613 24.174 8.00043Z" fill="#56B948"/>
<path d="M65.873 14.7187C65.873 15.889 66.8377 16.8381 68.0324 16.8381C69.2241 16.8381 70.1903 15.889 70.1903 14.7187C70.1903 13.5491 69.2241 12.6016 68.0317 12.6016C66.8377 12.6016 65.873 13.5491 65.873 14.7187ZM82.7276 25.8734C82.7276 29.2184 81.4193 30.6116 79.5263 30.6116C77.6167 30.6116 76.5472 28.9923 76.5472 26.1523C76.5472 23.2539 78.2062 20.858 81.279 20.858C81.9127 20.858 82.3556 20.921 82.7276 21.0108V25.8734ZM82.912 31.3599V32.4467C82.912 35.4278 81.0749 36.5856 78.7949 36.5856C76.7458 36.5856 75.2342 35.9689 74.7558 35.8027V38.7523C75.1451 38.857 76.8096 39.38 79.1842 39.38C83.4006 39.38 86.2181 37.641 86.2181 31.6804V18.8173C85.6775 18.6803 83.6977 18.1558 81.4185 18.1558C75.5037 18.1558 72.9621 22.1174 72.9621 26.4035C72.9621 30.3438 74.9458 33.4328 78.7452 33.4328C81.2506 33.4328 82.4549 31.9206 82.8466 31.3599H82.912ZM62.7994 29.5405C61.8497 29.9855 60.3302 30.2785 58.8596 30.2785C54.8497 30.2785 51.8967 27.4116 51.8967 23.0436C51.8967 18.7047 54.8292 15.804 58.8596 15.804C60.8575 15.804 62.2792 16.2923 62.8002 16.5396V13.4176C61.923 13.0923 60.5005 12.7639 58.4892 12.7639C52.2671 12.7639 48.0838 17.0641 48.0838 23.0452C48.0838 28.6978 51.9329 33.3202 58.49 33.3202C60.413 33.3202 61.86 33.0154 62.7994 32.6641V29.5405ZM115.608 25.8734C115.608 29.2184 114.299 30.6116 112.406 30.6116C110.496 30.6116 109.42 28.9923 109.42 26.1523C109.42 23.2539 111.088 20.858 114.158 20.858C114.646 20.8502 115.133 20.9015 115.608 21.0108V25.8734ZM119.538 33.1067C119.425 32.2924 119.099 30.1422 119.099 28.2914V18.8173C118.553 18.6803 116.572 18.1558 114.299 18.1558C108.381 18.1558 105.842 22.1174 105.842 26.4035C105.842 30.3438 107.819 33.4328 111.622 33.4328C114.399 33.4328 115.643 31.6387 116.113 30.6817H116.204C116.24 31.1362 116.364 32.6799 116.406 33.1075H119.539L119.538 33.1067ZM69.7789 18.5291H66.2891V33.106H69.7789V18.5291ZM90.1689 33.106V23.02C90.1689 21.6677 90.046 19.0741 90.0105 18.4858H93.1456L93.293 20.5359H93.3584C93.7225 19.9625 94.896 18.1558 97.6315 18.1558C100.935 18.1558 102.77 20.5816 102.77 23.6044V33.1067H99.2826V24.2935C99.2826 22.4371 98.2502 21.0344 96.4722 21.0344C94.6391 21.0344 93.6618 22.5151 93.6618 24.2935V33.106H90.1689ZM124.659 30.6014C124.57 30.5502 124.424 30.5266 124.228 30.5266H123.923V31.2559H124.245C124.36 31.2616 124.476 31.247 124.586 31.2126C124.724 31.1574 124.795 31.0527 124.795 30.896C124.795 30.7495 124.75 30.6518 124.659 30.6014ZM124.274 30.284C124.525 30.284 124.71 30.3076 124.826 30.3549C125.037 30.4447 125.14 30.6124 125.14 30.8668C125.14 31.048 125.074 31.1834 124.944 31.2661C124.854 31.3185 124.755 31.3517 124.652 31.3638C124.791 31.378 124.917 31.4504 124.999 31.5631C125.067 31.6534 125.105 31.7622 125.109 31.8749V32.023C125.109 32.0703 125.109 32.1199 125.112 32.1727C125.112 32.2089 125.119 32.2451 125.131 32.279L125.142 32.3026H124.81L124.805 32.2829C124.804 32.2766 124.8 32.2687 124.8 32.2601L124.793 32.1963V32.0364C124.793 31.8033 124.728 31.6481 124.602 31.5733C124.526 31.5323 124.393 31.5071 124.206 31.5071H123.924V32.3026H123.568V30.284H124.276H124.274ZM123.19 30.1816C123.041 30.3269 122.924 30.5011 122.845 30.6934C122.766 30.8857 122.727 31.0921 122.731 31.3C122.731 31.7411 122.883 32.1191 123.19 32.4286C123.482 32.7334 123.889 32.9028 124.311 32.8957C124.75 32.8957 125.126 32.7397 125.434 32.4286C125.739 32.1199 125.893 31.7411 125.893 31.3024C125.893 30.8629 125.739 30.4896 125.434 30.1808C125.288 30.0306 125.114 29.9117 124.921 29.8315C124.728 29.7513 124.52 29.7115 124.311 29.7146C124.103 29.7111 123.895 29.7508 123.702 29.831C123.51 29.9112 123.335 30.0303 123.191 30.1808L123.19 30.1816ZM125.614 32.6043C125.446 32.779 125.243 32.9172 125.019 33.0102C124.795 33.1033 124.554 33.1493 124.311 33.1453C124.069 33.1494 123.828 33.1035 123.604 33.0104C123.38 32.9173 123.178 32.779 123.01 32.6043C122.836 32.4344 122.699 32.2311 122.607 32.0068C122.515 31.7824 122.47 31.5417 122.474 31.2992C122.474 30.792 122.656 30.3588 123.013 29.9997C123.181 29.8263 123.383 29.6892 123.606 29.5969C123.83 29.5045 124.07 29.4588 124.311 29.4625C124.554 29.4583 124.794 29.5038 125.019 29.5962C125.243 29.6886 125.445 29.8259 125.614 29.9997C125.975 30.3565 126.155 30.7904 126.155 31.2984C126.159 31.5414 126.113 31.7827 126.02 32.0073C125.927 32.2319 125.789 32.435 125.614 32.6043Z" fill="#0982C6"/>
</svg>
