<svg width="104" height="52" viewBox="0 0 104 52" fill="none" xmlns="http://www.w3.org/2000/svg">
<path d="M66.7709 28.9048C66.7709 28.9048 66.084 28.3855 66.084 26.5782V10.1984H69.0075V24.0104C69.0075 25.6541 68.7826 27.7844 69.997 28.9048H66.7709Z" fill="#221F1F"/>
<path d="M61.5739 28.9048C61.5739 28.9048 60.887 28.365 60.887 26.5782V10.1984H63.8105V24.0104C63.8105 25.6541 63.5856 27.7844 64.8 28.9048H61.5739Z" fill="#221F1F"/>
<path d="M29.3784 22.9147C29.0105 22.9147 28.6588 22.9596 28.3235 23.0578C27.9882 23.1518 27.6939 23.2949 27.4444 23.4912C27.1909 23.6875 26.9906 23.9328 26.8393 24.2313C26.688 24.5298 26.6144 24.8773 26.6144 25.278C26.6144 25.5888 26.6716 25.8504 26.7861 26.059C26.9006 26.2675 27.056 26.4351 27.2523 26.566C27.4444 26.6968 27.6652 26.7909 27.9065 26.844C28.1518 26.9013 28.4053 26.9299 28.6711 26.9299C29.1086 26.9299 29.5584 26.8563 30.0204 26.7132C30.4824 26.5701 30.879 26.3534 31.2021 26.0549L31.2266 23.0128C30.9281 22.9719 30.6215 22.9433 30.3066 22.9269C29.9959 22.9147 29.6851 22.9065 29.3744 22.9065M31.5619 28.4182C31.337 28.5736 31.0958 28.7044 30.8341 28.8148C30.5724 28.9252 30.2984 29.0111 30.0163 29.0806C29.7342 29.1501 29.448 29.1992 29.1617 29.2319C28.8755 29.2605 28.5975 29.2769 28.3317 29.2769C27.7429 29.2769 27.1705 29.2033 26.6144 29.0561C26.0624 28.9089 25.5718 28.6799 25.1424 28.3692C24.7131 28.0543 24.3655 27.6577 24.108 27.1793C23.8463 26.7009 23.7154 26.1285 23.7154 25.4702C23.7154 24.681 23.8708 23.9819 24.1734 23.3685C24.4759 22.7552 24.8848 22.2441 25.3959 21.823C25.9029 21.4018 26.4917 21.0829 27.15 20.8662C27.8083 20.6495 28.4994 20.5431 29.219 20.5431C29.5461 20.5431 29.8773 20.5513 30.2207 20.5759C30.5642 20.5963 30.8995 20.629 31.2225 20.674V20.1915C31.2225 19.7826 31.1816 19.4473 31.0998 19.1857C31.0181 18.9199 30.8913 18.7114 30.7155 18.5601C30.5397 18.4088 30.3148 18.3025 30.0327 18.2411C29.7546 18.1798 29.4234 18.1512 29.035 18.1512C28.3644 18.1512 27.702 18.1757 27.0519 18.282C25.858 18.4783 24.9789 19.1243 24.9789 19.1243V16.8673C25.6699 16.4012 26.3159 16.1395 27.2523 15.9432C28.0537 15.7756 28.712 15.7756 29.5052 15.7756C30.1144 15.7756 30.691 15.8614 31.2348 16.0291C31.7786 16.1967 32.257 16.4502 32.67 16.7896C33.0829 17.129 33.41 17.5501 33.6472 18.049C33.8884 18.5519 34.007 19.1366 34.007 19.8031C34.007 20.8007 33.9988 21.7984 33.9825 22.7961C33.9661 23.7938 33.9579 24.7874 33.9579 25.785C33.9579 26.3493 34.0152 26.8808 34.1297 27.3756C34.2442 27.8744 34.42 28.4673 34.8697 28.9007H31.9217L31.5496 28.4223L31.5619 28.4182Z" fill="#221F1F"/>
<path d="M76.2527 22.9147C75.8847 22.9147 75.5331 22.9596 75.1978 23.0578C74.8625 23.1518 74.5681 23.2949 74.3146 23.4912C74.0611 23.6875 73.8608 23.9328 73.7095 24.2313C73.5582 24.5298 73.4846 24.8773 73.4846 25.278C73.4846 25.5888 73.5418 25.8504 73.6563 26.059C73.7708 26.2675 73.9262 26.4351 74.1183 26.566C74.3105 26.6968 74.5313 26.7909 74.7726 26.844C75.0179 26.9013 75.2714 26.9299 75.5372 26.9299C75.9747 26.9299 76.4244 26.8563 76.8865 26.7132C77.3485 26.5701 77.7451 26.3534 78.0682 26.0549L78.0927 23.0128C77.7942 22.9719 77.4875 22.9433 77.1727 22.9269C76.8579 22.9147 76.5471 22.9065 76.2405 22.9065M78.428 28.4182C78.2031 28.5736 77.9618 28.7044 77.7002 28.8148C77.4385 28.9252 77.1686 29.0111 76.8865 29.0806C76.6044 29.1501 76.3181 29.1992 76.0319 29.2319C75.7457 29.2605 75.4677 29.2769 75.2019 29.2769C74.609 29.2769 74.0366 29.2033 73.4846 29.0561C72.9326 28.9089 72.4419 28.6799 72.0126 28.3692C71.5833 28.0543 71.2398 27.6577 70.9781 27.1793C70.7164 26.7009 70.5856 26.1285 70.5856 25.4702C70.5856 24.681 70.7369 23.9819 71.0435 23.3685C71.3502 22.7552 71.755 22.2441 72.2661 21.823C72.7772 21.4018 73.3619 21.0829 74.0202 20.8662C74.6826 20.6495 75.3695 20.5431 76.0892 20.5431C76.4163 20.5431 76.7475 20.5513 77.095 20.5759C77.4385 20.5963 77.7697 20.629 78.0968 20.674V20.1915C78.0968 19.7826 78.0559 19.4473 77.9741 19.1857C77.8923 18.9199 77.7656 18.7114 77.5898 18.5601C77.4139 18.4088 77.185 18.3025 76.9069 18.2411C76.6289 18.1798 76.2977 18.1512 75.9093 18.1512C75.2387 18.1512 74.5763 18.1757 73.9262 18.282C72.7322 18.4783 71.8531 19.1243 71.8531 19.1243V16.8673C72.5401 16.4012 73.1902 16.1395 74.1265 15.9432C74.9279 15.7756 75.5821 15.7756 76.3836 15.7756C76.9928 15.7756 77.5693 15.8614 78.1131 16.0291C78.6569 16.1967 79.1353 16.4502 79.5483 16.7896C79.9572 17.129 80.2843 17.5501 80.5255 18.049C80.7668 18.5519 80.8854 19.1366 80.8854 19.8031C80.8854 20.8007 80.8772 21.7984 80.8608 22.7961C80.8445 23.7938 80.8363 24.7874 80.8363 25.785C80.8363 26.3493 80.8935 26.8808 81.0121 27.3756C81.1266 27.8744 81.2779 28.3814 81.4701 28.9007H78.8082L78.4361 28.4223L78.428 28.4182Z" fill="#221F1F"/>
<path d="M18.5921 10.1861C16.1102 13.4817 13.9513 18.2615 13.1826 22.0968C12.602 18.4659 10.4513 13.4817 7.96937 10.1861H4.29352V28.9006H7.34378V14.512C8.6931 16.7037 10.3981 20.7189 11.5716 26.0303H14.7814C15.8731 21.2382 17.8194 16.6628 19.1564 14.512V28.9006H22.2516V10.1861H18.5921Z" fill="#221F1F"/>
<path d="M41.3097 18.1102C43.6117 18.1102 43.8284 20.0483 43.8406 20.6412C43.8488 21.001 43.7957 21.8965 43.1251 22.5016C42.6917 22.8942 42.0784 23.0904 41.3097 23.0904C39.3634 23.0904 38.6724 21.8229 38.6724 20.633C38.6724 19.1202 39.7314 18.1061 41.3097 18.1061M46.7069 28.455C46.0036 27.8662 44.7197 27.4818 44.3395 27.3592L44.319 27.351C43.0965 26.9625 40.312 26.292 39.7559 26.1611C40.0626 25.7768 40.3283 25.4906 40.5082 25.3107H40.5369C40.9989 25.3679 41.3383 25.3679 41.5141 25.3679C44.5562 25.3679 46.6824 23.4625 46.6824 20.7393C46.6824 20.1015 46.5638 19.2796 46.1059 18.5273L47.6596 18.2533V15.5506C45.791 16.164 44.0573 15.9595 41.694 15.7755C40.6064 15.6896 37.7074 15.7755 36.3663 18.3678C36.0024 19.0752 35.8143 19.8971 35.8143 20.7393C35.8143 22.473 36.6361 23.8918 38.0345 24.6074C38.0468 24.6115 38.059 24.6196 38.0672 24.6237C37.687 25.0449 36.5135 26.6232 35.8143 27.903L41.5836 29.4281C43.2028 29.9065 45.145 30.3481 45.145 31.6811C45.145 32.6174 44.3313 33.8277 42.062 33.8277C39.5433 33.8277 39.0772 32.5315 39.0772 31.8242C39.0772 31.3008 39.253 30.9778 39.6332 30.5689L36.6075 29.7634C36.4153 30.205 36.1536 30.9655 36.1986 32.0327C36.2518 33.2021 36.7424 34.2652 37.7238 35.0134C38.7828 35.823 40.1075 36.191 41.9352 36.191C46.1304 36.191 48.044 33.7255 48.044 31.4316C48.044 30.1927 47.5942 29.191 46.7151 28.455" fill="#221F1F"/>
<path d="M90.4001 20.8333C90.4001 18.4332 89.5251 17.918 87.7423 18.2001C86.622 18.38 85.8083 18.883 85.8083 18.883V28.9006H82.987V18.699C82.987 17.1779 82.5045 16.2048 82.2551 15.8777H85.1337L85.4771 16.5155C85.4771 16.5155 87.3416 15.7714 89.063 15.7795C91.9375 15.7918 93.2255 17.5582 93.2255 21.1236V28.9006H90.396V20.8292L90.4001 20.8333Z" fill="#221F1F"/>
<path d="M53.8378 18.1675C55.412 18.1675 56.2748 19.2102 56.2748 21.4713V21.5981H51.2987C51.2987 19.2838 52.2391 18.1675 53.8378 18.1675ZM59.047 23.8101C59.1247 23.393 59.1697 22.6366 59.1697 22.285C59.1697 17.8977 57.2684 15.7796 53.8624 15.7796C50.4564 15.7796 48.277 18.2207 48.277 22.3095C48.277 26.7582 50.5872 29.2728 54.7006 29.2728C56.0703 29.2728 57.3011 28.9007 58.6177 28.316V25.9527C58.6177 25.9527 57.0271 26.7622 55.3793 26.7622C53.7315 26.7622 51.7934 26.5292 51.4663 23.806H59.047V23.8101Z" fill="#221F1F"/>
<path d="M50.7222 42.4387C50.1171 42.4387 49.8104 42.1443 49.8104 41.5555V32.8627C49.8104 32.2739 50.1211 31.9754 50.7222 31.9754H51.4868V36.3545H54.7783V32.8627C54.7783 32.2739 55.085 31.9754 55.686 31.9754H56.4711V42.4428H55.686C55.0809 42.4428 54.7783 42.1484 54.7783 41.5596V38.0555H51.4868V42.4469H50.7222V42.4387Z" fill="#0E86C8"/>
<path d="M60.2983 40.0549C60.2983 40.2962 60.3555 40.4679 60.5068 40.5824C60.6213 40.7051 60.7562 40.75 60.9157 40.75H63.602C64.2072 40.75 64.4975 41.0485 64.4975 41.625V42.4428H60.9034C60.3351 42.4428 59.8281 42.267 59.3824 41.9072C58.8795 41.4615 58.6178 40.8523 58.6178 40.059V34.3633C58.6178 33.5701 58.8754 32.9649 59.3824 32.5356C59.8076 32.1594 60.3105 31.9754 60.9034 31.9754H64.4975V32.7973C64.4975 33.3942 64.2072 33.6927 63.602 33.6927H60.9157C60.7562 33.6927 60.6213 33.7418 60.5068 33.8399C60.3555 33.9544 60.2983 34.1384 60.2983 34.3674V36.3627H64.4975V37.1846C64.4975 37.757 64.2072 38.0555 63.602 38.0555H60.2983V40.0631V40.0549Z" fill="#0E86C8"/>
<path d="M70.8965 32.7482L73.6565 42.4387H72.6138C72.4053 42.4387 72.2254 42.3774 72.0455 42.2629C71.8738 42.1484 71.7634 41.9971 71.7143 41.8049L71.146 39.7605H67.9199L67.1716 42.4387H66.2271C65.9777 42.4387 65.8019 42.3406 65.6874 42.128C65.6056 41.9808 65.6056 41.8009 65.6588 41.5841L68.1816 32.7441C68.3328 32.2207 68.7663 31.9509 69.535 31.9509C69.8416 31.9509 70.1197 31.9958 70.3691 32.1185C70.643 32.2657 70.8229 32.462 70.9006 32.7441M70.6594 38.0637L69.535 34.0566L68.4105 38.0637H70.6594Z" fill="#0E86C8"/>
<path d="M76.5307 40.3003C76.5307 40.6028 76.6738 40.75 76.9927 40.75H79.0903C79.6954 40.75 79.9898 41.0485 79.9898 41.625V42.4428H76.9069C76.224 42.4428 75.717 42.2833 75.3736 41.9358C75.0342 41.5882 74.8543 41.0976 74.8543 40.4229V32.8627C74.8543 32.2739 75.165 31.9754 75.7661 31.9754H76.5307V40.3003Z" fill="#0E86C8"/>
<path d="M79.2989 32.8586C79.2989 32.2698 79.5933 31.9713 80.1984 31.9713H85.1786V32.7932C85.1786 33.3901 84.8761 33.6886 84.2709 33.6886H83.0811V42.4387H82.296C81.6949 42.4387 81.4046 42.1443 81.4046 41.5555V33.6886H79.2989V32.8586Z" fill="#0E86C8"/>
<path d="M87.4766 42.4387C86.8755 42.4387 86.5688 42.1443 86.5688 41.5555V32.8627C86.5688 32.2739 86.8796 31.9754 87.4766 31.9754H88.2453V36.3545H91.5368V32.8627C91.5368 32.2739 91.8434 31.9754 92.4445 31.9754H93.2295V42.4428H92.4445C91.8393 42.4428 91.5368 42.1484 91.5368 41.5596V38.0555H88.2453V42.4469H87.4766V42.4387Z" fill="#0E86C8"/>
<path d="M94.9471 41.5228L95.2987 41.4942C95.315 41.6373 95.3559 41.7518 95.4173 41.8459C95.4786 41.9358 95.5726 42.0094 95.6994 42.0667C95.8261 42.1239 95.9733 42.1525 96.1328 42.1525C96.2759 42.1525 96.4027 42.1321 96.509 42.0871C96.6194 42.0462 96.6971 41.9849 96.7502 41.9113C96.8034 41.8377 96.832 41.7559 96.832 41.666C96.832 41.576 96.8075 41.4983 96.7543 41.4329C96.7012 41.3675 96.6194 41.3102 96.5008 41.2653C96.4272 41.2366 96.2596 41.1876 95.9979 41.1262C95.7403 41.0649 95.5563 41.0036 95.4541 40.9504C95.3191 40.8809 95.221 40.7909 95.1515 40.6846C95.0861 40.5783 95.0534 40.4598 95.0534 40.3289C95.0534 40.1858 95.0942 40.0509 95.176 39.9241C95.2578 39.7974 95.3764 39.7033 95.5318 39.6379C95.6871 39.5725 95.8589 39.5398 96.051 39.5398C96.2596 39.5398 96.4436 39.5725 96.603 39.642C96.7625 39.7115 96.8852 39.8096 96.971 39.9446C97.0569 40.0754 97.1019 40.2267 97.11 40.3943L96.7502 40.423C96.7298 40.243 96.6644 40.104 96.558 40.0141C96.4476 39.9241 96.28 39.8751 96.0633 39.8751C95.8466 39.8751 95.6749 39.9159 95.5685 40.0018C95.4622 40.0877 95.4132 40.1858 95.4132 40.3044C95.4132 40.4066 95.45 40.4925 95.5236 40.5579C95.5972 40.6233 95.7812 40.6928 96.0878 40.7623C96.3904 40.8318 96.5989 40.8932 96.7093 40.9463C96.8729 41.024 96.9956 41.1181 97.0732 41.2366C97.1509 41.3552 97.1918 41.486 97.1918 41.6414C97.1918 41.7968 97.1509 41.9358 97.0651 42.0707C96.9792 42.2057 96.8565 42.3079 96.693 42.3856C96.5335 42.4592 96.3495 42.496 96.1492 42.496C95.8957 42.496 95.679 42.4592 95.5072 42.3815C95.3355 42.3038 95.2006 42.1934 95.1024 42.0421C95.0043 41.8908 94.9511 41.7191 94.9471 41.531" fill="#0E86C8"/>
<path d="M97.6904 42.4388V39.5889H98.2505L98.917 41.6087C98.9783 41.7968 99.0233 41.9359 99.0519 42.0299C99.0847 41.9277 99.1337 41.7764 99.2032 41.5719L99.8779 39.5889H100.381V42.4388H100.021V40.0509L99.2032 42.4388H98.868L98.0502 40.0141V42.4388H97.6904Z" fill="#0E86C8"/>
</svg>
