<svg width="127" height="32" viewBox="0 0 127 32" fill="none" xmlns="http://www.w3.org/2000/svg">
<path d="M112.513 26.7929C112.418 25.0888 112.418 22.7219 112.418 20.6391H111.378C107.687 20.6391 106.268 21.8696 106.268 24.0473C106.268 26.3195 107.404 27.1716 110.053 27.1716C110.999 27.0769 111.945 26.9823 112.513 26.7929ZM120.651 31.4322C115.825 31.4322 112.04 32.0002 108.255 32.0002C101.064 32.0002 98.5096 29.0653 98.5096 23.9529C98.5096 19.0296 102.578 16.3789 111.378 16.3789H112.608V15.9056C112.608 12.4024 111.567 10.9823 107.972 10.9823C105.417 10.9823 102.862 11.8343 101.064 12.7811L100.781 7.19528C102.768 6.34321 106.174 5.77516 109.959 5.77516C117.718 5.77516 120.556 8.3316 120.556 15.2426C120.556 18.9349 120.273 22.1539 120.273 24.4263C120.272 26.4142 120.272 29.3491 120.651 31.4322ZM38.0475 16.7574C41.454 16.7574 43.0623 15.6213 43.0623 13.16C43.0623 11.4559 41.9269 10.5091 40.0345 10.5091C36.8174 10.5091 35.6818 13.0655 35.6818 16.5683V16.663C36.3443 16.7574 37.1959 16.7574 38.0475 16.7574ZM14.8656 26.7929C14.771 25.0888 14.771 22.7219 14.771 20.6391H13.7302C10.04 20.6391 8.62072 21.8696 8.62072 24.0473C8.62072 26.3195 9.75639 27.1716 12.5001 27.1716C13.2571 27.0769 14.2033 26.9823 14.8656 26.7929ZM38.9937 20.9231C38.0475 20.9231 36.5336 20.9231 35.7768 20.8284V21.018C35.7768 24.5209 38.1423 26.7931 42.4948 26.7931C45.144 26.7931 47.5095 25.9411 49.2129 24.9943L49.4967 30.5801C47.7936 31.3373 44.4819 31.9056 41.1702 31.9056C32.3705 31.9056 28.1126 28.8758 27.3557 20.734C26.3149 20.6393 24.8007 20.6393 22.7193 20.6393C22.6247 22.0594 22.6247 23.29 22.6247 24.4263C22.6247 26.4144 22.6247 29.3493 23.0032 31.3373C18.1773 31.3373 14.3925 31.9056 10.6077 31.9056C3.41664 31.9056 0.862122 28.9704 0.862122 23.9529C0.862122 19.0296 4.93055 16.3789 13.7304 16.3789H14.9605V15.9056C14.9605 12.4024 13.9194 10.9823 10.3241 10.9823C7.76915 10.9823 5.21463 11.8343 3.41686 12.7811L3.13278 7.19528C5.11979 6.34321 8.52611 5.77516 12.3109 5.77516C20.0697 5.77516 22.9083 8.3316 22.9083 15.2426V16.3789C24.8007 16.3789 26.1254 16.3789 27.4501 16.4736C28.207 9.65682 31.708 5.77538 40.3184 5.77538C47.4149 5.77538 50.7266 8.71029 50.7266 13.2547C50.7266 18.5562 46.7525 20.9231 38.9937 20.9231ZM95.2925 19.8817V14.9586C95.2925 8.70985 92.5485 5.86962 84.6951 5.86962C80.2477 5.86962 77.1255 6.62701 72.205 6.62701C72.4889 11.0767 72.4889 16.4732 72.4889 19.8814C72.4889 23.2897 72.3943 29.4436 72.205 31.432H80.6262C80.5316 29.4436 80.3426 23.6684 80.3426 19.8814C80.3426 17.7039 80.3426 15.053 80.4372 11.4554C81.2887 11.1716 82.3296 10.982 83.465 10.982C86.3982 10.982 87.3444 12.4022 87.3444 16.0945V19.8814C87.3444 23.2897 87.2498 29.4436 87.0608 31.432H95.4817C95.4817 29.4438 95.2925 23.6687 95.2925 19.8817ZM68.7989 25.8462L69.1774 31.3371C68.5151 31.5266 66.5281 31.9053 63.7841 31.9053C58.2015 31.9053 55.2683 29.6332 55.2683 23.9527C55.2683 19.5028 55.3629 14.6746 55.3629 12.0235H52.5243C52.6189 10.7929 52.5243 9.08855 52.5243 7.858C56.8768 7.10061 58.2015 4.73374 58.8639 1.52588e-05H63.5948C63.4056 1.89351 63.3112 4.73374 63.3112 6.62723H68.3258V12.0237H63.2164V21.6805C63.2164 25.4675 63.9733 26.4142 66.5281 26.4142C67.3796 26.4142 68.3258 26.1302 68.7989 25.8462ZM123.962 7.57398C124.341 7.57398 124.53 7.38463 124.53 7.10061C124.53 7.00593 124.435 6.81658 124.435 6.81658C124.341 6.7219 124.152 6.72191 123.962 6.72191H123.584V7.57398H123.962ZM123.205 6.43788H123.868C124.246 6.43788 124.53 6.53256 124.624 6.62723C124.814 6.81658 124.908 7.00593 124.908 7.19528C124.908 7.28995 124.908 7.38485 124.814 7.4793C124.814 7.57398 124.719 7.66865 124.719 7.66865L124.53 7.85823C124.435 7.85823 124.34 7.9529 124.34 7.9529L125.003 8.99432H124.624C124.529 8.99432 124.529 8.89965 124.435 8.80497L123.867 7.9529H123.583V8.99432H123.205V6.43788H123.205ZM123.205 9.37279C123.395 9.46747 123.678 9.56214 123.962 9.56214C124.246 9.56214 124.435 9.46747 124.719 9.37279C124.909 9.27812 125.098 9.08877 125.287 8.9941C125.476 8.80475 125.571 8.6154 125.571 8.42605C125.665 8.23647 125.665 7.95268 125.665 7.76311C125.665 7.57376 125.665 7.28973 125.571 7.10038L125.287 6.53233C125.098 6.34276 125.003 6.24831 124.719 6.15364C124.53 6.05896 124.246 5.96429 123.962 5.96429C123.678 5.96429 123.489 6.05896 123.205 6.15364C123.016 6.24831 122.827 6.34298 122.638 6.53233C122.448 6.72168 122.354 6.91103 122.354 7.10038C122.259 7.28973 122.259 7.57376 122.259 7.76311C122.259 8.1418 122.354 8.42605 122.543 8.80475C122.732 8.9941 122.921 9.27812 123.205 9.37279ZM122.448 9.27812C122.259 9.08855 122.165 8.80474 122.07 8.61517C121.975 8.33137 121.975 8.04713 121.975 7.76311C121.975 7.47931 122.07 7.19506 122.165 6.91126C122.259 6.62723 122.354 6.43788 122.543 6.24831C122.732 6.05896 122.921 5.86961 123.205 5.77494C123.489 5.68026 123.773 5.58559 124.057 5.58559C124.341 5.58559 124.719 5.68026 124.909 5.77494C125.192 5.86961 125.382 6.05896 125.571 6.24831C125.76 6.43788 125.855 6.72168 125.949 6.91126C126.044 7.19506 126.139 7.47931 126.139 7.76311C126.139 8.04713 126.044 8.33137 125.949 8.61517C125.854 8.8992 125.76 9.08855 125.571 9.27812C125.382 9.46747 125.192 9.6566 124.909 9.75149C124.625 9.84617 124.341 9.94084 124.057 9.94084C123.773 9.94084 123.394 9.84617 123.205 9.75149C122.827 9.65682 122.638 9.46747 122.448 9.27812Z" fill="#703484"/>
</svg>
