<svg width="54" height="44" viewBox="0 0 54 44" fill="none" xmlns="http://www.w3.org/2000/svg">
<g clip-path="url(#clip0_6008_556)">
<path d="M18.7745 21.508C18.7748 21.2621 18.8479 21.0219 18.9845 20.8175C19.1211 20.6132 19.3152 20.454 19.5422 20.36C19.7692 20.2659 20.0189 20.2413 20.2599 20.2893C20.5008 20.3372 20.7222 20.4555 20.896 20.6293C21.0698 20.803 21.1883 21.0244 21.2364 21.2655C21.2846 21.5066 21.2603 21.7565 21.1666 21.9838C21.0729 22.2111 20.914 22.4055 20.71 22.5424C20.506 22.6794 20.266 22.7528 20.0203 22.7533C19.6902 22.7533 19.3735 22.6222 19.1399 22.3887C18.9063 22.1552 18.7749 21.8384 18.7745 21.508ZM21.0634 21.508C21.0684 21.3697 21.0449 21.2319 20.9944 21.1031C20.9438 20.9744 20.8673 20.8574 20.7695 20.7596C20.6718 20.6618 20.5549 20.5852 20.4262 20.5346C20.2976 20.484 20.1599 20.4605 20.0217 20.4655C19.4134 20.4655 18.9745 20.902 18.9745 21.508C18.9745 22.1195 19.412 22.556 20.0217 22.556C20.6259 22.556 21.0634 22.1195 21.0634 21.508ZM19.737 22.2127H19.5551V20.7894H20.1662C20.537 20.7894 20.662 20.9284 20.662 21.1827C20.662 21.4566 20.4717 21.5594 20.2231 21.5803L20.6453 22.2127H20.4411L20.0412 21.5803H19.737V22.2127ZM19.9884 21.4149C20.187 21.4149 20.4634 21.4482 20.4634 21.1813C20.4634 20.9826 20.2981 20.9562 20.1259 20.9562H19.737V21.4162L19.9884 21.4149ZM40.5198 21.508C40.52 21.2621 40.5931 21.0217 40.7298 20.8174C40.8665 20.613 41.0607 20.4538 41.2878 20.3598C41.5148 20.2658 41.7646 20.2413 42.0056 20.2894C42.2466 20.3374 42.468 20.4559 42.6417 20.6297C42.8155 20.8036 42.9339 21.0252 42.9819 21.2663C43.0299 21.5075 43.0054 21.7575 42.9115 21.9848C42.8176 22.212 42.6584 22.4063 42.4542 22.5431C42.25 22.6799 42.0099 22.7531 41.7642 22.7533C41.4343 22.753 41.118 22.6216 40.8847 22.3882C40.6514 22.1547 40.5201 21.8382 40.5198 21.508ZM42.8086 21.508C42.8137 21.3696 42.7901 21.2317 42.7395 21.1028C42.6889 20.9739 42.6122 20.8569 42.5143 20.7591C42.4164 20.6612 42.2994 20.5847 42.1705 20.5341C42.0417 20.4836 41.9038 20.4603 41.7656 20.4655C41.6271 20.4601 41.4891 20.4833 41.36 20.5337C41.2309 20.5841 41.1136 20.6606 41.0155 20.7585C40.9173 20.8563 40.8404 20.9734 40.7895 21.1024C40.7386 21.2313 40.7149 21.3694 40.7198 21.508C40.7198 22.1195 41.1573 22.556 41.7656 22.556C41.9042 22.5609 42.0424 22.5371 42.1714 22.4861C42.3004 22.4351 42.4176 22.358 42.5155 22.2596C42.6134 22.1613 42.6899 22.0437 42.7404 21.9144C42.7908 21.7851 42.814 21.6467 42.8086 21.508ZM41.4822 22.2127H41.3003V20.7894H41.9114C42.2822 20.7894 42.4072 20.9284 42.4072 21.1827C42.4072 21.4566 42.2169 21.5594 41.9683 21.5803L42.3906 22.2127H42.1864L41.7864 21.5803H41.4809L41.4822 22.2127ZM41.7336 21.4149C41.9322 21.4149 42.2086 21.4482 42.2086 21.1813C42.2086 20.9826 42.0433 20.9562 41.8711 20.9562H41.4809V21.4162L41.7336 21.4149ZM16.0927 22.6533V16.4431H22.298V6.51358H16.0927V0.304825H6.20542V6.51358H3.05176e-05V16.4431H6.20542V22.6533H16.0927Z" fill="#00ACEC"/>
<path d="M5.4291 9.33511L9.54288 9.73123C10.3137 9.83826 10.4054 10.5874 10.1984 11.0378L7.38183 16.3333L7.38461 16.325C6.65264 15.7514 6.06085 15.0185 5.65416 14.1818C5.24747 13.3452 5.03656 12.4268 5.03745 11.4964C5.03745 10.7361 5.17633 10.0078 5.4291 9.33511ZM11.1845 6.14247C10.4581 6.14247 10.2331 6.96391 10.5526 7.38784C10.8428 7.76312 10.8984 7.87431 10.8831 8.22596C10.8706 8.5234 10.5956 8.88895 9.97481 8.90145H5.61243C6.10608 7.84379 6.891 6.94902 7.87503 6.3222C8.85907 5.69538 10.0014 5.36253 11.1678 5.36273" fill="white"/>
<path d="M6.04016 10.2399L9.15257 10.5277C9.37757 10.5443 9.39423 10.6416 9.34285 10.7695L7.16374 14.9379C6.33978 13.9806 5.8877 12.7585 5.89016 11.495C5.89016 11.0628 5.94155 10.643 6.04016 10.2399ZM9.70117 6.42046C9.38868 6.94028 9.64145 7.61439 9.93588 7.93407C9.99005 7.99106 9.96366 8.04805 9.91366 8.06334H7.15679C7.82593 7.27825 8.71063 6.70701 9.70117 6.42046Z" fill="#00ACEC"/>
<path d="M16.9052 9.33511L12.7914 9.73124C12.0206 9.83826 11.9289 10.5874 12.1358 11.0378L14.9524 16.3319L14.9483 16.3236C15.6805 15.7502 16.2724 15.0173 16.6791 14.1806C17.0859 13.3439 17.2966 12.4255 17.2954 11.495C17.2954 10.7348 17.1565 10.005 16.9038 9.33233L16.9052 9.33511ZM11.1498 6.14248C11.8761 6.14248 12.1011 6.96392 11.7817 7.38784C11.4914 7.76312 11.4359 7.87431 11.4511 8.22596C11.4636 8.5234 11.7386 8.88756 12.3595 8.90007H16.7232C16.2294 7.84251 15.4445 6.94783 14.4605 6.32103C13.4765 5.69423 12.3342 5.36131 11.1678 5.36134" fill="white"/>
<path d="M16.2954 10.2399L13.1816 10.5277C12.9566 10.5443 12.9385 10.6402 12.9913 10.7695L15.1718 14.9379C15.9649 14.0136 16.444 12.8113 16.444 11.495C16.444 11.0628 16.3926 10.643 16.2954 10.2399ZM12.6344 6.42046C12.9455 6.94028 12.6927 7.61439 12.3997 7.93268C12.3441 7.99106 12.3719 8.04805 12.4205 8.06334H15.1788C14.5092 7.27875 13.6247 6.70761 12.6344 6.42046Z" fill="#00ACEC"/>
<path d="M11.1678 17.6315C12.4136 17.6315 13.5705 17.2604 14.5385 16.621V16.6252L11.5497 12.1552C11.34 11.8675 11.0053 11.8439 10.7845 12.1552L7.79565 16.6252V16.621C8.76368 17.2604 9.92199 17.6315 11.1678 17.6315Z" fill="white"/>
<path d="M34.6533 22.8951C38.9406 20.5253 41.5378 16.7517 42.8766 12.6097C44.2655 8.31352 44.0113 3.18335 42.4044 0.0143403C39.9559 1.24997 37.5171 1.91435 34.6533 1.92269C31.7908 1.93103 29.3492 1.23747 26.9021 0.00183105C25.2938 3.16945 25.0424 8.31352 26.4313 12.6097C27.7701 16.7517 30.3687 20.5253 34.6533 22.8951Z" fill="#00ACEC"/>
<path d="M34.6491 20.9756C38.1768 18.7893 40.0573 15.6564 41.2601 12.1191C42.3281 8.97789 42.5892 5.30435 41.4142 2.43556C39.6518 3.04157 38.6185 3.2292 37.6602 3.37931C36.7658 3.51831 35.9672 3.60309 34.6589 3.62116H34.6491C33.644 3.61738 32.6406 3.53653 31.6478 3.37931C30.6895 3.23059 29.6548 3.04157 27.8924 2.43556C26.7174 5.30296 26.9785 8.97789 28.0479 12.1191C29.2521 15.6564 31.1312 18.7893 34.6575 20.9756H34.6491Z" fill="white"/>
<path d="M34.6505 20.107C37.0365 18.6045 39.742 15.1978 40.8212 10.7139C41.3975 8.33437 41.5559 5.66157 40.8087 3.54056C39.7392 3.82549 38.7434 4.06178 37.7129 4.20077C36.6824 4.33976 35.6616 4.43983 34.6574 4.44678H34.6491C33.6269 4.42871 32.6069 4.34655 31.595 4.20077C30.5631 4.06178 29.5659 3.82549 28.4979 3.54056C27.7507 5.66157 27.9104 8.33437 28.4854 10.7139C29.5659 15.1978 32.2714 18.6058 34.656 20.107H34.6505Z" fill="#00ACEC"/>
<path d="M35.1894 11.9607L35.2352 10.2733C35.2352 10.2733 34.9949 10.1718 34.6435 10.1496C34.181 10.1204 33.9894 10.0996 33.9894 10.0996L33.9963 10.2441C33.9963 10.2441 33.7477 10.3053 33.713 10.365C33.6991 10.3928 33.6505 10.4304 33.7061 10.5318C33.9519 10.9808 34.0977 11.192 34.213 11.8022C34.5658 11.8481 34.813 11.8884 35.1894 11.9607Z" fill="white"/>
<path d="M32.5255 11.6896C32.4769 12.4624 33.0491 12.9294 33.8574 13.0615C34.724 13.1866 35.2393 13.2463 35.4726 13.2991C35.5058 13.3133 35.5351 13.3351 35.5581 13.363C35.581 13.3908 35.597 13.4237 35.6046 13.459C35.6185 13.5396 35.6046 13.5813 35.5587 13.6369C35.5087 13.6994 35.4407 13.7147 35.4407 13.7147L35.4157 14.6418C35.4157 14.6418 35.7282 14.6279 36.031 14.4458C36.3171 14.2735 36.4948 14.0525 36.5587 13.7787C36.6323 13.459 36.5809 13.206 36.3559 12.8961C36.2059 12.6904 35.9448 12.5403 35.6796 12.4499C35.281 12.3109 34.5282 12.2192 33.963 12.14C33.8768 12.1288 33.738 12.0746 33.7241 11.9481C33.7088 11.805 33.8824 11.7744 33.8824 11.7744C33.8824 11.7744 33.8421 11.641 33.7699 11.4297C33.6862 11.2296 33.5907 11.0347 33.4838 10.8459C33.1019 11.0127 32.5588 11.1726 32.5255 11.6896Z" fill="white"/>
<path d="M35.1421 13.5396L35.1129 15.0713L34.4046 14.7099L34.3241 13.4479C34.6935 13.491 34.8296 13.5007 35.1421 13.5396Z" fill="white"/>
<path d="M33.2658 14.3833C33.038 14.9226 33.2408 15.4146 33.8046 15.6606C34.0477 15.7648 34.3838 15.8635 34.6407 15.9622C34.8907 16.0581 35.3546 16.3695 35.3893 16.5015C35.4102 16.5849 35.3366 16.6474 35.3366 16.6474L35.3102 17.3021C35.3102 17.3021 35.5504 17.2437 35.7518 17.0797C35.8558 17.0001 35.9394 16.8967 35.9954 16.7783C36.0515 16.6598 36.0784 16.5296 36.074 16.3986C36.0713 16.0428 35.9074 15.8274 35.4004 15.53C35.0088 15.2992 34.4741 15.0852 34.1033 14.9212C34.0727 14.9073 33.9505 14.8322 33.9921 14.6974C34.013 14.6293 34.0866 14.6029 34.0866 14.6029L34.0283 13.837C34.0283 13.837 33.8296 13.8968 33.6963 13.976C33.5755 14.0497 33.3505 14.1859 33.2658 14.3833Z" fill="white"/>
<path d="M35.0894 16.6252C35.0922 16.571 35.0741 16.5655 35.0491 16.5279C34.9657 16.4432 34.8719 16.3694 34.7699 16.3083C34.6547 16.2416 34.4061 16.1638 34.4061 16.1638C34.4061 16.1638 34.445 17.8164 34.4755 18.6962C34.4825 18.8949 34.563 18.9631 34.7561 18.9589C34.9824 18.9533 35.0297 18.8602 35.031 18.7379C35.0366 18.4599 35.0769 17.266 35.0894 16.6252ZM35.3408 5.6574C35.4255 5.71856 35.4269 5.73663 35.4546 5.86172C35.5116 6.13553 35.4074 6.53305 35.4602 6.72069C35.488 6.78184 35.5491 6.78045 35.5949 6.75404C35.9727 6.55112 36.2282 6.20086 36.6074 6.03685C36.7879 5.9604 37.299 6.21754 37.1838 6.59003C37.1296 6.76516 37.0879 6.76377 36.9713 6.86941C36.7324 7.08762 36.4157 7.31279 36.1032 7.61162C35.9046 7.80204 35.7144 7.91323 35.5713 8.14118C35.5408 8.19399 35.4658 8.33716 35.4658 8.33716C34.9366 8.22735 34.395 8.2204 33.9852 8.13423L33.9644 7.6839C33.9644 7.6839 34.4936 7.67834 34.5477 7.35866C34.5505 7.34198 34.538 7.24607 34.4769 7.2016C34.3933 7.14911 34.3038 7.10666 34.2102 7.07511C34.6102 7.13766 34.9644 7.28638 35.3755 7.46707C35.4019 7.42259 35.3338 7.26831 35.3033 7.23495C35.2477 7.16963 35.181 7.12237 35.038 7.08901C34.788 7.02508 34.1825 6.95002 34.1825 6.95002L34.6936 6.92917C34.8213 6.90832 34.9533 6.85829 34.9824 6.81381C35.031 6.70401 34.838 6.53027 34.7144 6.36348C34.6533 6.28008 34.5727 6.11885 34.463 6.01878C34.3297 5.85894 33.9241 5.70744 33.9241 5.70744C33.9241 5.70744 33.8908 5.43501 33.9575 5.30297C34.0061 5.20429 34.2227 5.19456 34.2922 5.22792C34.5949 5.40027 34.9366 5.58651 35.3408 5.6574Z" fill="white"/>
<path d="M37.0838 9.89802C37.006 9.49495 36.5949 9.1155 36.2338 8.92925C35.2949 8.44556 34.2686 8.62208 33.3075 8.31074C33.0325 8.2204 32.702 8.09113 32.627 7.77701C32.5784 7.57687 32.5811 7.3795 32.7256 7.29332C32.945 7.16406 33.1089 7.37116 33.4617 7.45177C33.6839 7.50459 33.9242 7.49903 34.0978 7.44621C34.1755 7.42259 34.2839 7.39896 34.2964 7.34058C34.2964 7.28081 34.1686 7.24468 34.1241 7.22105C34.0144 7.16545 33.9228 7.16684 33.8047 7.12236C33.6117 7.0487 33.4061 6.91249 33.2103 6.80407C33.3936 6.76516 33.7019 6.75682 33.8867 6.77905C34.0339 6.79434 34.4866 6.79017 34.6227 6.75404C34.6519 6.7457 34.72 6.72068 34.6908 6.66925C34.638 6.5803 34.5491 6.54833 34.488 6.46632C34.3561 6.28702 34.2422 6.09939 34.0283 6.01738C33.4117 5.7811 32.7242 5.72133 32.1117 6.03962C31.7139 6.25407 31.4132 6.61269 31.2711 7.04196C31.1291 7.47122 31.1565 7.93861 31.3478 8.34827C31.6798 9.02933 32.3145 9.37681 33.0631 9.56722C33.4283 9.66035 33.745 9.71316 34.1422 9.75625C34.5977 9.8049 35.0005 9.82575 35.4408 9.93694C35.5352 9.96057 35.6949 10.0287 35.7394 10.1246C35.8185 10.2969 35.7713 10.5012 35.5602 10.5874C35.5547 10.9724 35.5061 11.7744 35.5061 11.7744C35.5061 11.7744 37.4018 11.577 37.0838 9.89802ZM34.0894 6.29397C34.0495 6.27923 34.0068 6.27353 33.9644 6.27729C33.8853 6.33428 33.8311 6.38988 33.7436 6.40378C33.57 6.43297 33.5964 6.28007 33.4756 6.19668C33.4019 6.14525 33.3325 6.21058 33.2686 6.09105C33.5214 6.098 33.9019 6.09939 34.0894 6.29397Z" fill="white"/>
<path d="M11.0803 13.1657C11.1289 13.1032 11.1956 13.099 11.2539 13.1657L13.315 16.3222C12.6387 16.6236 11.9066 16.7789 11.1664 16.7781C10.4261 16.7792 9.69399 16.6238 9.01785 16.3222L11.0803 13.1657C11.1372 13.099 11.2053 13.1032 11.2539 13.1657H11.0803Z" fill="#00ACEC"/>
<path d="M33.97 17.1714C33.8714 17.2701 33.6575 17.4758 33.6978 17.9081C33.7256 18.1791 33.7839 18.2653 33.8769 18.446C33.945 18.5753 34.0547 18.6309 34.0964 18.4516C34.1214 18.3418 34.0242 18.2431 34.0561 18.0137C34.0908 17.7816 34.2103 17.7358 34.2103 17.7358L34.1769 17.013C34.101 17.056 34.0313 17.1093 33.97 17.1714Z" fill="white"/>
<path d="M5.17905 28.9176H8.78728C9.15116 28.926 9.55254 28.944 9.92614 29.1094C10.6192 29.4458 10.6358 30.1296 10.6358 30.2756C10.6388 30.4547 10.6057 30.6325 10.5384 30.7985C10.4711 30.9645 10.371 31.1152 10.2442 31.2416C9.81642 31.6877 9.25116 31.7531 8.84145 31.7975C9.28727 31.8156 10.0081 31.8531 10.5636 32.4174C10.7817 32.6273 11.0456 33.0012 11.0456 33.5947C11.0456 34.0131 10.9094 34.4509 10.5636 34.797C10.0428 35.3154 9.38727 35.3349 8.822 35.3529H5.17905V35.1153H6.06236V29.1525H5.17905V28.9176ZM7.51093 29.19L7.49287 31.6794H8.09425C8.49562 31.6794 8.81506 31.5515 8.94145 31.3875C9.09561 31.2054 9.17755 30.9038 9.17755 30.4312C9.17755 29.3999 8.8595 29.2095 8.15813 29.19H7.51093ZM7.49287 31.9421L7.51093 35.0875H8.20396C8.52201 35.0708 8.8595 35.043 9.15116 34.7608C9.52615 34.3786 9.52615 33.7212 9.52615 33.4932C9.52615 32.7913 9.37199 32.4188 9.08866 32.1992C8.87895 32.0352 8.51507 31.9351 7.95953 31.9421H7.49287ZM12.5372 28.9176C12.9649 28.9079 13.0927 28.9079 13.4927 28.8815V35.1166H14.1205V35.3543H11.4608V35.1166H12.1441V29.1539H11.4608V28.9176H12.5372ZM15.0302 30.94C15.5052 30.9316 15.6496 30.9316 16.0968 30.9052L16.0788 33.7948C16.0788 34.1409 16.0968 34.405 16.1704 34.5871C16.2885 34.8706 16.5343 34.9985 16.8357 34.9985C17.0996 34.9985 17.3273 34.8984 17.5009 34.7344C17.8551 34.3786 17.8481 33.9046 17.8481 33.503L17.8287 31.1776H17.1523V30.94C17.1523 30.94 18.4648 30.9316 19.1481 30.9052V35.1069H19.8037V35.3543H19.1106C18.5287 35.3543 18.319 35.3627 17.8815 35.3905L17.8523 34.6872C17.662 34.9248 17.2162 35.453 16.1857 35.453C15.5121 35.453 15.0829 35.1986 14.9093 34.8512C14.7732 34.5954 14.783 34.2674 14.783 33.9936L14.7635 31.1776H14.0983V30.94H15.0302ZM24.4132 34.077C24.1771 34.5232 23.6855 35.453 22.3078 35.453C20.8953 35.453 20.03 34.3689 20.03 33.1027C20.03 31.8893 20.8508 30.8149 22.3161 30.8149C23.2272 30.8149 23.7285 31.2068 23.9466 31.4334C24.448 31.9532 24.466 32.5008 24.4757 32.8928H21.4328C21.4425 33.667 21.4606 34.3689 21.8425 34.7719C22.0508 34.9902 22.3522 35.0819 22.6522 35.0819C23.6355 35.0819 24.0105 34.2521 24.1383 33.9602L24.4132 34.077ZM23.0827 32.619C23.0911 31.9073 23.0994 31.0678 22.28 31.0678C21.505 31.0678 21.4689 31.8434 21.4425 32.619H23.0827ZM30.9617 34.897C30.2881 35.1431 29.4492 35.4447 28.4006 35.4447C26.5243 35.4447 25.1313 34.0951 25.1313 32.1255C25.1313 30.0018 26.734 28.7703 28.5479 28.7703C29.1034 28.7703 29.9603 28.8982 30.9256 29.3179V31.1332H30.6422C30.5978 30.7857 30.5256 30.2214 29.97 29.664C29.7952 29.4817 29.5857 29.3361 29.3539 29.2359C29.1221 29.1357 28.8726 29.0827 28.6201 29.0802C28.1381 29.0802 27.6548 29.2818 27.3354 29.6001C26.8798 30.056 26.6799 30.7857 26.6799 32.1172C26.6799 33.4029 26.834 34.1965 27.3076 34.6788C27.5715 34.9526 27.9909 35.1722 28.4923 35.1722C28.9742 35.1722 29.5478 34.979 30.0131 34.4884C30.5603 33.9227 30.6242 33.439 30.6603 33.0929H30.9617V34.897ZM33.4755 35.1166H34.1491V35.3543H31.4797V35.1166H32.145V31.1776H31.4797V30.94C31.4797 30.94 32.9186 30.9316 33.438 30.9052L33.4561 31.7989C33.5114 31.5811 33.6252 31.3826 33.7852 31.2249C33.8933 31.1109 34.023 31.0199 34.1669 30.9571C34.3108 30.8943 34.4658 30.8611 34.6227 30.8593C35.206 30.8593 35.4518 31.3236 35.4518 31.735C35.4518 32.2896 35.088 32.3827 34.888 32.3827C34.7977 32.3827 34.3227 32.3368 34.3227 31.7808C34.3227 31.735 34.3519 31.507 34.3519 31.4626C34.3519 31.2694 34.2144 31.2694 34.188 31.2694C34.0685 31.2694 33.9047 31.4153 33.7866 31.5974C33.4852 32.0811 33.4672 32.7913 33.4575 33.2945L33.4755 35.1166ZM40.3503 33.1638C40.3503 34.6052 39.2031 35.4516 37.974 35.4516C36.6351 35.4516 35.6588 34.487 35.6588 33.1277C35.6588 31.6961 36.6976 30.8399 37.9545 30.8204C39.4309 30.794 40.3503 31.842 40.3503 33.1638ZM37.0435 32.947C37.0435 34.3772 37.1351 35.1986 38.0101 35.1986C38.8934 35.1986 38.9573 34.3675 38.9573 33.1638C38.9573 32.0616 38.9031 31.0498 38.0018 31.0581C37.1532 31.0595 37.0435 31.9254 37.0435 32.947ZM41.3045 33.6767C41.3406 33.9394 41.3683 34.1604 41.5142 34.4328C41.6586 34.7247 42.0336 35.1806 42.6794 35.1806C43.2183 35.1806 43.5738 34.879 43.5738 34.5148C43.5738 34.1034 43.1725 33.9394 42.5891 33.7309C41.7781 33.4293 41.0961 33.1833 41.0961 32.2173C41.0961 31.0678 42.0989 30.8037 42.7266 30.8037C43.2266 30.8037 43.6377 30.9483 44.0669 31.0956L44.0849 32.2812H43.8113C43.7832 32.1128 43.7371 31.9478 43.6738 31.7892C43.5572 31.5432 43.2114 31.1067 42.6266 31.1067C42.135 31.1067 41.9156 31.4334 41.9156 31.6627C41.9156 31.9435 42.153 32.063 42.253 32.1075C42.3975 32.1728 43.1183 32.4355 43.2822 32.4994C43.8377 32.7274 44.4127 33.0373 44.4127 33.8755C44.4127 34.8317 43.6655 35.4641 42.5725 35.4641C41.9697 35.4641 41.5156 35.2987 41.042 35.1264L41.0225 33.6767H41.3045ZM45.2835 33.6767C45.3182 33.9394 45.346 34.1604 45.4918 34.4328C45.6377 34.7247 46.0113 35.1806 46.6585 35.1806C47.196 35.1806 47.5515 34.879 47.5515 34.5148C47.5515 34.1034 47.1515 33.9394 46.5668 33.7309C45.7571 33.4293 45.0738 33.1833 45.0738 32.2173C45.0738 31.0678 46.0766 30.8037 46.7057 30.8037C47.2057 30.8037 47.6154 30.9483 48.0432 31.0956L48.0612 32.2812H47.7876C47.76 32.1128 47.7143 31.9479 47.6515 31.7892C47.5335 31.5432 47.1876 31.1067 46.6057 31.1067C46.1141 31.1067 45.8932 31.4334 45.8932 31.6627C45.8932 31.9435 46.1307 32.063 46.2307 32.1075C46.3779 32.1728 47.0974 32.4355 47.2612 32.4994C47.8168 32.7274 48.3904 33.0373 48.3904 33.8755C48.3904 34.8317 47.6432 35.4641 46.5501 35.4641C45.9474 35.4641 45.4932 35.2987 45.0182 35.1264L45.0002 33.6767H45.2835ZM5.19155 37.4614H8.79978C9.16366 37.4712 9.56504 37.4892 9.93864 37.6518C10.6317 37.991 10.6497 38.6748 10.6497 38.8194C10.6527 38.9985 10.6196 39.1763 10.5523 39.3423C10.485 39.5083 10.3849 39.659 10.2581 39.7854C9.82892 40.2329 9.26366 40.2969 8.85395 40.3413C9.30116 40.3608 10.0192 40.3955 10.5761 40.9612C10.7942 41.1711 11.0581 41.545 11.0581 42.1385C11.0581 42.5582 10.9206 42.9947 10.5761 43.3422C10.0553 43.8606 9.40115 43.8787 8.83589 43.8967H5.19155V43.6591H6.07486V37.6963H5.19155V37.4614ZM7.52343 37.7339L7.50398 40.2232H8.10536C8.50673 40.2232 8.82478 40.0953 8.95256 39.9313C9.10672 39.7478 9.18866 39.449 9.18866 38.975C9.18866 37.9451 8.87061 37.7519 8.16924 37.7339H7.52343ZM7.50537 40.4887L7.52482 43.634H8.21785C8.5359 43.616 8.87339 43.5896 9.16505 43.306C9.54004 42.9238 9.54004 42.2664 9.54004 42.0398C9.54004 41.3365 9.38588 40.964 9.10255 40.7444C8.89422 40.5804 8.52896 40.4803 7.97342 40.4887H7.50537ZM12.5497 37.4614C12.9774 37.4531 13.1052 37.4531 13.5066 37.4253V43.6604H14.1344V43.8981H11.4733V43.6604H12.158V37.6977H11.4733V37.4614H12.5497ZM15.0441 39.4851C15.5177 39.4754 15.6621 39.4754 16.1093 39.4504L16.0913 42.3386C16.0913 42.6847 16.1093 42.9502 16.1829 43.1323C16.301 43.4144 16.5468 43.5423 16.8482 43.5423C17.0957 43.5437 17.3342 43.4491 17.5134 43.2782C17.869 42.9224 17.8593 42.4484 17.8593 42.0481L17.8412 39.7214H17.1662V39.4851C17.1662 39.4851 18.4787 39.4754 19.162 39.4504V43.6521H19.8175V43.8981H19.1245C18.5412 43.8981 18.3315 43.9079 17.894 43.9343L17.8662 43.231C17.6745 43.47 17.2287 43.9982 16.1996 43.9982C15.526 43.9982 15.0968 43.7425 14.9246 43.3964C14.7857 43.1406 14.7968 42.8112 14.7968 42.5388L14.7788 39.7214H14.1135V39.4851H15.0441ZM24.3341 42.6222C24.098 43.0683 23.6049 43.9982 22.23 43.9982C20.8175 43.9982 19.9523 42.9127 19.9523 41.6465C19.9523 40.4345 20.7717 39.3587 22.2383 39.3587C23.1494 39.3587 23.6522 39.7492 23.8702 39.9786C24.3702 40.497 24.3896 41.0446 24.398 41.4366H21.3564C21.3647 42.2122 21.3842 42.9127 21.7661 43.3158C21.8735 43.4195 22.0006 43.5005 22.14 43.554C22.2793 43.6075 22.428 43.6324 22.5772 43.6271C23.5605 43.6271 23.9355 42.7959 24.0619 42.5054L24.3341 42.6222ZM23.0036 41.1628C23.0133 40.4511 23.023 39.613 22.2022 39.613C21.4286 39.613 21.3925 40.3886 21.3633 41.1628H23.0036ZM25.3174 41.7007C25.3632 41.9648 25.4077 42.2024 25.5632 42.5221C26.1104 43.6521 27.1035 43.6799 27.3048 43.6799C28.0243 43.6799 28.634 43.2504 28.634 42.586C28.634 41.9217 28.1326 41.7007 26.7562 41.1364C26.5382 41.0446 26.3285 40.9626 26.1285 40.8542C25.891 40.7263 25.1091 40.2691 25.1091 39.2211C25.1091 38.0911 26.009 37.3349 27.2771 37.3349C28.0701 37.3349 28.6895 37.5976 29.0173 37.7352L29.109 39.2683H28.8173C28.6895 38.7944 28.6159 38.5289 28.2993 38.2106C27.9812 37.8826 27.5604 37.6532 27.1062 37.6532C26.4132 37.6532 26.0479 38.1189 26.0479 38.5942C26.0479 39.1766 26.5771 39.424 26.8132 39.5338C27.1229 39.6783 27.4326 39.7881 27.7423 39.916C28.5354 40.2343 29.5284 40.7083 29.5284 41.9578C29.5284 43.1351 28.609 44.001 27.0687 44.001C26.2854 44.001 25.684 43.7828 25.0924 43.5729L25.0382 41.7021H25.3174M30.8534 37.4614C31.3186 37.4614 31.427 37.4531 31.8367 37.4253L31.8186 40.1509C31.9908 39.8785 32.1644 39.6214 32.6839 39.4671C32.9019 39.3948 33.12 39.3684 33.3491 39.3684C34.0241 39.3684 34.3519 39.6325 34.4977 39.7687C34.8352 40.1064 34.8616 40.5067 34.881 40.8542L34.8991 43.6618H35.5282V43.8995H32.8589V43.6618H33.5602L33.5783 40.8361C33.5783 40.4803 33.5783 39.7687 32.8672 39.7687C32.6103 39.772 32.3651 39.8769 32.1853 40.0606C31.8742 40.3705 31.8478 40.7819 31.82 41.3087L31.838 43.6604H32.5214V43.8981H29.8603V43.6604H30.5256V37.6977H29.8603V37.4614H30.8534ZM37.7032 39.4504V43.6604H38.3323V43.8981H35.6713V43.6604H36.3546V39.7214H35.6713V39.4851C35.6713 39.4851 37.074 39.4754 37.7032 39.4504ZM36.2727 38.1369C36.2727 37.745 36.6004 37.4156 37.0018 37.4156C37.3935 37.4156 37.7129 37.7339 37.7129 38.1369C37.7129 38.54 37.3948 38.8583 37.0018 38.8583C36.8117 38.8525 36.6308 38.7749 36.4955 38.6411C36.3603 38.5072 36.2806 38.3271 36.2727 38.1369ZM43.0114 42.6222C42.7753 43.0683 42.2836 43.9982 40.9072 43.9982C39.4934 43.9982 38.6295 42.9127 38.6295 41.6465C38.6295 40.4345 39.449 39.3587 40.9156 39.3587C41.8267 39.3587 42.328 39.7492 42.5475 39.9786C43.0475 40.497 43.0655 41.0446 43.0752 41.4366H40.0337C40.042 42.2122 40.0614 42.9127 40.4434 43.3158C40.5507 43.4196 40.6778 43.5008 40.8172 43.5543C40.9565 43.6078 41.1053 43.6325 41.2545 43.6271C42.2378 43.6271 42.6128 42.7959 42.7378 42.5054L43.0114 42.6222ZM41.6822 41.1628C41.6906 40.4511 41.6989 39.613 40.8809 39.613C40.1059 39.613 40.0698 40.3886 40.042 41.1628H41.6822ZM44.4238 37.4614C44.8516 37.4531 44.9794 37.4531 45.3793 37.4253V43.6604H46.0099V43.8981H43.3489V43.6604H44.0322V37.6977H43.3489V37.4614H44.4238ZM49.7223 37.4614C50.2514 37.4614 50.4167 37.4531 50.825 37.4253V43.6521H51.4722V43.8981C51.4722 43.8981 50.1056 43.9079 49.5126 43.9343V43.331C49.3042 43.5951 48.9765 43.9968 48.1293 43.9968C46.7626 43.9968 46.2154 42.7556 46.2154 41.7535C46.2154 40.3233 47.071 39.4031 48.2473 39.4031C48.8112 39.4031 49.1126 39.5852 49.3223 39.7937C49.4133 39.8739 49.4794 39.9786 49.5126 40.0953L49.4945 37.6963H48.8209V37.46L49.7223 37.4614ZM47.9557 40.005C47.6918 40.2788 47.6446 40.8167 47.6446 41.6729C47.6446 42.7223 47.6723 43.5965 48.5112 43.5965C48.6418 43.5984 48.7715 43.5735 48.8921 43.5233C49.0128 43.4731 49.1218 43.3987 49.2126 43.3046C49.4584 43.0503 49.5306 42.7306 49.5306 41.5825C49.5306 40.7611 49.5306 39.759 48.5654 39.7673C48.4529 39.763 48.3408 39.7819 48.2359 39.8228C48.131 39.8637 48.0356 39.9257 47.9557 40.005ZM48.1765 30.3465C48.177 30.1004 48.2504 29.8601 48.3873 29.6558C48.5242 29.4514 48.7185 29.2922 48.9457 29.1983C49.1728 29.1043 49.4228 29.0798 49.6638 29.1278C49.9049 29.1759 50.1264 29.2943 50.3003 29.4681C50.4743 29.642 50.5928 29.8635 50.6411 30.1048C50.6894 30.346 50.6651 30.5961 50.5715 30.8236C50.4779 31.051 50.319 31.2457 50.115 31.3829C49.911 31.5201 49.6709 31.5938 49.4251 31.5946C49.0943 31.5942 48.7771 31.4627 48.5431 31.2287C48.3091 30.9948 48.1772 30.6775 48.1765 30.3465ZM50.4667 30.3465C50.4722 30.208 50.449 30.0699 50.3986 29.9408C50.3482 29.8117 50.2717 29.6944 50.1739 29.5963C50.0761 29.4981 49.9591 29.4213 49.8303 29.3705C49.7014 29.3197 49.5635 29.2962 49.4251 29.3012C49.2863 29.296 49.1479 29.3194 49.0185 29.37C48.8891 29.4207 48.7715 29.4974 48.673 29.5954C48.5745 29.6934 48.4973 29.8107 48.446 29.9399C48.3948 30.0691 48.3706 30.2075 48.3751 30.3465C48.3751 30.958 48.8154 31.3958 49.4251 31.3958C50.032 31.3958 50.4667 30.958 50.4667 30.3465ZM49.1404 31.0511H48.9584V29.6279H49.5709C49.9403 29.6279 50.0667 29.7669 50.0667 30.0226C50.0667 30.2964 49.8751 30.3993 49.6265 30.4187L50.0514 31.0511H49.8459L49.4445 30.4187H49.1404V31.0511ZM49.3917 30.2547C49.5917 30.2547 49.8695 30.2853 49.8695 30.0184C49.8695 29.8183 49.7042 29.7933 49.532 29.7933H49.1417V30.2547H49.3917ZM51.075 38.5289C51.0756 38.2825 51.149 38.0419 51.2861 37.8373C51.4232 37.6327 51.6178 37.4733 51.8454 37.3793C52.0729 37.2853 52.3232 37.2608 52.5646 37.309C52.806 37.3572 53.0277 37.4759 53.2017 37.6501C53.3758 37.8243 53.4944 38.0462 53.5426 38.2878C53.5907 38.5293 53.5663 38.7798 53.4723 39.0075C53.3784 39.2352 53.2191 39.4299 53.0147 39.5671C52.8102 39.7044 52.5698 39.7779 52.3236 39.7784C51.9926 39.7781 51.6752 39.6463 51.4411 39.412C51.2071 39.1778 51.0754 38.8602 51.075 38.5289ZM53.3652 38.5289C53.3703 38.3906 53.3468 38.2528 53.2963 38.1241C53.2457 37.9953 53.1692 37.8783 53.0714 37.7805C52.9737 37.6827 52.8568 37.6061 52.7281 37.5555C52.5995 37.5049 52.4618 37.4814 52.3236 37.4864C51.7153 37.4864 51.2736 37.9229 51.2736 38.5289C51.2736 39.1418 51.7139 39.5797 52.3236 39.5797C52.9291 39.5797 53.3652 39.1418 53.3652 38.5289ZM52.0389 39.235H51.857V37.8117H52.468C52.8389 37.8117 52.9639 37.9521 52.9639 38.205C52.9639 38.4802 52.7708 38.5831 52.5236 38.6026L52.9486 39.235H52.7444L52.3431 38.6026H52.0389V39.235ZM52.2903 38.4358C52.4903 38.4358 52.7667 38.4691 52.7667 38.2009C52.7667 38.0007 52.6014 37.9757 52.4305 37.9757H52.0403V38.4358H52.2903Z" fill="black"/>
</g>
<defs>
<clipPath id="clip0_6008_556">
<rect width="53.5652" height="44" fill="white"/>
</clipPath>
</defs>
</svg>
