<svg width="103" height="51" viewBox="0 0 103 51" fill="none" xmlns="http://www.w3.org/2000/svg">
<path d="M55.3443 1.49513L56.8229 1.82587V17.3871C56.8229 17.4004 56.8229 17.4129 56.8218 17.4273V17.5831C56.8207 17.5965 56.8207 17.6088 56.8207 17.6233V17.7006C56.8207 17.7139 56.8207 17.7284 56.8197 17.7408V17.779C56.8197 17.7893 56.8186 17.7933 56.8186 17.7996V17.8988C56.8186 17.8988 56.8186 17.9122 56.8176 17.9174V17.977C56.8165 17.9904 56.8165 18.0027 56.8165 18.014V18.0555C56.8165 18.0676 56.8154 18.0801 56.8154 18.0936C56.8154 18.1057 56.8144 18.1172 56.8144 18.1316V18.21C56.8144 18.2213 56.8133 18.2336 56.8133 18.246V18.2862C56.8133 18.2996 56.8122 18.311 56.8122 18.3253C56.8122 18.3267 56.8122 18.3267 56.8122 18.3253C56.8122 18.3367 56.8112 18.3491 56.8112 18.3625V18.4015C56.8101 18.4138 56.8101 18.4272 56.8101 18.4406C56.8091 18.4521 56.8091 18.4632 56.8091 18.4757C56.8091 18.486 56.8091 18.4923 56.808 18.4984V18.5158C56.8068 18.5282 56.8068 18.5416 56.8068 18.555C56.8068 18.5665 56.8057 18.5798 56.8057 18.591C56.8047 18.6013 56.8047 18.6055 56.8047 18.6136V18.6302C56.8047 18.6436 56.8037 18.656 56.8037 18.6695C56.8025 18.6797 56.8025 18.6921 56.8025 18.7045C56.8025 18.7148 56.8025 18.721 56.8015 18.7283V18.7437C56.8004 18.757 56.8004 18.7695 56.8004 18.784C56.8004 18.7952 56.7994 18.8066 56.7994 18.819C56.7983 18.8293 56.7983 18.8345 56.7983 18.8438V18.8592C56.7983 18.8706 56.7972 18.885 56.7962 18.8974V18.9076C56.7962 18.9189 56.7962 18.9303 56.7951 18.9428C56.7951 18.9531 56.7951 18.9583 56.7941 18.9664V18.9809C56.7941 18.9943 56.7929 19.0067 56.792 19.021V19.0313C56.792 19.0416 56.792 19.054 56.791 19.0655V19.1046C56.791 19.117 56.7899 19.1303 56.7889 19.1437V19.154C56.7889 19.1643 56.7889 19.1756 56.7879 19.187C56.7879 19.1973 56.7879 19.2045 56.7868 19.2128V19.2273C56.7868 19.2396 56.7857 19.252 56.7847 19.2664V19.2767C56.7847 19.2882 56.7837 19.2983 56.7837 19.3097C56.7827 19.32 56.7827 19.3252 56.7827 19.3355V19.3489C56.7816 19.3623 56.7806 19.3757 56.7806 19.3881C56.7806 19.3995 56.7794 19.4107 56.7794 19.4221C56.7794 19.4324 56.7784 19.4396 56.7784 19.4479C56.7784 19.4581 56.7774 19.4581 56.7774 19.4613C56.7774 19.4747 56.7763 19.4871 56.7763 19.5005C56.7763 19.5005 56.7751 19.5005 56.7751 19.5107C56.7751 19.521 56.7751 19.5323 56.774 19.5438C56.774 19.5541 56.773 19.5601 56.773 19.5685V19.5819C56.7719 19.5952 56.7709 19.6085 56.7709 19.6221V19.6324C56.7698 19.6427 56.7688 19.654 56.7688 19.6642V19.6911C56.7678 19.7014 56.7678 19.7014 56.7678 19.7045C56.7678 19.7167 56.7667 19.7302 56.7657 19.7426V19.7529C56.7657 19.7631 56.7647 19.7735 56.7636 19.7847C56.7636 19.795 56.7636 19.8013 56.7626 19.8115C56.7626 19.8115 56.7614 19.8218 56.7614 19.8228C56.7614 19.8362 56.7604 19.8497 56.7594 19.863V19.8733C56.7594 19.8846 56.7583 19.8949 56.7573 19.9051C56.7573 19.9154 56.7573 19.9237 56.7562 19.933C56.7551 19.933 56.7551 19.9433 56.7551 19.9444C56.7551 19.9577 56.7541 19.9701 56.753 19.9835V19.9938C56.752 20.004 56.752 20.0144 56.7509 20.0246C56.7509 20.035 56.7509 20.0432 56.7499 20.0524C56.7499 20.0524 56.7488 20.0627 56.7488 20.0637C56.7488 20.0761 56.7477 20.0895 56.7477 20.1031V20.1133C56.7467 20.1246 56.7467 20.1339 56.7467 20.1443C56.7446 20.1546 56.7446 20.1637 56.7446 20.1731C56.7446 20.1731 56.7446 20.1834 56.7425 20.1834C56.7425 20.1967 56.7425 20.2101 56.7415 20.2225C56.7383 20.2225 56.7383 20.2328 56.7383 20.2328C56.7383 20.2432 56.7383 20.2536 56.7363 20.2628C56.7363 20.273 56.7352 20.2812 56.7352 20.2916C56.7342 20.2916 56.7342 20.302 56.7342 20.302C56.7342 20.3154 56.7331 20.3277 56.7331 20.3411C56.7331 20.3411 56.7331 20.3514 56.7321 20.3514C56.7321 20.3617 56.7309 20.3721 56.7309 20.3823C56.7298 20.3926 56.7288 20.402 56.7288 20.4112C56.7288 20.4112 56.7288 20.4215 56.7277 20.4215C56.7267 20.4349 56.7267 20.4483 56.7246 20.4617V20.472C56.7246 20.4822 56.7236 20.4915 56.7236 20.5007C56.7225 20.511 56.7215 20.5204 56.7215 20.5315C56.7215 20.5315 56.7205 20.5315 56.7205 20.5419C56.7193 20.5543 56.7193 20.5677 56.7173 20.58V20.5914C56.7163 20.6017 56.7153 20.6109 56.7153 20.6203C56.7142 20.6305 56.7132 20.6408 56.7132 20.6502L56.7121 20.6605L56.709 20.7006V20.711C56.708 20.7213 56.7069 20.7306 56.7069 20.7398L56.7038 20.7708V20.7811C56.7028 20.7944 56.7017 20.8068 56.7017 20.8203L56.7007 20.8306C56.6997 20.8409 56.6997 20.8501 56.6986 20.8594L56.6955 20.8904V20.9006C56.6945 20.9128 56.6934 20.9264 56.6926 20.9398V20.951C56.6914 20.9603 56.6907 20.9696 56.6905 20.9789C56.6884 20.9892 56.6884 20.9996 56.6874 21.0108L56.6863 21.0211C56.6863 21.0345 56.6843 21.0478 56.6832 21.0602C56.6832 21.0705 56.6832 21.0705 56.6822 21.0726C56.6822 21.0829 56.6811 21.091 56.6801 21.0993C56.6801 21.1107 56.6791 21.121 56.6791 21.1313C56.6791 21.1313 56.678 21.1313 56.678 21.1415L56.6749 21.1807C56.6749 21.1807 56.6739 21.1909 56.6739 21.193C56.6728 21.2033 56.6718 21.2115 56.6707 21.2208C56.6707 21.231 56.6687 21.2414 56.6687 21.2527L56.6676 21.2631C56.6666 21.2765 56.6645 21.2898 56.6645 21.3032C56.6635 21.3032 56.6624 21.3135 56.6624 21.3147C56.6624 21.325 56.6603 21.3332 56.6603 21.3413C56.6593 21.3528 56.6593 21.364 56.6583 21.3743C56.6583 21.3743 56.6572 21.3743 56.6572 21.3847L56.6541 21.4228C56.6531 21.4228 56.6531 21.4331 56.6531 21.436C56.652 21.4464 56.651 21.4536 56.6499 21.4629C56.6489 21.4732 56.6479 21.4836 56.6479 21.4958V21.5062C56.6458 21.5195 56.6449 21.5328 56.6437 21.5463C56.6437 21.5463 56.6427 21.5566 56.6427 21.5598C56.6416 21.5701 56.6406 21.5772 56.6397 21.5856C56.6386 21.5958 56.6377 21.6082 56.6377 21.6186C56.6377 21.6186 56.6366 21.6186 56.6366 21.6289C56.6356 21.6421 56.6345 21.6546 56.6326 21.668C56.6326 21.668 56.6315 21.6783 56.6315 21.6825C56.6304 21.6928 56.6294 21.699 56.6284 21.7071L56.6253 21.7412H56.6242C56.6232 21.7534 56.6222 21.7669 56.6203 21.7804C56.6203 21.7907 56.6203 21.7907 56.6193 21.7947L56.6161 21.8195C56.6151 21.8309 56.6151 21.8432 56.6141 21.8535C56.6141 21.8548 56.613 21.8535 56.613 21.8535C56.6118 21.8669 56.6109 21.8803 56.6089 21.8927C56.6089 21.9031 56.6078 21.9041 56.6078 21.9071C56.6068 21.9173 56.6057 21.9246 56.6047 21.9319C56.6037 21.9433 56.6037 21.9546 56.6016 21.967C56.5995 21.9793 56.5974 21.9917 56.5964 22.0051C56.5953 22.0154 56.5953 22.0154 56.5953 22.0206C56.5943 22.0308 56.5943 22.037 56.5933 22.0452C56.5922 22.0567 56.5901 22.0691 56.5891 22.0794H56.5881C56.587 22.0927 56.5851 22.1061 56.5851 22.1196C56.5831 22.1299 56.5831 22.1299 56.5831 22.1351C56.582 22.1453 56.581 22.1505 56.581 22.1576C56.5789 22.17 56.578 22.1825 56.5769 22.1947C56.5758 22.196 56.5758 22.1947 56.5758 22.1947C56.5747 22.2061 56.5737 22.2196 56.5717 22.2318C56.5717 22.242 56.5706 22.2433 56.5696 22.2493C56.5686 22.2596 56.5676 22.2648 56.5667 22.272C56.5657 22.2834 56.5636 22.2956 56.5626 22.307C56.5615 22.3204 56.5594 22.3338 56.5584 22.3472C56.5574 22.3575 56.5563 22.3585 56.5563 22.3636C56.5542 22.3739 56.5542 22.3791 56.5522 22.3862C56.5522 22.3985 56.5511 22.4099 56.5493 22.4233C56.5472 22.4355 56.5461 22.449 56.5441 22.4614C56.543 22.4717 56.543 22.4728 56.542 22.4778C56.5409 22.4881 56.5399 22.4933 56.5389 22.5005C56.5368 22.5139 56.5358 22.5262 56.5348 22.5365C56.5338 22.5378 56.5338 22.5365 56.5338 22.5365C56.5326 22.5509 56.5306 22.5633 56.5296 22.5766C56.5286 22.5869 56.5275 22.589 56.5265 22.5942C56.5254 22.6045 56.5244 22.6097 56.5236 22.6159C56.5215 22.628 56.5204 22.6405 56.5194 22.654C56.5173 22.6672 56.5152 22.6797 56.5142 22.6921C56.5121 22.7024 56.5121 22.7043 56.5111 22.7106C56.51 22.7208 56.509 22.7249 56.509 22.7312C56.5069 22.7446 56.5051 22.756 56.5038 22.7694C56.5038 22.7694 56.5028 22.7694 56.5028 22.7706C56.5017 22.7851 56.4998 22.7973 56.4976 22.8108C56.4965 22.8211 56.4965 22.8232 56.4955 22.8293C56.4944 22.8397 56.4934 22.8427 56.4926 22.85C56.4905 22.8623 56.4884 22.8748 56.4874 22.8881V22.8894L56.4811 22.9286C56.4801 22.9388 56.479 22.9401 56.4781 22.9471C56.4771 22.9574 56.476 22.9615 56.476 22.9677C56.474 22.9812 56.4719 22.9934 56.4698 23.0059V23.0072C56.4656 23.0205 56.4636 23.0329 56.4627 23.0453C56.4617 23.0556 56.4606 23.0597 56.4596 23.066C56.4586 23.0762 56.4575 23.0793 56.4565 23.0855C56.4544 23.0978 56.4525 23.1123 56.4502 23.1248L56.4442 23.1639C56.4442 23.1742 56.4421 23.1773 56.4411 23.1836C56.4411 23.1938 56.44 23.1969 56.439 23.2042C56.4369 23.2166 56.4348 23.229 56.4328 23.2424C56.4317 23.2567 56.4287 23.2691 56.4265 23.2815C56.4265 23.2918 56.4255 23.296 56.4244 23.3022C56.4229 23.3086 56.4222 23.3151 56.4224 23.3217C56.4193 23.3341 56.4172 23.3466 56.4151 23.3608V23.3622L56.4088 23.3992C56.4068 23.4095 56.4068 23.4126 56.4048 23.4209C56.4036 23.4311 56.4027 23.4321 56.4017 23.4393C56.3996 23.4517 56.3988 23.4642 56.3967 23.4774C56.3954 23.4774 56.3954 23.4787 56.3954 23.4774C56.3933 23.4908 56.3915 23.5032 56.3892 23.5157C56.3881 23.526 56.3871 23.5289 56.3863 23.5362C56.3852 23.5465 56.3842 23.5486 56.3821 23.5548C56.38 23.5671 56.3779 23.5806 56.3769 23.5939C56.3769 23.5953 56.3769 23.5953 56.3759 23.5939C56.3738 23.6053 56.3717 23.6187 56.3686 23.63C56.3675 23.6402 56.3665 23.6444 56.3644 23.6526C56.3644 23.6629 56.3623 23.664 56.3623 23.6712C56.3593 23.6837 56.357 23.6964 56.3553 23.7092V23.7105C56.3532 23.725 56.3511 23.7363 56.349 23.7497C56.347 23.7599 56.346 23.7641 56.3449 23.7703C56.3438 23.7806 56.3428 23.7818 56.3419 23.7878C56.3398 23.8012 56.3367 23.8146 56.3348 23.8271C56.3327 23.8393 56.3296 23.8518 56.3265 23.863C56.3254 23.8734 56.3244 23.8785 56.3223 23.8857C56.3213 23.8961 56.3202 23.8971 56.3194 23.9032C56.3163 23.9154 56.3142 23.9279 56.3131 23.9403H56.3121C56.3092 23.9525 56.3068 23.9649 56.3048 23.9773C56.3041 23.985 56.3027 23.9926 56.3007 24C56.2996 24 56.2986 24.0102 56.2976 24.0165C56.2956 24.0288 56.2924 24.0423 56.2906 24.0557C56.2875 24.0659 56.2843 24.0783 56.2823 24.0908C56.2802 24.1011 56.2791 24.1063 56.2771 24.1135C56.276 24.1237 56.275 24.1237 56.275 24.1299C56.2708 24.1433 56.2698 24.1547 56.2677 24.1681H56.2656C56.2635 24.1804 56.2615 24.1929 56.2594 24.2041C56.2583 24.2144 56.2563 24.2196 56.2542 24.2277C56.2531 24.2277 56.2521 24.238 56.2513 24.2432C56.2492 24.2567 56.2461 24.269 56.243 24.2824C56.2399 24.2927 56.2379 24.3062 56.2349 24.3175C56.2329 24.3278 56.2318 24.3339 56.2297 24.3412C56.2285 24.3515 56.2277 24.3515 56.2277 24.3567C56.2247 24.3699 56.2212 24.383 56.2173 24.396C56.2152 24.4082 56.2121 24.4196 56.2102 24.431C56.2081 24.4413 56.2061 24.4465 56.2051 24.4556C56.2039 24.4556 56.203 24.4659 56.2009 24.4711C56.1988 24.4835 56.1947 24.496 56.1928 24.5092C56.1918 24.5092 56.1918 24.5092 56.1907 24.5195C56.1886 24.5299 56.1855 24.5423 56.1834 24.5537C56.1824 24.5639 56.1803 24.568 56.1782 24.5773C56.1772 24.5773 56.1762 24.5876 56.1753 24.5918C56.1722 24.6052 56.1701 24.6185 56.166 24.6319C56.166 24.6333 56.166 24.6319 56.1649 24.6319C56.1634 24.6436 56.1607 24.655 56.1567 24.6661C56.1546 24.6763 56.1526 24.6825 56.1505 24.6918C56.1494 24.6918 56.1484 24.7021 56.1476 24.7062C56.1444 24.7197 56.1413 24.732 56.1382 24.7443H56.1372C56.1351 24.7558 56.1309 24.7681 56.1299 24.7795C56.1278 24.7897 56.1259 24.7969 56.1226 24.8042C56.1216 24.8145 56.1205 24.8145 56.1197 24.8186C56.1186 24.831 56.1145 24.8443 56.1115 24.8578H56.1094C56.1073 24.8702 56.1044 24.8805 56.1013 24.8919C56.1004 24.9007 56.0983 24.9094 56.095 24.9176C56.094 24.9176 56.093 24.9279 56.0919 24.931C56.088 24.9445 56.0846 24.9567 56.0805 24.9702V24.9805C56.0776 24.9908 56.0755 25.0012 56.0724 25.0123C56.0693 25.0227 56.0673 25.0289 56.0652 25.0392C56.0602 25.0587 56.056 25.0783 56.0498 25.0969C56.0446 25.1175 56.0404 25.1371 56.0342 25.1566C56.0292 25.1761 56.024 25.1958 56.0188 25.2154C56.0137 25.236 56.0075 25.2546 56.0023 25.2751C55.9971 25.2936 55.9921 25.3142 55.9858 25.3338C55.9806 25.3535 55.9754 25.373 55.9692 25.3926C55.964 25.4123 55.958 25.4328 55.9528 25.4514C55.9465 25.4721 55.9404 25.4916 55.9352 25.5111C55.9289 25.5297 55.923 25.5513 55.9178 25.5699C55.9126 25.5895 55.9065 25.6091 55.9013 25.6296C55.895 25.6481 55.8898 25.6688 55.8826 25.6884C55.8756 25.7079 55.8704 25.7266 55.8642 25.7472C55.858 25.7667 55.8508 25.7864 55.8456 25.8059C55.8394 25.8266 55.8332 25.8452 55.8272 25.8656C55.821 25.8853 55.8137 25.9048 55.8074 25.9234C55.8012 25.9449 55.7941 25.9635 55.788 25.9831C55.7818 26.0027 55.7747 26.0233 55.7684 26.0419C55.7612 26.0625 55.7549 26.0821 55.7487 26.1015C55.7416 26.1201 55.7343 26.1418 55.7271 26.1603C55.7201 26.1809 55.7138 26.1996 55.7056 26.2201C55.6994 26.2386 55.6922 26.2592 55.6849 26.2788C55.6777 26.2984 55.6705 26.318 55.6642 26.3376C55.6561 26.3572 55.6488 26.3768 55.6417 26.3964C55.6334 26.4171 55.6251 26.4355 55.6179 26.4561C55.6117 26.4757 55.6036 26.4952 55.5964 26.5149C55.5892 26.5345 55.5809 26.554 55.5727 26.5737C55.5646 26.5932 55.5566 26.6139 55.5482 26.6325C55.5412 26.653 55.5318 26.6716 55.5246 26.6921C55.5163 26.7107 55.5081 26.7314 55.4998 26.7508C55.4916 26.7705 55.4832 26.7902 55.4762 26.8096C55.4668 26.8293 55.4587 26.8488 55.4494 26.8684C55.4424 26.8891 55.432 26.9076 55.4247 26.9272C55.4153 26.9479 55.4062 26.9674 55.398 26.987C55.3888 27.0066 55.3805 27.0261 55.3712 27.0458C55.363 27.0665 55.3527 27.0859 55.3436 27.1046C55.3352 27.1251 55.3248 27.1447 55.3157 27.1633C55.3064 27.1839 55.2983 27.2045 55.289 27.2229C55.2879 27.2229 55.2869 27.2229 55.2858 27.2332C55.2767 27.2497 55.2673 27.2673 55.2581 27.2847C55.2489 27.3033 55.2376 27.3238 55.2282 27.3435C55.219 27.3632 55.2076 27.3826 55.1972 27.4023C55.1877 27.4223 55.1775 27.4419 55.1664 27.4611C55.1572 27.4807 55.1468 27.5002 55.1366 27.5209C55.1262 27.5393 55.1168 27.56 55.1057 27.5797C54.11 29.4104 52.5646 30.5859 51.086 30.8433L49.0463 30.5982C51.151 30.5786 52.6737 28.9271 53.513 27.5797C53.5273 27.56 53.5397 27.5395 53.5521 27.5209C53.5634 27.5001 53.5746 27.4807 53.5861 27.4611C53.5984 27.4414 53.6108 27.4219 53.6222 27.4023C53.6343 27.3816 53.6458 27.3632 53.6571 27.3435C53.6686 27.3238 53.6797 27.3033 53.6911 27.2847C53.7025 27.264 53.7138 27.2445 53.7251 27.225C53.7366 27.2055 53.7467 27.1859 53.7571 27.1653C53.7674 27.1458 53.7787 27.1272 53.7899 27.1065C53.8002 27.088 53.8116 27.0673 53.8208 27.0479C53.831 27.0282 53.8424 27.0085 53.8517 26.9891C53.8621 26.9694 53.8734 26.9489 53.8838 26.9293C53.894 26.91 53.9035 26.8904 53.9125 26.8705C53.9217 26.8508 53.9321 26.8314 53.9413 26.8117C53.9516 26.791 53.9609 26.7726 53.9702 26.7529C53.9795 26.7322 53.9888 26.7127 53.999 26.6941C54.0031 26.6828 54.0093 26.6705 54.0135 26.6591C54.0169 26.6506 54.021 26.6423 54.0258 26.6344C54.0341 26.6158 54.0434 26.5951 54.0507 26.5756C54.0588 26.556 54.0671 26.5363 54.0764 26.5168C54.0846 26.4972 54.0939 26.4776 54.1022 26.458C54.1105 26.4374 54.1176 26.4188 54.1259 26.3983C54.1341 26.3786 54.1424 26.3591 54.1496 26.3395C54.1578 26.3187 54.1662 26.3003 54.1743 26.2807C54.1825 26.2612 54.1898 26.2405 54.198 26.222C54.2048 26.2019 54.2124 26.182 54.2206 26.1623C54.2268 26.1426 54.236 26.1231 54.2422 26.1035C54.2494 26.0838 54.2566 26.0644 54.2648 26.0438C54.2719 26.0252 54.2792 26.0046 54.2854 25.985C54.2926 25.9654 54.3009 25.9469 54.3071 25.9253C54.3142 25.9068 54.3213 25.8871 54.3286 25.8676C54.3349 25.847 54.3431 25.8283 54.3483 25.8078C54.3565 25.7883 54.3617 25.7687 54.369 25.7491C54.375 25.7284 54.3823 25.7099 54.3895 25.6903C54.3957 25.6707 54.4018 25.6502 54.4091 25.6315C54.4154 25.6108 54.4215 25.5914 54.4277 25.5718C54.4348 25.5522 54.44 25.5327 54.4462 25.513C54.4524 25.4935 54.4585 25.4739 54.4648 25.4534C54.4709 25.4348 54.4771 25.4141 54.4832 25.3946C54.4884 25.375 54.4956 25.3553 54.5018 25.3358C54.5069 25.3162 54.5131 25.2965 54.5183 25.2771C54.5234 25.2564 54.5297 25.2377 54.5357 25.2173C54.5409 25.1987 54.5471 25.1782 54.5522 25.1585C54.5588 25.1389 54.5644 25.119 54.5688 25.0988C54.575 25.0803 54.5812 25.0607 54.5864 25.041C54.5884 25.0308 54.5916 25.0226 54.5934 25.0143C54.5964 25.003 54.5985 24.9916 54.6027 24.9822C54.6027 24.9822 54.6027 24.972 54.6037 24.972C54.6068 24.9585 54.61 24.9462 54.6141 24.9328C54.6152 24.9226 54.6162 24.9226 54.6171 24.9195C54.6192 24.9091 54.6213 24.902 54.6243 24.8937C54.6272 24.8822 54.6295 24.8721 54.6324 24.8596C54.6337 24.8584 54.6345 24.8596 54.6345 24.8596C54.6386 24.8463 54.6417 24.8338 54.6448 24.8204C54.6459 24.8102 54.6469 24.8102 54.6478 24.806C54.6509 24.7956 54.653 24.7894 54.656 24.7813C54.6571 24.7699 54.6612 24.7577 54.6633 24.7462C54.6644 24.745 54.6644 24.7462 54.6654 24.7462C54.6683 24.7339 54.6714 24.7204 54.6746 24.708C54.6756 24.708 54.6766 24.6978 54.6787 24.6938C54.6798 24.6835 54.6817 24.6762 54.6838 24.6679C54.6869 24.6577 54.6901 24.6464 54.692 24.634C54.6932 24.6328 54.6932 24.634 54.6932 24.634C54.6972 24.6206 54.7004 24.6073 54.7035 24.5938C54.7045 24.5938 54.7056 24.5835 54.7076 24.5794C54.7097 24.5691 54.7107 24.5628 54.7127 24.5558C54.7159 24.5443 54.719 24.532 54.7208 24.5216C54.7208 24.5216 54.7221 24.5216 54.7221 24.5113C54.725 24.499 54.7281 24.4856 54.7312 24.4732C54.7323 24.4629 54.7343 24.4619 54.7343 24.4577C54.7363 24.4475 54.7374 24.4413 54.7405 24.4331C54.7426 24.4217 54.7457 24.4104 54.7487 24.3979H54.7498C54.7529 24.3847 54.755 24.3722 54.7591 24.3588C54.7591 24.3588 54.7602 24.3484 54.7612 24.3432C54.7633 24.333 54.7653 24.3278 54.7674 24.3196C54.7705 24.3083 54.7725 24.2959 54.7746 24.2844C54.7746 24.2833 54.7757 24.2844 54.7757 24.2844C54.7786 24.2712 54.7819 24.2577 54.7838 24.2453C54.7859 24.235 54.7859 24.234 54.7868 24.2298C54.7889 24.2196 54.7909 24.2134 54.792 24.2062C54.7951 24.1948 54.7972 24.1825 54.8002 24.1702C54.8044 24.1566 54.8064 24.1454 54.8096 24.132C54.8106 24.1218 54.8116 24.1218 54.8126 24.1155C54.8147 24.1051 54.8165 24.0999 54.8178 24.0928C54.8198 24.081 54.8225 24.0693 54.8259 24.0578C54.8289 24.0445 54.831 24.0309 54.8331 24.0185C54.8352 24.0083 54.8352 24.0063 54.8371 24.0021C54.8383 23.9917 54.8392 23.9865 54.8403 23.9794C54.8433 23.967 54.8464 23.9547 54.8485 23.9424C54.8485 23.941 54.8485 23.9424 54.8495 23.9424C54.8516 23.93 54.8537 23.9176 54.8568 23.9053C54.8578 23.8949 54.8589 23.8939 54.8599 23.8876C54.862 23.8774 54.8628 23.8722 54.8649 23.865C54.867 23.8538 54.8691 23.8414 54.8711 23.8291C54.8711 23.8279 54.8722 23.8291 54.8722 23.8291C54.8753 23.8169 54.8774 23.8034 54.8805 23.7899C54.8815 23.7796 54.8815 23.7776 54.8826 23.7724C54.8836 23.7622 54.8856 23.7581 54.8866 23.7518C54.8887 23.7383 54.8918 23.727 54.8939 23.7126V23.7113C54.896 23.6969 54.8991 23.6855 54.9011 23.6732C54.9021 23.6628 54.9042 23.6607 54.9042 23.6547C54.9063 23.6444 54.9083 23.6402 54.9083 23.6321C54.9104 23.6207 54.9135 23.6071 54.9145 23.596C54.9145 23.5948 54.9145 23.5948 54.9145 23.596C54.9174 23.5827 54.9197 23.5693 54.9226 23.5569C54.9237 23.5465 54.9247 23.5445 54.9257 23.5383C54.9268 23.5281 54.9288 23.5239 54.9288 23.5176C54.9308 23.5052 54.9329 23.4918 54.9359 23.4795C54.938 23.4662 54.9401 23.4548 54.9422 23.4414C54.9443 23.4311 54.9452 23.429 54.9462 23.4229C54.9462 23.4125 54.9473 23.4084 54.9494 23.4013C54.9514 23.3889 54.9533 23.3766 54.9556 23.3642V23.3629C54.9577 23.3485 54.9595 23.3363 54.9616 23.3238C54.9627 23.3135 54.9647 23.3103 54.9658 23.3041C54.9668 23.2939 54.9679 23.2909 54.9688 23.2836C54.9709 23.2712 54.9719 23.2587 54.974 23.2443C54.977 23.231 54.9792 23.2185 54.9812 23.2062C54.9822 23.1959 54.9833 23.1929 54.9842 23.1857C54.9852 23.1753 54.9852 23.1721 54.9873 23.1659C54.9893 23.1529 54.9914 23.1399 54.9936 23.1269C54.9946 23.1144 54.9975 23.1011 54.9986 23.0876C55.0006 23.0772 55.0006 23.0743 55.0027 23.0681C55.0027 23.0577 55.0048 23.0556 55.0048 23.0472C55.0079 23.035 55.01 23.0226 55.011 23.0093V23.0079C55.0131 22.9957 55.0152 22.9832 55.0173 22.9698C55.0183 22.9595 55.0194 22.9564 55.0203 22.9491C55.0213 22.9388 55.0213 22.9369 55.0213 22.9307L55.0276 22.8915V22.8902C55.0307 22.8768 55.0317 22.8644 55.0338 22.8521C55.0359 22.8417 55.0359 22.8375 55.0379 22.8313C55.0379 22.8211 55.0379 22.8191 55.039 22.8129C55.0411 22.7985 55.0431 22.7872 55.0452 22.7727V22.7716L55.0514 22.7335C55.0525 22.7231 55.0535 22.7199 55.0535 22.7127C55.0545 22.7025 55.0545 22.7012 55.0555 22.6941L55.0618 22.656C55.0626 22.6433 55.064 22.6306 55.0658 22.618C55.0669 22.6075 55.0679 22.6046 55.069 22.5961C55.07 22.5961 55.07 22.5849 55.0711 22.5787C55.0731 22.5654 55.074 22.553 55.0763 22.5396C55.0783 22.5293 55.0792 22.517 55.0812 22.5036C55.0823 22.4933 55.0833 22.4891 55.0844 22.4809C55.0854 22.4707 55.0854 22.4707 55.0864 22.4646C55.0875 22.4522 55.0895 22.4387 55.0905 22.4265C55.0905 22.4251 55.0916 22.4265 55.0916 22.4265C55.0927 22.4129 55.0947 22.4015 55.0957 22.3893C55.0967 22.3791 55.0978 22.3739 55.0988 22.3667C55.0999 22.3667 55.0999 22.3564 55.1009 22.3503C55.1019 22.337 55.1039 22.3235 55.105 22.3101H55.1061C55.1071 22.2988 55.1082 22.2865 55.1102 22.2751C55.1112 22.2648 55.1122 22.2607 55.1133 22.2523C55.1143 22.242 55.1143 22.241 55.1154 22.235C55.1164 22.2227 55.1174 22.2092 55.1194 22.1978C55.1215 22.1856 55.1225 22.1732 55.1236 22.1608C55.1246 22.1505 55.1257 22.1463 55.1265 22.1382C55.1277 22.1278 55.1277 22.1278 55.1286 22.1226C55.1286 22.1093 55.1306 22.096 55.1316 22.0825C55.1326 22.0812 55.1326 22.0825 55.1326 22.0825C55.1338 22.0721 55.1347 22.0598 55.1368 22.0484C55.1368 22.0381 55.1389 22.0318 55.1389 22.0237C55.1399 22.0133 55.1409 22.0133 55.1409 22.0081C55.1441 21.9948 55.1451 21.9824 55.1461 21.9701C55.1472 21.9576 55.1493 21.9464 55.1503 21.9349C55.1513 21.9246 55.1513 21.9194 55.1524 21.9103C55.1524 21.9103 55.1534 21.8999 55.1545 21.8957C55.1555 21.8835 55.1565 21.87 55.1586 21.8567C55.1597 21.8463 55.1607 21.834 55.1616 21.8225C55.1627 21.8122 55.1637 21.807 55.1648 21.7979C55.1648 21.7875 55.1658 21.7875 55.1658 21.7833L55.1688 21.7443C55.1699 21.7429 55.1699 21.7443 55.1699 21.7339L55.173 21.6998C55.174 21.6896 55.1751 21.6834 55.1761 21.6752C55.1761 21.6752 55.1771 21.6649 55.1771 21.6607C55.1782 21.6473 55.1801 21.635 55.1811 21.6216C55.1821 21.6216 55.1821 21.6216 55.1821 21.6113C55.1834 21.601 55.1834 21.5887 55.1842 21.5783C55.1852 21.5679 55.1863 21.5618 55.1872 21.5525V21.539C55.1893 21.5257 55.1903 21.5124 55.1914 21.4989C55.1914 21.4976 55.1914 21.4989 55.1924 21.4886C55.1935 21.4763 55.1935 21.466 55.1945 21.4556C55.1945 21.4453 55.1955 21.439 55.1966 21.4289C55.1966 21.4289 55.1977 21.4185 55.1977 21.4154C55.1988 21.4031 55.2007 21.3897 55.2018 21.3774C55.2018 21.3774 55.2018 21.367 55.2028 21.367C55.2028 21.3568 55.2049 21.3454 55.2049 21.334C55.206 21.3238 55.207 21.3176 55.2079 21.3073L55.209 21.2959C55.209 21.2827 55.2101 21.2692 55.2121 21.2558V21.2455C55.2131 21.234 55.2142 21.2229 55.2142 21.2136C55.2152 21.2033 55.2163 21.195 55.2173 21.1857C55.2173 21.1857 55.2173 21.1755 55.2183 21.1734C55.2183 21.1601 55.2204 21.1476 55.2213 21.1342V21.124L55.2245 21.0921C55.2245 21.0819 55.2255 21.0756 55.2255 21.0653C55.2255 21.0653 55.2265 21.055 55.2265 21.0529L55.2297 21.0137C55.2297 21.0137 55.2307 21.0137 55.2307 21.0033C55.2307 20.992 55.2317 20.9817 55.2317 20.9715C55.2328 20.9611 55.2338 20.9541 55.2349 20.9437V20.9323L55.2378 20.8932C55.2378 20.8932 55.2388 20.8932 55.2388 20.8829C55.2388 20.8727 55.2401 20.8623 55.2409 20.8521C55.2409 20.8418 55.2419 20.8334 55.243 20.8232V20.8128C55.2451 20.7995 55.2451 20.7871 55.247 20.7738V20.7634C55.247 20.752 55.2481 20.7428 55.2481 20.7324C55.2492 20.7221 55.2502 20.714 55.2502 20.7037L55.2512 20.6934L55.2543 20.6532V20.6429C55.2554 20.6326 55.2564 20.6222 55.2564 20.613C55.2574 20.6026 55.2585 20.5945 55.2585 20.5841V20.5727C55.2595 20.5605 55.2595 20.547 55.2606 20.5347C55.2616 20.5347 55.2616 20.5244 55.2616 20.5244C55.2616 20.5129 55.2627 20.5037 55.2637 20.4934C55.2637 20.4831 55.2647 20.4748 55.2658 20.4645V20.4543C55.2668 20.4408 55.2678 20.4275 55.2678 20.414L55.2689 20.4038C55.27 20.3934 55.27 20.3843 55.271 20.3749C55.272 20.3646 55.272 20.3544 55.272 20.344C55.273 20.344 55.273 20.3336 55.273 20.3336C55.2741 20.3203 55.2751 20.3079 55.2751 20.2946V20.2842C55.2762 20.274 55.2762 20.2646 55.2772 20.2553C55.2772 20.2451 55.2783 20.2359 55.2783 20.2255L55.2794 20.2152C55.2794 20.203 55.2804 20.1894 55.2815 20.176V20.1657C55.2815 20.1554 55.2827 20.1461 55.2835 20.1369C55.2835 20.1265 55.2835 20.1171 55.2846 20.1059C55.2846 20.1059 55.2856 20.1059 55.2856 20.0956C55.2856 20.0823 55.2867 20.0688 55.2877 20.0564V20.045C55.2887 20.0347 55.2887 20.0266 55.2898 20.0173C55.2898 20.007 55.291 19.9966 55.291 19.9863V19.9761C55.291 19.9626 55.2921 19.9503 55.2931 19.9368V19.9254C55.2942 19.9152 55.2942 19.9059 55.2952 19.8976C55.2952 19.8873 55.2952 19.877 55.2962 19.8658V19.8554C55.2973 19.8421 55.2973 19.8286 55.2983 19.8153V19.8039C55.2994 19.7935 55.2994 19.7853 55.2994 19.7771C55.3004 19.7657 55.3004 19.7555 55.3014 19.7452V19.7349C55.3025 19.7227 55.3025 19.7092 55.3025 19.6968V19.6834C55.3035 19.673 55.3035 19.666 55.3046 19.6567C55.3046 19.6464 55.3046 19.6351 55.3056 19.6249V19.6145C55.3066 19.6011 55.3066 19.5877 55.3077 19.5744V19.5609C55.3087 19.5507 55.3087 19.5435 55.3087 19.5362C55.3087 19.525 55.31 19.5136 55.31 19.5033L55.311 19.493C55.311 19.4797 55.311 19.4673 55.312 19.4538V19.4405V19.4147C55.312 19.4034 55.3131 19.3921 55.3131 19.3808V19.3704C55.3141 19.3581 55.3141 19.3446 55.3152 19.3312V19.3179C55.3163 19.3074 55.3163 19.3004 55.3163 19.292C55.3163 19.2807 55.3173 19.2705 55.3173 19.2592C55.3184 19.2592 55.3184 19.2592 55.3184 19.2489V19.2096C55.3194 19.2096 55.3194 19.1992 55.3194 19.1953C55.3194 19.1849 55.3207 19.1777 55.3207 19.1696V19.1366L55.3217 19.1264C55.3217 19.1128 55.3228 19.0995 55.3228 19.087V19.0715C55.3228 19.0613 55.3228 19.0561 55.3238 19.0479V19.014V19.0036C55.3238 18.9892 55.3238 18.9768 55.3248 18.9635V18.9489C55.3259 18.9387 55.3259 18.9325 55.3259 18.9253C55.3259 18.913 55.3259 18.9017 55.3269 18.8902C55.3269 18.8778 55.328 18.8636 55.328 18.8521V18.8365V18.8119C55.329 18.7996 55.329 18.7882 55.329 18.7769C55.3302 18.7624 55.3302 18.7501 55.3302 18.7367V18.7212V18.6976C55.3313 18.6851 55.3313 18.6728 55.3313 18.6624C55.3323 18.649 55.3323 18.6367 55.3323 18.6233V18.6067C55.3323 18.5964 55.3323 18.5912 55.3334 18.5842C55.3334 18.5727 55.3334 18.5594 55.3345 18.548V18.5089V18.4913V18.4687C55.3355 18.4565 55.3355 18.445 55.3355 18.4338C55.3355 18.4202 55.3366 18.4069 55.3366 18.3945V18.3771V18.3552V18.3182C55.3366 18.317 55.3366 18.317 55.3366 18.3182C55.3366 18.3039 55.3366 18.2924 55.3376 18.279V18.2616V18.2389C55.3376 18.2267 55.3389 18.2143 55.3389 18.2029V18.1628V18.1452V18.1245V18.0864C55.3389 18.0732 55.3389 18.0607 55.3399 18.0483V18.0287V18.0072V17.9701V17.929V17.9103V17.8919V17.8515V17.8122V17.7927V17.7617V1.48806L52.6001 2.95734L54.0498 3.28068V17.4584C54.0487 17.4707 54.0487 17.4842 54.0487 17.4976V17.8919C54.0487 17.8919 54.0477 17.9053 54.0477 17.9104V17.9701C54.0466 17.9835 54.0466 17.9948 54.0466 18.0072V18.0864C54.0466 18.0978 54.0466 18.1102 54.0455 18.1247V18.1628C54.0455 18.1749 54.0445 18.1894 54.0445 18.2029V18.3184C54.0445 18.3195 54.0445 18.3195 54.0445 18.3184C54.0434 18.3297 54.0434 18.342 54.0434 18.3554V18.3945C54.0424 18.4068 54.0424 18.4203 54.0424 18.4338V18.4688C54.0424 18.4791 54.0411 18.4854 54.0411 18.4915V18.5089C54.0401 18.5212 54.0401 18.5347 54.0401 18.548V18.5842C54.039 18.5944 54.0391 18.5985 54.0391 18.6067V18.6233C54.038 18.6367 54.038 18.649 54.038 18.6624C54.038 18.6727 54.038 18.6851 54.0369 18.6976V18.7212C54.0369 18.7315 54.0358 18.7315 54.0358 18.7367V18.7769C54.0358 18.7882 54.0348 18.7996 54.0348 18.8119V18.9006C54.0327 18.912 54.0327 18.9232 54.0327 18.9356C54.0327 18.9459 54.0327 18.9521 54.0316 18.9593V19.0242C54.0305 19.0345 54.0305 19.0469 54.0305 19.0582V19.0974C54.0295 19.1098 54.0295 19.1232 54.0284 19.1366V19.1798C54.0292 19.1901 54.0292 19.1973 54.0292 19.2056C54.028 19.2056 54.028 19.2159 54.028 19.22C54.028 19.2322 54.028 19.2447 54.027 19.2592V19.2695C54.027 19.2807 54.0259 19.291 54.0259 19.3023C54.0259 19.3127 54.0259 19.3179 54.0249 19.3281V19.3414C54.0238 19.3548 54.0238 19.3681 54.0238 19.3806C54.0227 19.392 54.0227 19.4033 54.0217 19.4146V19.4538C54.0206 19.467 54.0206 19.4795 54.0196 19.4929V19.5032C54.0196 19.5135 54.0196 19.525 54.0186 19.5361C54.0186 19.5464 54.0186 19.5526 54.0175 19.5609V19.6247C54.0164 19.635 54.0164 19.6463 54.0164 19.6566C54.0164 19.6668 54.0153 19.675 54.0153 19.6834C54.0153 19.6937 54.0143 19.6937 54.0143 19.6967C54.0143 19.709 54.0133 19.7224 54.0133 19.7348C54.0133 19.7348 54.0133 19.7452 54.012 19.7452C54.012 19.7565 54.012 19.7657 54.011 19.777C54.011 19.7873 54.0099 19.7936 54.0099 19.8037V19.8151C54.0089 19.8285 54.0078 19.8419 54.0078 19.8554V19.8656C54.0078 19.877 54.0067 19.8872 54.0058 19.8976V19.9368C54.0047 19.9501 54.0047 19.9626 54.0037 19.9759V19.9862C54.0026 19.9965 54.0026 20.0069 54.0026 20.017C54.0016 20.0273 54.0016 20.0355 54.0006 20.0448V20.0562C54.0006 20.0685 53.9994 20.0819 53.9985 20.0954V20.1057C53.9985 20.1169 53.9985 20.1263 53.9974 20.1365C53.9964 20.1468 53.9964 20.1561 53.9964 20.1653C53.9964 20.1653 53.9964 20.1756 53.9954 20.1756C53.9954 20.189 53.9943 20.2025 53.9943 20.2147C53.9943 20.2147 53.9943 20.225 53.9932 20.225C53.9932 20.2353 53.9921 20.2458 53.9921 20.255C53.9921 20.2652 53.9911 20.2735 53.9901 20.2838V20.2941C53.9901 20.3076 53.989 20.3199 53.989 20.3334C53.989 20.3334 53.989 20.3437 53.9879 20.3437C53.9879 20.354 53.9868 20.3644 53.9868 20.3747C53.9858 20.3849 53.9848 20.3942 53.9848 20.4035V20.4138C53.9837 20.427 53.9827 20.4405 53.9827 20.454C53.9816 20.454 53.9816 20.4643 53.9816 20.4643C53.9816 20.4746 53.9816 20.484 53.9805 20.4931C53.9805 20.5034 53.9795 20.5128 53.9795 20.524C53.9795 20.524 53.9784 20.524 53.9784 20.5342C53.9772 20.5466 53.9772 20.56 53.9763 20.5724C53.9753 20.5724 53.9753 20.5826 53.9753 20.5837C53.9753 20.5941 53.9742 20.6033 53.9742 20.6126C53.9732 20.6229 53.9732 20.6333 53.9722 20.6425C53.9722 20.6425 53.9722 20.6528 53.9711 20.6528C53.9711 20.6662 53.9711 20.6796 53.9691 20.6929V20.7033C53.968 20.7136 53.968 20.7228 53.967 20.7322V20.7631C53.9659 20.7631 53.9659 20.7631 53.9659 20.7734C53.9659 20.7856 53.9649 20.7991 53.9639 20.8125V20.8228C53.9626 20.8331 53.9618 20.8425 53.9618 20.8517C53.9607 20.862 53.9597 20.8733 53.9597 20.8827C53.9587 20.8827 53.9587 20.893 53.9587 20.893L53.9555 20.9321C53.9555 20.9321 53.9555 20.9424 53.9545 20.9436C53.9524 20.9539 53.9524 20.963 53.9514 20.9712C53.9514 20.9815 53.9514 20.9919 53.9503 21.0033C53.9503 21.0033 53.9503 21.0135 53.9493 21.0135C53.9491 21.0266 53.9484 21.0397 53.9472 21.0527C53.9462 21.0629 53.9462 21.0629 53.9462 21.065C53.9451 21.0753 53.9451 21.0835 53.9441 21.0917L53.941 21.1236V21.1339C53.9399 21.1472 53.9399 21.1596 53.9389 21.1731C53.9389 21.1731 53.9378 21.1834 53.9378 21.1854C53.9378 21.1956 53.9368 21.2038 53.9358 21.2132C53.9358 21.2235 53.9345 21.2339 53.9337 21.245V21.2553L53.9306 21.2955C53.9295 21.2955 53.9295 21.3058 53.9295 21.3069C53.9285 21.3172 53.9285 21.3264 53.9274 21.3337C53.9264 21.345 53.9264 21.3562 53.9264 21.3666C53.9264 21.3666 53.9243 21.3666 53.9243 21.3769C53.9233 21.3892 53.9222 21.4026 53.9222 21.415V21.4284C53.9202 21.4386 53.9202 21.4458 53.9191 21.4551C53.9181 21.4655 53.917 21.4758 53.9162 21.4881V21.4984C53.9141 21.5118 53.9131 21.5252 53.9121 21.5385C53.9121 21.5385 53.911 21.5488 53.91 21.552C53.91 21.5623 53.9089 21.5694 53.9079 21.5778C53.9079 21.588 53.9067 21.6003 53.9058 21.6106L53.9048 21.621C53.9048 21.6343 53.9027 21.6467 53.9018 21.6601C53.9018 21.6601 53.9007 21.6704 53.9007 21.6745C53.9007 21.6847 53.8996 21.691 53.8996 21.6992C53.8975 21.7107 53.8975 21.7219 53.8955 21.7333C53.8945 21.7455 53.8934 21.7591 53.8914 21.7725C53.8914 21.7828 53.8913 21.7828 53.8903 21.7869C53.8893 21.7971 53.8893 21.8034 53.8882 21.8116C53.8862 21.8231 53.8851 21.8354 53.8851 21.8457C53.883 21.8591 53.8822 21.8725 53.8812 21.8849C53.8812 21.8952 53.8799 21.8963 53.8791 21.8993C53.8791 21.9095 53.878 21.9167 53.877 21.924C53.876 21.9355 53.8749 21.9467 53.8749 21.9592C53.8737 21.9719 53.8719 21.9846 53.8697 21.9973C53.8697 22.0076 53.8687 22.0076 53.8676 22.0128C53.8676 22.023 53.8666 22.0292 53.8656 22.0374C53.8635 22.0489 53.8624 22.0612 53.8614 22.0716C53.8593 22.0849 53.8572 22.0982 53.8572 22.1117C53.8572 22.1221 53.8562 22.1221 53.8562 22.1273C53.8541 22.1375 53.8541 22.1427 53.8531 22.1498C53.852 22.1622 53.8502 22.1736 53.8489 22.1869C53.8479 22.1882 53.8479 22.1869 53.8479 22.1869C53.8468 22.1983 53.845 22.2117 53.8439 22.224C53.8439 22.2342 53.8429 22.2355 53.8429 22.2415C53.8417 22.2518 53.8408 22.257 53.8408 22.2641C53.8387 22.2756 53.8378 22.2878 53.8368 22.2992C53.8356 22.3005 53.8356 22.2992 53.8356 22.2992C53.8346 22.3126 53.8326 22.326 53.8315 22.3394C53.8315 22.3497 53.8316 22.3507 53.8305 22.3559C53.8295 22.3662 53.8284 22.3714 53.8274 22.3786C53.8263 22.3909 53.8253 22.4022 53.8234 22.4156C53.8214 22.428 53.8203 22.4413 53.8193 22.4537C53.8182 22.464 53.8182 22.4651 53.8182 22.4703C53.8172 22.4806 53.8162 22.4858 53.8151 22.4929C53.813 22.5063 53.811 22.5187 53.8099 22.529C53.8089 22.5423 53.8068 22.5547 53.8047 22.5681C53.8037 22.5784 53.8026 22.5805 53.8026 22.5855C53.8006 22.5959 53.8005 22.601 53.7985 22.6071C53.7974 22.6195 53.7956 22.632 53.7945 22.6452H53.7935C53.7923 22.6586 53.7914 22.671 53.7893 22.6833C53.7883 22.6937 53.7872 22.6957 53.7863 22.7019C53.7852 22.7122 53.7842 22.7164 53.7832 22.7226C53.7811 22.7359 53.7803 22.7473 53.778 22.7607V22.7619C53.7769 22.7763 53.7759 22.7877 53.774 22.8022C53.773 22.8124 53.772 22.8143 53.7709 22.8206C53.7699 22.8309 53.7688 22.834 53.7678 22.8413C53.7667 22.8537 53.7657 22.866 53.7636 22.8794V22.8807C53.7616 22.8941 53.7607 22.9064 53.7586 22.9199C53.7566 22.9302 53.7566 22.9313 53.7555 22.9385C53.7545 22.9487 53.7534 22.9529 53.7525 22.959C53.7515 22.9724 53.7494 22.9848 53.7483 22.9971V22.9984C53.7454 23.0119 53.7433 23.0241 53.7413 23.0365C53.7413 23.0468 53.74 23.051 53.7392 23.0572C53.7381 23.0675 53.7361 23.0696 53.7361 23.0769C53.734 23.0901 53.7309 23.1035 53.7298 23.116C53.7277 23.1295 53.7257 23.1417 53.7228 23.1552C53.7228 23.1655 53.7207 23.1686 53.7207 23.1748C53.7186 23.1851 53.7176 23.1883 53.7165 23.1955C53.7144 23.2078 53.7135 23.2202 53.7114 23.2336C53.7093 23.2479 53.7073 23.2603 53.7043 23.2728C53.7031 23.2831 53.7031 23.2872 53.7023 23.2935C53.7012 23.2935 53.7002 23.3067 53.6981 23.3129C53.696 23.3253 53.6939 23.3398 53.6919 23.3522V23.3534L53.6856 23.3905C53.6846 23.4008 53.6846 23.4039 53.6827 23.4122C53.6817 23.4225 53.6806 23.4246 53.6796 23.4309C53.6775 23.443 53.6755 23.4555 53.6735 23.4689C53.6735 23.4689 53.6735 23.4701 53.6723 23.4689C53.6711 23.4817 53.6694 23.4944 53.6672 23.507C53.6651 23.5173 53.6641 23.5204 53.6641 23.5276C53.662 23.5379 53.6612 23.54 53.6601 23.5463C53.6581 23.5584 53.6549 23.572 53.6518 23.5854C53.6518 23.5866 53.6518 23.5866 53.6518 23.5854C53.6497 23.5967 53.6477 23.6101 53.6445 23.6214C53.6435 23.6317 53.6425 23.6359 53.6406 23.6441C53.6395 23.6543 53.6385 23.6553 53.6385 23.6625C53.6354 23.6749 53.6333 23.6862 53.6302 23.7006V23.702C53.6274 23.7149 53.6251 23.728 53.623 23.7411C53.6219 23.7514 53.6199 23.7556 53.6188 23.7618C53.6178 23.7721 53.6168 23.7732 53.6159 23.7792C53.6128 23.7926 53.6107 23.806 53.6076 23.8185C53.6055 23.8309 53.6035 23.8432 53.6003 23.8545C53.5983 23.8648 53.5982 23.87 53.5964 23.8772C53.5964 23.8874 53.5953 23.8885 53.5934 23.8946C53.5913 23.907 53.5892 23.9194 53.5861 23.9316C53.584 23.944 53.5819 23.9564 53.579 23.9688C53.578 23.979 53.5759 23.9832 53.5748 23.9914C53.5728 23.9914 53.5717 24.0017 53.5707 24.0078L53.5613 24.047C53.5603 24.0482 53.5603 24.047 53.5603 24.047C53.5582 24.0574 53.5551 24.0695 53.553 24.082C53.5509 24.0923 53.5491 24.0975 53.547 24.1047C53.5458 24.115 53.5449 24.115 53.5428 24.1211C53.5418 24.1345 53.5376 24.1459 53.5356 24.1592H53.5336C53.5315 24.1715 53.5294 24.184 53.5265 24.1953C53.5244 24.2056 53.5223 24.2097 53.5213 24.2189C53.5202 24.2189 53.5182 24.2292 53.5171 24.2344C53.514 24.2478 53.5119 24.2602 53.5098 24.2737H53.5088C53.5057 24.2839 53.5036 24.2973 53.5005 24.3087C53.4984 24.319 53.4965 24.3252 53.4942 24.3323C53.4942 24.3426 53.4932 24.3426 53.4922 24.3478C53.4882 24.3612 53.4859 24.3736 53.482 24.3872C53.482 24.3882 53.482 24.3872 53.4808 24.3872L53.4747 24.4221C53.4726 24.4324 53.4695 24.4376 53.4675 24.4468L53.4644 24.4623C53.4615 24.4747 53.4573 24.4872 53.4542 24.5006C53.4542 24.5006 53.4521 24.5006 53.4511 24.5108C53.45 24.5211 53.4459 24.5335 53.4438 24.5448C53.4407 24.555 53.4386 24.5592 53.4355 24.5685C53.4355 24.5685 53.4344 24.5788 53.4326 24.5829C53.4294 24.5963 53.4274 24.6097 53.4233 24.6231C53.4233 24.6242 53.4222 24.6231 53.4212 24.6231C53.4183 24.6355 53.4152 24.6468 53.4131 24.657C53.411 24.6673 53.4079 24.6736 53.4058 24.6828C53.4048 24.6828 53.4038 24.6931 53.4029 24.6973C53.3998 24.7105 53.3957 24.723 53.3925 24.7354H53.3904C53.3874 24.7467 53.3853 24.759 53.3822 24.7704C53.3793 24.7807 53.377 24.7879 53.3751 24.7951C53.3731 24.8053 53.372 24.8053 53.371 24.8095C53.3679 24.8219 53.3647 24.8353 53.3616 24.8487H53.3595C53.3566 24.861 53.3546 24.8713 53.3504 24.8827C53.3493 24.8931 53.3452 24.8993 53.3432 24.9086C53.3411 24.9086 53.3403 24.9188 53.3393 24.9219C53.3361 24.9353 53.3309 24.9477 53.3268 24.9611C53.3257 24.9611 53.3257 24.9611 53.3257 24.9713C53.3226 24.9817 53.3187 24.992 53.3143 25.0034C53.3122 25.0137 53.3093 25.0199 53.3072 25.03C53.301 25.0497 53.2959 25.0691 53.2888 25.0878C53.2826 25.1085 53.2774 25.1279 53.2711 25.1475C53.2651 25.1672 53.259 25.1877 53.2538 25.2063C53.2467 25.2258 53.2415 25.2454 53.2343 25.266C53.2291 25.2845 53.223 25.3052 53.2157 25.3246C53.2095 25.3453 53.2023 25.364 53.195 25.3834C53.189 25.4031 53.1806 25.4237 53.1745 25.4422C53.1673 25.4629 53.1601 25.4825 53.1538 25.502C53.1466 25.5205 53.1394 25.5421 53.1323 25.5608C53.125 25.5804 53.1188 25.5999 53.1115 25.6205C53.1044 25.6389 53.0982 25.6596 53.0899 25.6793L53.0715 25.7329C53.0705 25.7329 53.0705 25.7329 53.0695 25.7432L53.0446 25.802C53.0374 25.8225 53.0281 25.8411 53.021 25.8616C53.0121 25.8806 53.0038 25.8998 52.9962 25.9193C52.9883 25.9395 52.9798 25.9594 52.9705 25.979C52.9633 25.9987 52.956 26.0192 52.9468 26.0378C52.9386 26.0585 52.9313 26.078 52.9211 26.0976C52.9128 26.1171 52.9024 26.1367 52.8943 26.1564C52.885 26.177 52.8759 26.1955 52.8666 26.216C52.8573 26.2345 52.8491 26.2552 52.8388 26.2748C52.8296 26.2944 52.8202 26.314 52.812 26.3335C52.8028 26.3532 52.7935 26.3737 52.7844 26.3923C52.774 26.413 52.7646 26.4314 52.7554 26.452C52.744 26.4717 52.7347 26.4912 52.7236 26.5108C52.7132 26.5305 52.7029 26.55 52.6928 26.5696C52.6824 26.5891 52.672 26.6098 52.6618 26.6284C52.6526 26.6479 52.6421 26.6676 52.6317 26.6882C52.6203 26.7066 52.6101 26.7273 52.5998 26.7468C52.5885 26.7664 52.5772 26.785 52.567 26.8056C52.5545 26.8252 52.5433 26.8448 52.5318 26.8644C52.5205 26.8851 52.5072 26.9036 52.4968 26.9232C52.4843 26.9439 52.4731 26.9634 52.4617 26.9829L52.4277 27.0417C52.4154 27.0613 52.403 27.0819 52.3907 27.1005C52.3772 27.1211 52.3639 27.1396 52.3525 27.1592C52.3392 27.1799 52.3268 27.1994 52.3134 27.2189C52.3 27.2385 52.2877 27.2591 52.2743 27.2786C52.263 27.2972 52.2485 27.3179 52.2362 27.3374C52.2227 27.357 52.2083 27.3766 52.1949 27.3962C52.1827 27.4158 52.1672 27.4354 52.1527 27.455C52.1382 27.4745 52.124 27.4942 52.1095 27.5147L52.0663 27.5735C51.3455 28.5419 50.4271 29.2414 49.3882 29.4958L47.609 29.2814C48.7982 29.125 49.7496 28.4182 50.4613 27.5734C50.4767 27.5537 50.4921 27.5341 50.5086 27.5146C50.525 27.4939 50.5415 27.4744 50.558 27.4549C50.5724 27.4352 50.5888 27.4157 50.6043 27.3961C50.6199 27.3764 50.6352 27.3569 50.6495 27.3373C50.6651 27.3178 50.6804 27.2971 50.6949 27.2785C50.7104 27.258 50.7246 27.2383 50.7391 27.2187C50.7535 27.2003 50.7679 27.1796 50.7824 27.1591C50.7958 27.1406 50.8102 27.1209 50.8235 27.1004C50.838 27.0818 50.8513 27.0611 50.8646 27.0416C50.8791 27.0219 50.8915 27.0023 50.9049 26.9828C50.9182 26.9631 50.9327 26.9437 50.945 26.9231C50.9584 26.9034 50.9707 26.885 50.9841 26.8643C50.9965 26.8446 51.0089 26.8251 51.0222 26.8055C51.0335 26.7848 51.047 26.7663 51.0593 26.7467C51.0716 26.7272 51.084 26.7065 51.0964 26.688C51.1087 26.6674 51.12 26.6478 51.1314 26.6283C51.1438 26.6096 51.1551 26.589 51.1665 26.5695C51.1779 26.5498 51.189 26.5303 51.2005 26.5107C51.2129 26.491 51.2242 26.4715 51.2344 26.4519C51.2458 26.4311 51.2571 26.4127 51.2675 26.3922C51.2798 26.3726 51.29 26.3531 51.3014 26.3334C51.3118 26.3138 51.323 26.2943 51.3324 26.2747C51.3436 26.255 51.3539 26.2345 51.3643 26.2159C51.3746 26.1952 51.3849 26.1757 51.3951 26.1562C51.4054 26.1366 51.4146 26.116 51.424 26.0974C51.4343 26.0778 51.4445 26.0582 51.4538 26.0377C51.4631 26.0192 51.4734 25.9985 51.4827 25.9789C51.492 25.9594 51.5022 25.9397 51.5104 25.9192C51.5197 25.9007 51.5291 25.8811 51.5394 25.8615C51.5475 25.8408 51.5567 25.8223 51.566 25.8018C51.5743 25.7822 51.5825 25.7626 51.5917 25.743C51.5999 25.7224 51.6091 25.7039 51.6185 25.6842C51.6267 25.6636 51.635 25.644 51.6432 25.6254C51.6514 25.6048 51.6586 25.5852 51.6669 25.5658C51.6751 25.5462 51.6842 25.5255 51.6915 25.507C51.6997 25.4864 51.707 25.4677 51.7142 25.4472C51.7214 25.4287 51.7297 25.4081 51.7368 25.3885C51.745 25.3689 51.7523 25.3493 51.7605 25.3297C51.7677 25.3101 51.7749 25.2896 51.7812 25.2709C51.7893 25.2502 51.7955 25.2308 51.8018 25.2112C51.81 25.1916 51.8162 25.1721 51.8225 25.1524C51.8286 25.1318 51.8358 25.1133 51.842 25.0928C51.8483 25.0732 51.8564 25.0546 51.8616 25.0351C51.8637 25.0248 51.8667 25.0165 51.8698 25.0083C51.8728 24.997 51.876 24.9857 51.8791 24.9764C51.8801 24.9764 51.8811 24.9661 51.8811 24.9661C51.8843 24.9528 51.8895 24.9404 51.8926 24.927C51.8936 24.927 51.8956 24.9166 51.8966 24.9136C51.8997 24.9034 51.9018 24.8961 51.9037 24.8879C51.9068 24.8765 51.9099 24.8662 51.9131 24.8539C51.9131 24.8526 51.9141 24.8539 51.9151 24.8539C51.9193 24.8404 51.9223 24.8271 51.9254 24.8147C51.9265 24.8045 51.9286 24.8045 51.9296 24.8003C51.9306 24.7899 51.9337 24.7868 51.9348 24.7795H51.9358C51.9389 24.7683 51.9421 24.7559 51.9461 24.7444C51.9461 24.7433 51.9472 24.7444 51.9472 24.7444C51.9503 24.7323 51.9544 24.7187 51.9565 24.7064C51.9586 24.7064 51.9606 24.696 51.9616 24.6921C51.9637 24.6817 51.9668 24.6744 51.9687 24.6663C51.9708 24.656 51.9739 24.6447 51.9781 24.6324C51.9781 24.631 51.9791 24.6324 51.9802 24.6324C51.9832 24.6189 51.9873 24.6055 51.9894 24.5922C51.9915 24.5922 51.9936 24.5818 51.9946 24.5776C51.9967 24.5674 51.9997 24.5613 52.0007 24.554C52.0039 24.5427 52.008 24.5304 52.0111 24.5201C52.0111 24.5201 52.0122 24.5201 52.0132 24.5098C52.0153 24.4964 52.0195 24.4841 52.0236 24.4717C52.0247 24.4613 52.0266 24.4602 52.0277 24.4561C52.0298 24.4458 52.0318 24.4395 52.0339 24.4314C52.036 24.4199 52.0391 24.4087 52.042 24.3963C52.042 24.3951 52.0431 24.3963 52.0431 24.3963C52.0472 24.383 52.0493 24.3706 52.0524 24.3572C52.0535 24.3572 52.0545 24.3468 52.0565 24.3416C52.0586 24.3313 52.0607 24.3261 52.0627 24.318C52.0648 24.3065 52.0679 24.2942 52.0709 24.2829C52.0709 24.2816 52.072 24.2829 52.072 24.2829C52.0751 24.2696 52.0782 24.2572 52.0814 24.2437C52.0824 24.2333 52.0834 24.2323 52.0854 24.2281C52.0875 24.2178 52.0896 24.2116 52.0916 24.2045C52.0937 24.1931 52.0969 24.1808 52.0987 24.1684C52.0998 24.1673 52.0998 24.1684 52.1008 24.1684C52.1038 24.1551 52.107 24.1437 52.109 24.1303C52.1102 24.12 52.1121 24.12 52.1142 24.1138C52.1153 24.1036 52.1172 24.0984 52.1183 24.0912C52.1214 24.0788 52.1245 24.0664 52.1276 24.0562C52.1307 24.0427 52.1327 24.0294 52.1359 24.0169C52.1369 24.0066 52.1388 24.0045 52.14 24.0003C52.1411 23.9901 52.1421 23.9849 52.144 23.9777C52.146 23.9654 52.1492 23.953 52.1522 23.9407C52.1553 23.9282 52.1584 23.9159 52.1604 23.9035C52.1615 23.8933 52.1635 23.8923 52.1635 23.8862C52.1656 23.8759 52.1676 23.8707 52.1697 23.8635C52.1717 23.852 52.1738 23.8397 52.1767 23.8275C52.1799 23.8151 52.183 23.8018 52.1851 23.7883C52.1861 23.7779 52.1871 23.776 52.1881 23.7708C52.1901 23.7604 52.1922 23.7563 52.1922 23.75C52.1952 23.7368 52.1984 23.7254 52.2015 23.7109V23.7097C52.2036 23.6963 52.2066 23.6839 52.2087 23.6715C52.2097 23.6613 52.2107 23.6593 52.2116 23.653C52.2128 23.6427 52.2147 23.6386 52.2157 23.6304C52.2188 23.6191 52.2208 23.6057 52.2229 23.5943C52.2229 23.5931 52.2229 23.5931 52.2229 23.5943C52.225 23.5809 52.227 23.5677 52.2301 23.5552C52.2311 23.5449 52.2322 23.5428 52.2331 23.5367C52.2341 23.5265 52.2352 23.5223 52.2362 23.5161C52.2391 23.5036 52.2412 23.4903 52.2433 23.4779C52.2463 23.4646 52.2484 23.4532 52.2505 23.4398C52.2516 23.4295 52.2526 23.4274 52.2546 23.4212C52.2557 23.411 52.2567 23.4068 52.2578 23.3996C52.2608 23.3872 52.2629 23.3748 52.2649 23.3626C52.2661 23.3626 52.2661 23.3612 52.2661 23.3612C52.2671 23.3468 52.2701 23.3345 52.2712 23.322C52.2723 23.3116 52.2743 23.3087 52.2753 23.3024C52.2764 23.2921 52.2774 23.289 52.2783 23.2817C52.2804 23.2694 52.2825 23.2571 52.2846 23.2426C52.2877 23.2292 52.2877 23.2169 52.2908 23.2045C52.2908 23.1942 52.2929 23.1911 52.2937 23.1838C52.295 23.1735 52.2958 23.1704 52.2969 23.1641C52.2989 23.1509 52.2999 23.1384 52.3021 23.125C52.3041 23.1128 52.3061 23.0993 52.3082 23.0859C52.3103 23.0756 52.3113 23.0724 52.3124 23.0662C52.3134 23.0559 52.3134 23.054 52.3144 23.0457L52.3207 23.0075L52.3217 23.0062L52.328 22.9682C52.329 22.9577 52.33 22.9546 52.331 22.9473C52.331 22.9371 52.3321 22.9351 52.3331 22.9288L52.3392 22.8897V22.8883C52.3413 22.8751 52.3423 22.8617 52.3444 22.8502C52.3444 22.8399 52.3454 22.836 52.3465 22.8297C52.3475 22.8193 52.3486 22.8162 52.3496 22.811C52.3506 22.7966 52.3525 22.7853 52.3535 22.7709V22.7696C52.3556 22.7562 52.3577 22.7449 52.3598 22.7315C52.3598 22.7212 52.3619 22.7191 52.3619 22.7108C52.3631 22.7005 52.3639 22.6994 52.3639 22.6924C52.365 22.6799 52.367 22.6676 52.369 22.6542L52.3753 22.6161C52.3753 22.6058 52.3774 22.6027 52.3774 22.5945C52.3785 22.5945 52.3785 22.5831 52.3794 22.5771C52.3815 22.5636 52.3835 22.5513 52.3845 22.5378H52.3856C52.3867 22.5274 52.3887 22.5151 52.3908 22.5017C52.3918 22.4915 52.3929 22.4873 52.3929 22.4791C52.394 22.4791 52.3949 22.4688 52.3949 22.4626C52.396 22.4502 52.397 22.4369 52.399 22.4245C52.4 22.4111 52.4021 22.3997 52.4042 22.3874C52.4042 22.377 52.4052 22.3718 52.4063 22.3647C52.4073 22.3647 52.4073 22.3544 52.4073 22.3482C52.4094 22.3349 52.4104 22.3215 52.4115 22.308H52.4125C52.4136 22.2966 52.4154 22.2842 52.4167 22.273C52.4177 22.2625 52.4188 22.2584 52.4188 22.2503C52.4188 22.24 52.4198 22.2389 52.4208 22.2329C52.4219 22.2204 52.4229 22.2071 52.425 22.1957C52.427 22.1835 52.4279 22.1711 52.4279 22.1587C52.43 22.1483 52.43 22.1442 52.431 22.1359C52.4321 22.1257 52.4321 22.1257 52.4331 22.1205C52.4342 22.1072 52.4361 22.0937 52.4383 22.0802C52.4394 22.07 52.4404 22.0576 52.4413 22.0463C52.4424 22.0359 52.4424 22.0297 52.4434 22.0214C52.4434 22.0112 52.4434 22.0112 52.4445 22.006C52.4456 21.9927 52.4476 21.9802 52.4476 21.9678C52.4486 21.9667 52.4486 21.9678 52.4486 21.9678L52.4517 21.9329C52.4528 21.9225 52.4538 21.9173 52.4548 21.908C52.4548 21.908 52.4558 21.8978 52.4558 21.8937C52.4569 21.8813 52.4589 21.8679 52.46 21.8544C52.461 21.8442 52.461 21.8318 52.463 21.8205C52.463 21.8102 52.464 21.8049 52.465 21.7956C52.465 21.7854 52.4661 21.7854 52.4671 21.7813C52.4671 21.7679 52.4692 21.7545 52.47 21.742C52.4713 21.7408 52.4713 21.742 52.4713 21.742C52.4713 21.7307 52.4723 21.7194 52.4734 21.7081C52.4744 21.6978 52.4744 21.6915 52.4763 21.6834V21.6688C52.4784 21.6555 52.4784 21.6421 52.4804 21.6298V21.6194L52.4835 21.5864C52.4835 21.5762 52.4846 21.5701 52.4846 21.5607C52.4846 21.5504 52.4846 21.5504 52.4856 21.5473C52.4856 21.5338 52.4887 21.5205 52.4887 21.5071V21.4968L52.4918 21.4639C52.4918 21.4536 52.4928 21.4474 52.4939 21.4371C52.4939 21.4371 52.4939 21.4269 52.4949 21.4238C52.4959 21.4115 52.497 21.398 52.497 21.3857V21.3753C52.4981 21.3649 52.4991 21.3537 52.5001 21.3424C52.5011 21.3322 52.5011 21.3259 52.5022 21.3156L52.5032 21.3043L52.5063 21.2641V21.2538C52.5063 21.2423 52.5084 21.2322 52.5084 21.2218C52.5095 21.2114 52.5095 21.2033 52.5105 21.194V21.1818C52.5126 21.1695 52.5126 21.156 52.5136 21.1425C52.5136 21.1425 52.5147 21.1425 52.5147 21.1323C52.5147 21.1219 52.5157 21.1115 52.5167 21.1004C52.5167 21.0902 52.5167 21.0829 52.5179 21.0736C52.5189 21.0736 52.5189 21.0633 52.5189 21.0613C52.52 21.0489 52.521 21.0355 52.521 21.022L52.522 21.0116C52.5231 21.0004 52.5231 20.9901 52.5241 20.9799V20.952C52.5254 20.952 52.5254 20.9417 52.5254 20.9406L52.5283 20.9015V20.8912C52.5293 20.881 52.5304 20.8706 52.5304 20.8604C52.5304 20.85 52.5324 20.8418 52.5324 20.8316V20.8212L52.5355 20.7821V20.7717C52.5355 20.7603 52.5355 20.7511 52.5365 20.7407C52.5375 20.7304 52.5375 20.7223 52.5375 20.712C52.5387 20.712 52.5387 20.7016 52.5387 20.7016C52.5397 20.6883 52.5397 20.6749 52.5408 20.6614L52.5418 20.651C52.5418 20.6408 52.5418 20.6304 52.5431 20.6211C52.5441 20.6109 52.5441 20.6026 52.5441 20.5923L52.5451 20.581C52.5462 20.5686 52.5462 20.5553 52.5462 20.5429C52.5472 20.5429 52.5472 20.5326 52.5472 20.5326C52.5483 20.5211 52.5483 20.5119 52.5483 20.5017C52.5493 20.4913 52.5503 20.4831 52.5503 20.4728V20.4624C52.5514 20.4492 52.5514 20.4358 52.5514 20.4223L52.5524 20.412C52.5524 20.4018 52.5545 20.3924 52.5545 20.3831C52.5545 20.3728 52.5545 20.3625 52.5555 20.3521V20.3419C52.5555 20.3284 52.5576 20.3161 52.5576 20.3027V20.2925C52.5587 20.2821 52.5587 20.2727 52.5597 20.2635C52.5597 20.2532 52.5597 20.2439 52.5607 20.2337V20.2233C52.562 20.211 52.562 20.1976 52.562 20.1842C52.562 20.1842 52.562 20.1738 52.563 20.1738C52.563 20.1634 52.5641 20.1543 52.5641 20.145C52.5641 20.1346 52.5641 20.1254 52.5652 20.1141V20.1038C52.5663 20.0906 52.5662 20.0771 52.5662 20.0647C52.5673 20.0647 52.5673 20.0544 52.5673 20.0533C52.5683 20.043 52.5683 20.0347 52.5683 20.0255V19.9945C52.5683 19.9945 52.5694 19.9945 52.5694 19.9842C52.5694 19.9709 52.5694 19.9585 52.5706 19.9451V19.9336C52.5717 19.9233 52.5717 19.9142 52.5717 19.906C52.5727 19.8957 52.5727 19.8853 52.5737 19.8739V19.8637C52.5737 19.8504 52.5748 19.837 52.5748 19.8234L52.5758 19.8122V19.7853V19.7535V19.7432C52.5769 19.7308 52.5769 19.7175 52.5769 19.7051V19.6917C52.5779 19.6814 52.5779 19.6741 52.5779 19.6649C52.5789 19.6545 52.5789 19.6433 52.5789 19.633V19.6228C52.5789 19.6093 52.58 19.5959 52.58 19.5825C52.58 19.5825 52.5812 19.5723 52.5812 19.5693V19.5444C52.5812 19.5331 52.5823 19.5218 52.5823 19.5115V19.5012C52.5833 19.4878 52.5833 19.4755 52.5833 19.4621V19.4487C52.5844 19.4384 52.5844 19.4313 52.5844 19.423C52.5853 19.4116 52.5857 19.4003 52.5855 19.3889C52.5855 19.3767 52.5865 19.3632 52.5876 19.3498V19.3364V19.3107V19.2778V19.2674C52.5886 19.253 52.5886 19.2406 52.5897 19.2284V19.2138V19.1881V19.1552C52.5897 19.1552 52.5907 19.1552 52.5907 19.1449V19.1057V19.0901V19.0665V19.0325L52.5919 19.0223V18.982C52.5919 18.982 52.593 18.9718 52.593 18.9677V18.9439V18.909V18.8987C52.594 18.8863 52.594 18.8719 52.594 18.8606C52.594 18.8502 52.594 18.8502 52.5951 18.8451V18.8202V18.7852V18.745V18.7295C52.5951 18.7192 52.5951 18.714 52.5961 18.7059V18.6707V18.6316C52.5961 18.6213 52.5971 18.6213 52.5971 18.6152V18.5926V18.5566V18.5173V18.5C52.5971 18.4897 52.5982 18.4855 52.5982 18.4772V18.4422C52.5982 18.4288 52.5982 18.4153 52.5992 18.4031V18.3854V18.3638V18.3268C52.5992 18.3256 52.5992 18.3256 52.5992 18.3268V18.2877V18.2702V18.2476V18.2116V18.1713V18.1539V18.1332V18.0951V18.057V18.0373C52.5992 18.0271 52.6003 18.0239 52.6003 18.0157V17.9787V17.9376V17.9189V17.9005V17.883V2.96733L49.9076 4.41079L51.3285 4.72925V16.7244C51.3285 16.7244 51.3275 16.7346 51.3275 16.7398V16.7985V16.9139C51.3275 16.9152 51.3275 16.9152 51.3275 16.9139V17.2647C51.3275 17.2782 51.3263 17.2905 51.3263 17.3039V17.4608C51.3253 17.4732 51.3253 17.4865 51.3253 17.4999V17.6187C51.3243 17.6311 51.3243 17.6445 51.3243 17.6579V17.795C51.3232 17.8053 51.3232 17.8074 51.3232 17.8145V17.8942C51.3222 17.8942 51.3222 17.9075 51.3222 17.9127V17.9724C51.3222 17.9857 51.321 17.9972 51.321 18.0095V18.0506C51.321 18.063 51.32 18.0753 51.32 18.0888V18.165C51.319 18.1773 51.319 18.1918 51.319 18.2051V18.2412C51.3179 18.2514 51.3179 18.2566 51.3179 18.2638V18.3204C51.3179 18.3217 51.3179 18.3217 51.3179 18.3204C51.3179 18.3319 51.3179 18.3441 51.3168 18.3575V18.3965C51.3157 18.4089 51.3157 18.4223 51.3157 18.4359C51.3157 18.4471 51.3147 18.4584 51.3147 18.4708V18.511C51.3136 18.5234 51.3136 18.5368 51.3136 18.5501C51.3136 18.5615 51.3124 18.5749 51.3124 18.5862V18.6088C51.3124 18.6191 51.3124 18.6202 51.3114 18.6253V18.6644C51.3114 18.6747 51.3103 18.687 51.3103 18.6995V18.7789C51.3093 18.7903 51.3093 18.8015 51.3093 18.8139V18.8387C51.3093 18.849 51.3093 18.849 51.3081 18.8542V18.9026C51.3071 18.9141 51.3071 18.9252 51.3071 18.9377C51.3071 18.948 51.3061 18.9532 51.3061 18.9614V18.9758C51.305 18.9892 51.305 19.0016 51.305 19.016V19.0262C51.304 19.0366 51.304 19.0489 51.304 19.0603C51.3028 19.0705 51.3028 19.0757 51.3028 19.0839V19.0994C51.3018 19.1118 51.3018 19.1251 51.3018 19.1386V19.1489C51.3008 19.1592 51.3007 19.1706 51.3007 19.1818C51.3007 19.1921 51.2997 19.1993 51.2997 19.2076V19.2219C51.2986 19.2343 51.2986 19.2468 51.2986 19.2612V19.2715C51.2975 19.2828 51.2975 19.2931 51.2975 19.3044C51.2975 19.3147 51.2965 19.321 51.2965 19.3301V19.3436C51.2954 19.357 51.2954 19.3704 51.2954 19.3827V19.4168C51.2942 19.4271 51.2942 19.4342 51.2942 19.4425V19.456C51.2932 19.4694 51.2932 19.4818 51.2921 19.4951V19.5055C51.2921 19.5158 51.2911 19.5271 51.2911 19.5385C51.2911 19.5487 51.29 19.5549 51.29 19.5632C51.29 19.5735 51.29 19.5735 51.2889 19.5766C51.2889 19.59 51.2889 19.6033 51.2879 19.6167V19.6272C51.2879 19.6375 51.2868 19.6488 51.2868 19.659C51.2858 19.6693 51.2858 19.6775 51.2858 19.6857C51.2858 19.6857 51.2858 19.6959 51.2847 19.6991C51.2847 19.7115 51.2847 19.7249 51.2836 19.7373V19.7795C51.2825 19.7898 51.2825 19.7961 51.2825 19.8062L51.2815 19.8176C51.2815 19.8309 51.2805 19.8442 51.2805 19.8578V19.8681C51.2793 19.8794 51.2793 19.8897 51.2793 19.8999C51.2783 19.9102 51.2783 19.9186 51.2783 19.9278L51.2772 19.9392C51.2772 19.9525 51.2762 19.9649 51.2762 19.9784C51.2762 19.9784 51.2762 19.9887 51.275 19.9887C51.275 19.999 51.2739 20.0094 51.2739 20.0196C51.2739 20.0299 51.2729 20.0371 51.2729 20.0475C51.2718 20.0475 51.2718 20.0578 51.2718 20.0588C51.2718 20.071 51.2707 20.0845 51.2698 20.098V20.1083C51.2698 20.1197 51.2687 20.1289 51.2687 20.1392C51.2687 20.1495 51.2687 20.1589 51.2666 20.1681V20.1783C51.2656 20.1917 51.2656 20.2052 51.2646 20.2176V20.2277C51.2646 20.2382 51.2646 20.2485 51.2635 20.2577C51.2635 20.268 51.2624 20.2763 51.2624 20.2865C51.2624 20.2865 51.2624 20.2969 51.2613 20.2969C51.2613 20.3103 51.2603 20.3227 51.2603 20.3362C51.2592 20.3362 51.2593 20.3464 51.2593 20.3464C51.2593 20.3567 51.2581 20.367 51.2581 20.3774C51.2571 20.3877 51.2571 20.3969 51.256 20.4061V20.4165C51.255 20.4299 51.255 20.4432 51.2539 20.4567V20.467C51.2539 20.4773 51.2539 20.4867 51.2529 20.4959C51.2529 20.5061 51.2519 20.5155 51.2508 20.5268V20.5372C51.2497 20.5495 51.2487 20.5629 51.2487 20.5752C51.2477 20.5752 51.2477 20.5855 51.2477 20.5866C51.2467 20.597 51.2467 20.6063 51.2456 20.6154C51.2456 20.6257 51.2445 20.6351 51.2445 20.6454C51.2434 20.6454 51.2434 20.6557 51.2434 20.6557C51.2424 20.669 51.2424 20.6824 51.2424 20.6959L51.2414 20.7062C51.2414 20.7164 51.2403 20.7257 51.2393 20.735C51.2393 20.7453 51.238 20.7546 51.238 20.766C51.237 20.766 51.237 20.766 51.237 20.7762C51.236 20.7896 51.236 20.802 51.2349 20.8154L51.2339 20.8256C51.2339 20.8359 51.2327 20.8453 51.2318 20.8546C51.2318 20.8649 51.2307 20.8763 51.2307 20.8855L51.2297 20.8958C51.2287 20.9082 51.2287 20.9216 51.2287 20.9349L51.2276 20.9464C51.2276 20.9567 51.2265 20.9659 51.2265 20.9741C51.2254 20.9846 51.2244 20.9948 51.2235 21.0061V21.0164L51.2203 21.0555C51.2203 21.0658 51.2193 21.0658 51.2193 21.0679C51.2183 21.0782 51.2183 21.0863 51.2172 21.0946C51.2172 21.106 51.2162 21.1162 51.2162 21.1266C51.215 21.1266 51.215 21.1266 51.215 21.1368L51.212 21.176C51.212 21.176 51.212 21.1862 51.211 21.1883C51.211 21.1986 51.2098 21.2069 51.2089 21.2161C51.2089 21.2263 51.2079 21.2367 51.2068 21.248V21.2583C51.2058 21.2716 51.2047 21.285 51.2039 21.2984C51.2029 21.2984 51.2029 21.3087 51.2029 21.3098C51.2016 21.32 51.2008 21.3293 51.2008 21.3365C51.1998 21.3479 51.1987 21.3592 51.1987 21.3694V21.3797L51.1956 21.4178C51.1956 21.4178 51.1946 21.4281 51.1946 21.4312C51.1935 21.4415 51.1935 21.4499 51.1925 21.4581C51.1914 21.4683 51.1904 21.4787 51.1894 21.491V21.5013C51.1883 21.5146 51.1862 21.528 51.1852 21.5414V21.5549C51.1842 21.5651 51.1831 21.5722 51.1831 21.5806L51.18 21.6135C51.179 21.6135 51.179 21.6135 51.179 21.6238C51.1779 21.6372 51.1769 21.6496 51.176 21.6631C51.175 21.6631 51.175 21.6733 51.175 21.6775C51.175 21.6878 51.1739 21.6939 51.1729 21.7022L51.1699 21.7362H51.1689C51.1677 21.7485 51.1668 21.762 51.1657 21.7755C51.1647 21.7857 51.1647 21.7857 51.1647 21.7899C51.1647 21.8002 51.1637 21.8063 51.1626 21.8146L51.1595 21.8486C51.1574 21.862 51.1566 21.8754 51.1555 21.8877C51.1555 21.8981 51.1543 21.8991 51.1543 21.9021C51.1533 21.9125 51.1533 21.9197 51.1522 21.9269C51.1512 21.9384 51.1501 21.9496 51.1493 21.962H51.1483C51.147 21.9744 51.1451 21.9868 51.1441 22.0001C51.1431 22.0104 51.1431 22.0104 51.142 22.0156L51.1389 22.0404C51.1389 22.0518 51.1368 22.0641 51.1358 22.0744C51.1347 22.0878 51.1327 22.1012 51.1316 22.1146C51.1306 22.125 51.1306 22.125 51.1295 22.1301C51.1285 22.1405 51.1275 22.1456 51.1275 22.1528C51.1254 22.165 51.1243 22.1775 51.1233 22.1898C51.1223 22.1911 51.1223 22.1898 51.1223 22.1898C51.1212 22.2013 51.1202 22.2147 51.1194 22.2269C51.1182 22.2373 51.1182 22.2383 51.1173 22.2444C51.1162 22.2547 51.1152 22.2599 51.1143 22.267L51.1111 22.3021C51.1101 22.3033 51.1101 22.3021 51.1101 22.3021C51.1101 22.3154 51.108 22.3288 51.1072 22.3423C51.1059 22.3526 51.1059 22.3536 51.1051 22.3588C51.1041 22.369 51.103 22.3742 51.102 22.3814C51.0999 22.3938 51.0989 22.4051 51.0978 22.4184C51.0957 22.4308 51.0939 22.4443 51.0918 22.4566C51.0918 22.4668 51.0906 22.4668 51.0897 22.4731C51.0887 22.4834 51.0887 22.4886 51.0876 22.4958C51.0855 22.5092 51.0846 22.5215 51.0824 22.5318C51.0803 22.5462 51.0784 22.5586 51.0773 22.572C51.0763 22.5823 51.0753 22.5843 51.0742 22.5894C51.0732 22.5997 51.0721 22.6049 51.0713 22.611C51.0703 22.6234 51.0692 22.6357 51.0671 22.6492C51.0651 22.6624 51.064 22.6749 51.0619 22.6873C51.0609 22.6976 51.0599 22.6996 51.0599 22.7057C51.0588 22.716 51.0578 22.7201 51.0567 22.7264C51.0557 22.7388 51.0536 22.7522 51.0526 22.7645L51.0515 22.7658C51.0495 22.7803 51.0476 22.7915 51.0465 22.806C51.0454 22.8163 51.0445 22.8184 51.0434 22.8246C51.0424 22.8349 51.0413 22.8379 51.0404 22.8451L51.0342 22.8833V22.8846C51.0321 22.898 51.029 22.9104 51.0279 22.9239C51.0269 22.9341 51.0258 22.9352 51.025 22.9423C51.025 22.9526 51.0238 22.9568 51.0229 22.9631C51.0209 22.9765 51.0188 22.9888 51.0167 23.0011V23.0025C51.0125 23.0157 51.0105 23.0282 51.0084 23.0406C51.0063 23.0509 51.0063 23.0551 51.0055 23.0611C51.0044 23.0715 51.0034 23.0745 51.0023 23.0808C51.0003 23.0931 50.9983 23.1076 50.9962 23.1199C50.9941 23.1333 50.992 23.1457 50.991 23.1591C50.99 23.1695 50.9881 23.1724 50.9868 23.1787C50.9858 23.189 50.9848 23.1921 50.9839 23.1994C50.9808 23.2128 50.9798 23.2242 50.9767 23.2375C50.9746 23.252 50.9715 23.2643 50.9696 23.2767C50.9675 23.2869 50.9666 23.2911 50.9654 23.2973C50.9644 23.3076 50.9624 23.3096 50.9614 23.317C50.9603 23.3293 50.9572 23.3418 50.9551 23.3561V23.3575C50.9523 23.3697 50.9499 23.3821 50.948 23.3945C50.947 23.4048 50.946 23.4079 50.9439 23.4162C50.9439 23.4266 50.9418 23.4276 50.9408 23.4347C50.9387 23.4471 50.9368 23.4595 50.9337 23.4729C50.9316 23.4852 50.9286 23.4986 50.9276 23.511C50.9255 23.5213 50.9244 23.5244 50.9234 23.5317C50.9224 23.5419 50.9213 23.544 50.9192 23.5501C50.9172 23.5625 50.9153 23.5759 50.9122 23.5892C50.9122 23.5906 50.9109 23.5906 50.9109 23.5892C50.9088 23.6007 50.9057 23.6141 50.9028 23.6254C50.9007 23.6356 50.8997 23.6397 50.8986 23.6479C50.8976 23.6582 50.8955 23.6594 50.8945 23.6666C50.8916 23.6788 50.8882 23.6902 50.8853 23.7047V23.7058C50.8832 23.7203 50.8801 23.7316 50.8771 23.7451C50.876 23.7555 50.874 23.7596 50.873 23.7656C50.8719 23.776 50.8709 23.777 50.869 23.7832C50.8659 23.7966 50.8628 23.8099 50.8607 23.8224C50.8576 23.8347 50.8544 23.8471 50.8524 23.8585C50.8513 23.8687 50.8494 23.8739 50.8472 23.8811C50.8461 23.8914 50.8451 23.8924 50.8442 23.8985C50.8401 23.9108 50.8371 23.9232 50.8338 23.9356H50.8328C50.8307 23.949 50.8277 23.9603 50.8235 23.9726C50.8225 23.983 50.8194 23.9871 50.8183 23.9953C50.8163 24.0006 50.8149 24.0061 50.8144 24.0118C50.8102 24.0252 50.8082 24.0376 50.804 24.051C50.804 24.0523 50.804 24.051 50.803 24.051C50.7998 24.0612 50.7967 24.0736 50.7936 24.0861C50.7915 24.0964 50.7905 24.1016 50.7884 24.1088C50.7863 24.119 50.7855 24.119 50.7844 24.1252C50.7813 24.1386 50.7773 24.151 50.774 24.1634H50.773C50.7689 24.1757 50.7668 24.1881 50.7637 24.1994C50.7617 24.2097 50.7596 24.2149 50.7575 24.223C50.7554 24.223 50.7554 24.2333 50.7546 24.2386C50.7525 24.2386 50.7515 24.2489 50.7504 24.2541C50.7473 24.2644 50.7452 24.2696 50.7431 24.2779H50.7421C50.7379 24.2891 50.735 24.3015 50.7309 24.3129C50.7298 24.3232 50.7258 24.3294 50.7247 24.3365C50.7227 24.3468 50.7216 24.3468 50.7195 24.352C50.7154 24.3654 50.7125 24.3778 50.7081 24.3913C50.7081 24.3924 50.7071 24.3913 50.7071 24.3913C50.7043 24.4032 50.7009 24.4148 50.6969 24.4263C50.6948 24.4366 50.6917 24.4428 50.6906 24.451C50.6885 24.451 50.6875 24.4614 50.6854 24.4666C50.6813 24.479 50.6781 24.4913 50.674 24.5048C50.6729 24.5048 50.6719 24.5048 50.6719 24.515C50.6675 24.526 50.6641 24.5374 50.6617 24.549C50.6587 24.5592 50.6555 24.5634 50.6524 24.5726C50.6514 24.5726 50.6493 24.583 50.6483 24.5871C50.6443 24.6005 50.6402 24.6138 50.6371 24.6273C50.636 24.6284 50.635 24.6273 50.635 24.6273C50.6308 24.6395 50.6267 24.651 50.6246 24.6612C50.6215 24.6715 50.6183 24.6777 50.6152 24.687C50.6152 24.687 50.6131 24.6974 50.611 24.7015C50.6071 24.7148 50.6019 24.7272 50.5967 24.7395H50.5957C50.5916 24.751 50.5874 24.7634 50.5833 24.7746C50.5812 24.7849 50.5781 24.7921 50.5752 24.7994C50.5731 24.8097 50.572 24.8097 50.571 24.8139C50.5658 24.8261 50.5616 24.8396 50.5575 24.853H50.5546C50.5515 24.8654 50.5483 24.8768 50.5443 24.887C50.5412 24.8973 50.538 24.9036 50.5339 24.9128C50.5339 24.9128 50.5318 24.9232 50.5299 24.9263C50.5247 24.9396 50.5195 24.952 50.5154 24.9654C50.5143 24.9654 50.5133 24.9654 50.5122 24.9758C50.5083 24.9861 50.5052 24.9963 50.501 25.0076C50.4968 25.0179 50.4938 25.0241 50.4896 25.0343C50.4833 25.0539 50.4761 25.0736 50.4691 25.092C50.4618 25.1127 50.4545 25.1323 50.4462 25.1518C50.4381 25.1714 50.4298 25.1909 50.4226 25.2106C50.4145 25.2313 50.4061 25.2497 50.399 25.2703C50.3908 25.2887 50.3835 25.3094 50.3753 25.3291C50.3661 25.3496 50.3579 25.3682 50.3486 25.3878C50.3414 25.4078 50.3331 25.4275 50.3238 25.4466C50.3159 25.4668 50.3073 25.4867 50.2981 25.5062C50.2899 25.5259 50.2805 25.5455 50.2723 25.565C50.2621 25.5847 50.2539 25.6043 50.2446 25.6248C50.2363 25.6433 50.227 25.6639 50.2179 25.6836C50.2085 25.7031 50.1983 25.7217 50.189 25.7424C50.1787 25.7619 50.1685 25.7815 50.1591 25.8011C50.1502 25.8213 50.1405 25.8412 50.1302 25.8608C50.1199 25.8804 50.1097 25.9 50.0993 25.9186C50.0879 25.9401 50.0787 25.9587 50.0684 25.9782C50.0582 25.9979 50.0478 26.0185 50.0366 26.037C50.0252 26.0588 50.0151 26.0773 50.0037 26.0967C49.9923 26.1163 49.9821 26.1369 49.9707 26.1555C49.9586 26.175 49.9473 26.1949 49.9367 26.2153C49.9244 26.2337 49.9131 26.2544 49.9008 26.274C49.8893 26.2935 49.877 26.3132 49.8648 26.3328C49.8531 26.3528 49.8408 26.3725 49.8276 26.3916C49.8154 26.4122 49.803 26.4307 49.7906 26.4512C49.7782 26.4708 49.7649 26.4904 49.7515 26.51L49.7114 26.5688C49.6978 26.5884 49.6856 26.6091 49.6721 26.6275C49.6578 26.6482 49.6433 26.6668 49.6289 26.6872C49.6155 26.7059 49.6011 26.7265 49.5866 26.746C49.5711 26.7657 49.5567 26.7852 49.5414 26.8048C49.5259 26.8245 49.5114 26.845 49.4962 26.8636C49.4807 26.8844 49.4643 26.9028 49.4488 26.9224C49.4333 26.9429 49.417 26.9626 49.4004 26.9822C49.3837 27.0016 49.3674 27.0213 49.351 27.0408C49.3333 27.0615 49.3158 27.081 49.2995 27.0996C49.2807 27.1212 49.2634 27.1398 49.2449 27.1584C49.2261 27.1791 49.2088 27.1995 49.1903 27.2181C49.1708 27.2378 49.1516 27.2577 49.1326 27.2778C49.113 27.2963 49.0933 27.317 49.0739 27.3366C49.0522 27.3561 49.0316 27.3758 49.011 27.3954C48.9895 27.4149 48.9688 27.4356 48.9461 27.4541C48.9246 27.4737 48.9029 27.4943 48.8803 27.5138C48.8566 27.5334 48.834 27.5531 48.8103 27.5726C48.4788 27.8436 48.1575 28.0208 47.8733 28.1259L46.0041 27.9024H45.9978C45.8547 27.9024 45.7148 27.8921 45.5757 27.8664C45.8239 28.6205 46.4108 29.148 47.0389 29.25C47.2601 29.8588 47.843 30.3916 48.4649 30.5367C48.9571 31.3712 49.8117 31.8029 50.7435 31.842C52.0121 31.8956 53.0437 31.3424 54.0322 30.684C55.0957 29.9451 55.9112 28.8945 56.5228 27.5726C56.5311 27.5527 56.5401 27.5331 56.5497 27.5138C56.559 27.4933 56.5662 27.4736 56.5745 27.4541C56.5847 27.4346 56.5919 27.4149 56.6013 27.3954C56.6095 27.3758 56.6178 27.3561 56.6271 27.3366C56.6352 27.317 56.6444 27.2965 56.6527 27.2778C56.661 27.2571 56.6702 27.2377 56.6785 27.2181C56.6877 27.1997 56.695 27.179 56.7032 27.1584C56.7114 27.14 56.7197 27.1203 56.7279 27.0996C56.7352 27.0812 56.7423 27.0604 56.7495 27.0408C56.7577 27.0213 56.765 27.0016 56.7742 26.9822C56.7813 26.9624 56.7886 26.9428 56.7978 26.9224C56.8061 26.9028 56.8133 26.8844 56.8205 26.8636C56.8276 26.844 56.8359 26.8245 56.8442 26.8048C56.8514 26.7853 56.8587 26.7657 56.8648 26.746C56.872 26.7265 56.8793 26.7059 56.8874 26.6872C56.8926 26.6666 56.9008 26.6471 56.9071 26.6275C56.9133 26.6091 56.9215 26.5884 56.9287 26.5688C56.9349 26.5492 56.943 26.5296 56.9502 26.51C56.9564 26.4904 56.9636 26.4709 56.9719 26.4512C56.9789 26.4306 56.9851 26.4121 56.9913 26.3916C56.9986 26.3731 57.0037 26.3523 57.011 26.3328C57.0181 26.313 57.0233 26.2935 57.0304 26.274C57.0366 26.2544 57.0428 26.2337 57.049 26.2152C57.0553 26.1946 57.0624 26.1749 57.0686 26.1554C57.0748 26.1358 57.0809 26.1161 57.0871 26.0966C57.0933 26.0759 57.1005 26.0573 57.1067 26.0369C57.1129 26.0183 57.1181 25.9978 57.1253 25.9781C57.1305 25.9584 57.1365 25.939 57.1426 25.9184C57.1489 25.8998 57.1541 25.8803 57.1602 25.8606C57.1653 25.84 57.1705 25.8215 57.1768 25.801C57.183 25.7814 57.1901 25.7617 57.1952 25.7423C57.2014 25.7216 57.2056 25.7029 57.2117 25.6835C57.2169 25.6628 57.2231 25.6433 57.2293 25.6247C57.2345 25.604 57.2405 25.5845 57.2457 25.5649C57.2509 25.5463 57.256 25.5248 57.2612 25.5061C57.2664 25.4865 57.2715 25.467 57.2778 25.4464C57.2819 25.4279 57.287 25.4073 57.2932 25.3876C57.2985 25.3681 57.3026 25.3495 57.3076 25.3288C57.3138 25.3093 57.32 25.2897 57.3241 25.27C57.3293 25.2495 57.3345 25.2309 57.3396 25.2104C57.3438 25.1908 57.35 25.1711 57.3551 25.1517C57.3593 25.132 57.3645 25.1123 57.3684 25.0919C57.3736 25.0733 57.3777 25.0538 57.3829 25.0342C57.385 25.0239 57.386 25.0155 57.3881 25.0074C57.3911 24.996 57.3932 24.9847 57.3963 24.9755C57.3974 24.9755 57.3974 24.9653 57.3984 24.9653C57.4015 24.9517 57.4046 24.9395 57.4066 24.926C57.4087 24.9158 57.4097 24.9158 57.4108 24.9127C57.4129 24.9023 57.4149 24.8952 57.417 24.8869C57.4191 24.8755 57.422 24.8652 57.4241 24.8529C57.4251 24.8515 57.4262 24.8529 57.4262 24.8529C57.4283 24.8394 57.4314 24.8271 57.4354 24.8136C57.4365 24.8034 57.4375 24.8034 57.4385 24.7993C57.4406 24.7889 57.4436 24.7826 57.4458 24.7745C57.4479 24.7631 57.4509 24.7507 57.453 24.7394C57.453 24.7381 57.4542 24.7394 57.4542 24.7394C57.4572 24.727 57.4613 24.7147 57.4624 24.7013C57.4644 24.7013 57.4644 24.6911 57.4664 24.6869C57.4685 24.6765 57.4695 24.6694 57.4716 24.6611C57.4737 24.6508 57.4758 24.6385 57.4779 24.627C57.4789 24.6257 57.4799 24.627 57.4799 24.627C57.4831 24.6137 57.4862 24.6002 57.4881 24.5868C57.4901 24.5868 57.4912 24.5766 57.4922 24.5724C57.4933 24.562 57.4952 24.5558 57.4963 24.5487C57.4994 24.5372 57.5015 24.5249 57.5035 24.5147C57.5035 24.5147 57.5046 24.5147 57.5046 24.5042C57.5076 24.4909 57.5107 24.4785 57.5128 24.4663C57.5149 24.4559 57.5149 24.4548 57.5158 24.4506C57.5179 24.4404 57.52 24.4343 57.52 24.426C57.5229 24.4145 57.525 24.4034 57.5281 24.3909H57.5291C57.5323 24.3775 57.5354 24.3651 57.5374 24.3518C57.5385 24.3518 57.5394 24.3414 57.5405 24.3362C57.5426 24.326 57.5445 24.3208 57.5457 24.3125C57.5478 24.3011 57.5497 24.2888 57.5529 24.2775C57.554 24.2761 57.554 24.2775 57.554 24.2775C57.5561 24.264 57.5581 24.2506 57.5612 24.2383C57.5622 24.2279 57.5633 24.2269 57.5642 24.2227C57.5663 24.2125 57.5673 24.2064 57.5694 24.1991C57.5715 24.1877 57.5733 24.1754 57.5756 24.1631C57.5767 24.1618 57.5767 24.1631 57.5777 24.1631C57.5788 24.1497 57.5806 24.1384 57.584 24.125C57.585 24.1147 57.586 24.1147 57.5869 24.1085C57.589 24.0982 57.59 24.093 57.591 24.086C57.5931 24.0736 57.5961 24.0611 57.5982 24.0508C57.6003 24.0375 57.6033 24.0241 57.6054 24.0117C57.6064 24.0014 57.6075 23.9993 57.6094 23.9951C57.6105 23.9849 57.6115 23.9797 57.6136 23.9726C57.6157 23.9603 57.6186 23.9478 57.6207 23.9356C57.6207 23.9342 57.6217 23.9356 57.6217 23.9356C57.6227 23.9232 57.6258 23.9107 57.6278 23.8985C57.629 23.8881 57.631 23.8871 57.632 23.8809C57.632 23.8707 57.6341 23.8655 57.6351 23.8583C57.6381 23.847 57.6402 23.8347 57.6423 23.8223C57.6444 23.8099 57.6475 23.7966 57.6495 23.7831C57.6505 23.7728 57.6516 23.7708 57.6526 23.7656C57.6536 23.7555 57.6555 23.7513 57.6566 23.745C57.6586 23.7315 57.6607 23.7203 57.6628 23.7058L57.664 23.7046C57.6651 23.6911 57.667 23.6788 57.669 23.6665C57.6701 23.6561 57.6711 23.654 57.6732 23.6479C57.6732 23.6375 57.6753 23.6335 57.6753 23.6254C57.6774 23.6139 57.6794 23.6004 57.6815 23.5892C57.6815 23.588 57.6815 23.588 57.6815 23.5892C57.6836 23.5759 57.6856 23.5625 57.6877 23.5501C57.6888 23.5398 57.6897 23.5377 57.6908 23.5315C57.6913 23.5245 57.6927 23.5175 57.6949 23.5109C57.697 23.4986 57.699 23.4851 57.7011 23.4727C57.7042 23.4595 57.7063 23.448 57.7073 23.4346C57.7084 23.4243 57.7104 23.4224 57.7104 23.4162C57.7125 23.4058 57.7135 23.4016 57.7145 23.3945L57.7207 23.3575V23.3561C57.7228 23.3418 57.7247 23.3295 57.727 23.317C57.728 23.3067 57.728 23.3025 57.7291 23.2973C57.7311 23.2871 57.7311 23.284 57.733 23.2768C57.7351 23.2644 57.7372 23.252 57.7392 23.2375C57.7405 23.2243 57.7424 23.2118 57.7455 23.1994C57.7455 23.1891 57.7465 23.1862 57.7476 23.1789C57.7496 23.1685 57.7496 23.1654 57.7507 23.1591C57.7528 23.1458 57.7547 23.1334 57.7558 23.1201C57.7579 23.1076 57.7599 23.0943 57.761 23.0808C57.762 23.0705 57.7641 23.0675 57.7641 23.0613C57.7662 23.0509 57.7662 23.0478 57.7682 23.0405C57.7702 23.0283 57.7713 23.0158 57.7723 23.0025V23.0011C57.7752 22.9885 57.7777 22.9758 57.7796 22.9631C57.7796 22.9527 57.7817 22.9496 57.7817 22.9423C57.7838 22.932 57.7838 22.93 57.7847 22.9239C57.7868 22.9104 57.7889 22.8981 57.7918 22.8847V22.8834C57.7928 22.87 57.7949 22.8576 57.7959 22.8453C57.797 22.8349 57.798 22.8308 57.799 22.8245C57.8001 22.8143 57.801 22.8112 57.801 22.8061C57.8031 22.7928 57.804 22.7794 57.8061 22.7659V22.7647C57.8082 22.7514 57.8092 22.7399 57.8113 22.7265C57.8124 22.7163 57.8134 22.7143 57.8143 22.706C57.8143 22.6957 57.8154 22.6947 57.8154 22.6874C57.8175 22.6752 57.8195 22.6627 57.8216 22.6493C57.8237 22.6359 57.8247 22.6235 57.8258 22.6112C57.8279 22.6008 57.8279 22.5977 57.8299 22.5895C57.8299 22.5895 57.8299 22.5782 57.831 22.5722C57.8331 22.5586 57.8349 22.5464 57.836 22.5329C57.8372 22.5227 57.8391 22.5103 57.8401 22.4969C57.8422 22.4866 57.8422 22.4825 57.8443 22.4743C57.8443 22.4639 57.8453 22.4639 57.8464 22.4577C57.8474 22.4454 57.8485 22.432 57.8504 22.4197C57.8525 22.4062 57.8536 22.3949 57.8556 22.3825C57.8567 22.3723 57.8577 22.3671 57.8577 22.36C57.8589 22.36 57.8589 22.3497 57.8598 22.3434C57.8619 22.33 57.8628 22.3167 57.8649 22.3032C57.867 22.2919 57.868 22.2795 57.8691 22.2683C57.8701 22.2579 57.8711 22.2537 57.8721 22.2456C57.8731 22.2352 57.8731 22.2341 57.8741 22.228C57.8752 22.2157 57.8773 22.2023 57.8783 22.1909C57.8794 22.1786 57.8804 22.1663 57.8823 22.1539C57.8823 22.1436 57.8843 22.1394 57.8843 22.1312C57.8854 22.121 57.8864 22.121 57.8864 22.1158C57.8885 22.1023 57.8895 22.0891 57.8906 22.0755C57.8916 22.0653 57.8936 22.0529 57.8946 22.0415C57.8957 22.0312 57.8967 22.025 57.8978 22.0167C57.8978 22.0065 57.8988 22.0065 57.8998 22.0013C57.8998 21.9878 57.9019 21.9755 57.9029 21.9631C57.9029 21.9619 57.904 21.9631 57.904 21.9631C57.905 21.9509 57.907 21.9395 57.9081 21.9281C57.9091 21.9178 57.9091 21.9126 57.9111 21.9033C57.9111 21.9033 57.9121 21.8931 57.9121 21.8889C57.9132 21.8764 57.9152 21.8631 57.9173 21.8497C57.9194 21.8395 57.9194 21.8271 57.9215 21.8158C57.9215 21.8054 57.9225 21.8002 57.9225 21.7909C57.9225 21.7807 57.9236 21.7807 57.9246 21.7766C57.9256 21.7632 57.9267 21.7498 57.9288 21.7373L57.9319 21.7034C57.9329 21.6931 57.9329 21.6868 57.934 21.6787C57.934 21.6683 57.934 21.6683 57.935 21.6641C57.936 21.6508 57.9379 21.6384 57.9389 21.6251V21.6147C57.9402 21.6043 57.9421 21.592 57.9421 21.5817C57.9431 21.5715 57.9431 21.5653 57.9441 21.556C57.9452 21.5457 57.9452 21.5457 57.9452 21.5426C57.9473 21.5292 57.9483 21.5158 57.9493 21.5024C57.9493 21.5024 57.9504 21.5024 57.9504 21.4921C57.9514 21.4799 57.9525 21.4695 57.9535 21.4592C57.9545 21.4489 57.9556 21.4428 57.9556 21.4324C57.9566 21.4324 57.9577 21.4222 57.9577 21.4191C57.9587 21.4068 57.9598 21.3932 57.9618 21.3809V21.3707C57.9639 21.3603 57.9648 21.349 57.9648 21.3377C57.9648 21.3275 57.9669 21.3212 57.9669 21.3109C57.9669 21.3109 57.9681 21.3006 57.9681 21.2996L57.9711 21.2594C57.9711 21.2581 57.9721 21.2594 57.9721 21.249C57.9733 21.2377 57.9733 21.2263 57.9753 21.2172C57.9753 21.2067 57.9763 21.1986 57.9773 21.1894V21.1771L57.9803 21.1379L57.9815 21.1277C57.9825 21.1172 57.9825 21.1068 57.9825 21.0956C57.9846 21.0853 57.9846 21.0782 57.9846 21.069C57.9867 21.069 57.9867 21.0587 57.9867 21.0566C57.9867 21.0444 57.9867 21.0309 57.9888 21.0174V21.0071L57.9918 20.9753C57.9928 20.965 57.9928 20.9577 57.9939 20.9474C57.995 20.9474 57.995 20.9372 57.995 20.9362L57.998 20.8969C57.9991 20.8969 57.9991 20.8969 57.9991 20.8865C57.9991 20.8763 58.0011 20.866 58.0011 20.8557C58.0022 20.8454 58.0032 20.8373 58.0032 20.827C58.0043 20.827 58.0043 20.8167 58.0053 20.8167C58.0053 20.8033 58.0074 20.791 58.0083 20.7775V20.767C58.0083 20.7558 58.0094 20.7464 58.0104 20.7363C58.0104 20.7259 58.0114 20.7178 58.0125 20.7074V20.6971C58.0135 20.6838 58.0146 20.6705 58.0154 20.6569V20.6466C58.0166 20.6364 58.0175 20.626 58.0185 20.6168C58.0185 20.6064 58.0185 20.5981 58.0196 20.5878V20.5764C58.0206 20.5642 58.0216 20.5507 58.0216 20.5383C58.0227 20.5383 58.0227 20.528 58.0237 20.528C58.0237 20.5168 58.025 20.5074 58.025 20.4971C58.026 20.4868 58.027 20.4786 58.027 20.4682C58.0281 20.4682 58.0281 20.458 58.0281 20.458C58.0302 20.4444 58.0302 20.4312 58.0302 20.4177C58.0312 20.4177 58.0312 20.4075 58.0312 20.4075C58.0322 20.3971 58.0322 20.3877 58.0333 20.3785C58.0343 20.3682 58.0343 20.3578 58.0354 20.3477L58.0364 20.3374C58.0364 20.324 58.0385 20.3117 58.0385 20.2983L58.0395 20.288C58.0406 20.2776 58.0406 20.2683 58.0416 20.2592C58.0426 20.2488 58.0426 20.2394 58.0437 20.2292L58.0449 20.2189C58.0449 20.2066 58.046 20.1932 58.047 20.1797V20.1694C58.0481 20.1591 58.0481 20.1499 58.0491 20.1405C58.0491 20.1301 58.0501 20.121 58.0512 20.1095V20.0992C58.0522 20.086 58.0522 20.0726 58.0522 20.0601V20.0487C58.0535 20.0395 58.0541 20.0303 58.0543 20.021C58.0543 20.0107 58.0553 20.0002 58.0564 19.9899V19.9797C58.0574 19.9662 58.0585 19.9539 58.0585 19.9405C58.0585 19.9405 58.0585 19.9301 58.0595 19.9291C58.0595 19.9189 58.0606 19.9095 58.0606 19.9014C58.0617 19.891 58.0627 19.8807 58.0627 19.8694V19.859C58.0638 19.8457 58.0638 19.8323 58.0638 19.819L58.0648 19.8075C58.0658 19.7971 58.0658 19.789 58.0658 19.7808C58.0679 19.7693 58.0679 19.7591 58.0679 19.7489V19.7385C58.069 19.7263 58.07 19.7128 58.07 19.7004C58.071 19.6901 58.071 19.6901 58.071 19.6871C58.0723 19.6767 58.0723 19.6696 58.0731 19.6604C58.0731 19.65 58.0742 19.6387 58.0742 19.6285V19.6181C58.0742 19.6048 58.0752 19.5914 58.0752 19.578V19.5645C58.0762 19.5543 58.0762 19.5471 58.0773 19.5398C58.0773 19.5286 58.0773 19.5173 58.0783 19.507V19.4966C58.0796 19.4833 58.0796 19.4709 58.0796 19.4575C58.0806 19.4471 58.0806 19.4471 58.0806 19.4441C58.0817 19.4339 58.0816 19.4266 58.0816 19.4184C58.0816 19.407 58.0827 19.3957 58.0837 19.3845V19.3741C58.0837 19.3618 58.0848 19.3483 58.0858 19.335V19.3215C58.0858 19.3113 58.0858 19.304 58.0869 19.2958C58.0879 19.2846 58.0879 19.2742 58.0879 19.2629V19.2526C58.0889 19.2382 58.09 19.2259 58.09 19.2135V19.199C58.091 19.1888 58.091 19.1826 58.0921 19.1733C58.0921 19.162 58.0921 19.1506 58.0931 19.1404V19.13C58.0941 19.1167 58.0941 19.1033 58.0941 19.091C58.0952 19.0806 58.0952 19.0806 58.0952 19.0754C58.0964 19.0652 58.0964 19.06 58.0964 19.0516C58.0964 19.0403 58.0975 19.028 58.0975 19.0177V19.0074V18.9672C58.0975 18.9672 58.0985 18.9569 58.0985 18.9528C58.0985 18.9425 58.0985 18.9362 58.0995 18.9291V18.8941C58.1006 18.8818 58.1006 18.8673 58.1016 18.856V18.8404C58.1016 18.8301 58.1016 18.8238 58.1028 18.8157C58.1028 18.8032 58.1038 18.792 58.1038 18.7806C58.1038 18.7663 58.1048 18.7539 58.1048 18.7405V18.725C58.1059 18.7148 58.1059 18.7096 58.1059 18.7013C58.1059 18.689 58.1071 18.6766 58.1071 18.6664C58.1082 18.6528 58.1082 18.6406 58.1082 18.627V18.6105V18.5879C58.1092 18.5766 58.1092 18.5631 58.1092 18.5519C58.1092 18.5384 58.1103 18.5251 58.1103 18.5127C58.1103 18.5025 58.1113 18.5014 58.1113 18.4953V18.4726C58.1113 18.4603 58.1123 18.449 58.1123 18.4375C58.1123 18.4241 58.1134 18.4107 58.1134 18.3984V18.3809V18.3594C58.1134 18.3458 58.1134 18.3335 58.1144 18.3222C58.1144 18.321 58.1144 18.321 58.1144 18.3222C58.1144 18.3078 58.1157 18.2965 58.1157 18.283V18.2655V18.2429C58.1157 18.2306 58.1157 18.2181 58.1167 18.2069V18.1666C58.1177 18.1564 58.1177 18.1554 58.1177 18.1491V18.1285V18.0904V18.0523C58.1177 18.0419 58.1188 18.0388 58.1188 18.0326V18.011V17.974C58.1198 17.9606 58.1198 17.9463 58.1198 17.9329C58.1198 17.9226 58.1198 17.9205 58.121 17.9142V17.8958V17.8553V17.8162V17.7965V17.7758C58.121 17.7637 58.121 17.7512 58.122 17.7377V17.6976V17.6789V17.6595V17.6202C58.122 17.6059 58.122 17.5935 58.123 17.5801V17.5606V17.5408V17.5015V17.4624V17.4417V17.4243V17.384V17.3828V17.3447C58.123 17.3343 58.1241 17.3303 58.1241 17.323V17.3054V17.2808V0.000671387L55.3422 1.49253M0.0465508 38.6918H3.44231V39.1358C2.52389 39.1945 2.4385 39.3646 2.4385 40.1011V46.2083C2.4385 47.5261 3.188 48.2059 4.23529 48.2059C5.43797 48.2059 6.17406 47.4405 6.17406 46.1795V40.2433C6.17406 39.5057 5.94638 39.1944 5.0836 39.1358V38.6919H7.79465V39.1358C6.93074 39.1945 6.7043 39.5057 6.7043 40.2433V45.8683C6.7043 47.6249 5.93306 48.652 3.96538 48.652C1.98542 48.652 1.05047 47.5827 1.05047 45.8116V40.101C1.05047 39.3644 0.967153 39.1944 0.0466548 39.1357L0.0465508 38.6918ZM7.61024 48.4285V47.9834C8.28975 47.9546 8.51639 47.6981 8.51639 47.2726V42.8416C8.51639 42.2307 8.34643 42.1318 7.58143 42.1019V41.6569L9.64792 41.5722V42.9322H9.67673C10.0598 42.137 10.6159 41.4858 11.5847 41.4858C12.7616 41.4858 13.3135 42.2503 13.3135 43.5V47.2737C13.3135 47.7569 13.5121 47.9546 14.1918 47.9834V48.4287H12.0974V43.3846C12.0974 42.4492 11.7401 42.137 11.2571 42.137C10.5013 42.137 9.73228 43.1301 9.73228 44.5209V47.2737C9.73228 47.6981 9.95985 47.9546 10.6445 47.9834V48.4287L7.61024 48.4285ZM14.4913 48.4285V47.9834C15.17 47.9546 15.3965 47.6981 15.3965 47.2726V42.7561C15.3965 42.1452 15.2276 42.0473 14.4913 42.0174V41.5722L16.6136 41.4858V47.2726C16.6136 47.6981 16.84 47.9546 17.5186 47.9834V48.4285H14.4913ZM16.6136 39.4624C16.6136 40.0012 16.317 40.3709 15.8938 40.3709C15.4695 40.3709 15.174 40.0012 15.174 39.4624C15.174 38.9246 15.4695 38.5568 15.8938 38.5568C16.317 38.5568 16.6136 38.9246 16.6136 39.4624ZM19.7219 39.0503V41.6569H21.4219V42.1883H19.7219V47.1881C19.7219 47.8136 19.9361 48.0678 20.3191 48.0678C20.7887 48.0678 21.1449 47.7702 21.1449 46.265V45.8673H21.5897V46.5349C21.5897 47.9699 21.0727 48.6005 20.0061 48.6005C19.0712 48.6005 18.5059 48.0122 18.5059 46.8759V42.1882H17.6277V41.77C18.6471 41.3456 19.1844 40.8634 19.27 39.0501H19.7219M23.4699 44.4683C23.4699 42.6449 24.0094 41.931 24.8197 41.931C25.5642 41.931 25.9883 42.6449 25.9883 44.4682H23.4699V44.4683ZM27.3753 44.9998C27.3753 42.9568 26.3848 41.4858 24.8135 41.4858C23.2156 41.4858 22.0819 42.9569 22.0819 45.0432C22.0819 46.8172 23.2423 48.6004 24.9978 48.6004C26.5949 48.6004 27.2857 47.3723 27.4101 46.1084L26.9643 46.0228C26.8222 46.9881 26.3827 48.0678 25.146 48.0678C24.1946 48.0678 23.4697 46.9883 23.4697 44.9998H27.3753ZM29.4706 45.0854C29.4706 42.8981 29.9813 42.0174 30.7576 42.0174C31.6205 42.0174 32.1435 43.0682 32.1435 45.0854C32.1435 47.529 31.395 48.1544 30.6453 48.1544C29.938 48.1544 29.4706 47.2737 29.4706 45.0854ZM31.225 39.1358C31.9613 39.1658 32.1435 39.2647 32.1435 39.8724V42.4149L32.1158 42.4295C31.8326 41.8772 31.3527 41.4858 30.6877 41.4858C29.2019 41.4858 28.0838 43.0126 28.0838 45.0719C28.0838 47.3014 29.2596 48.6005 30.5312 48.6005C31.3951 48.6005 31.8615 48.111 32.1733 47.4434H32.2012V48.4283L34.1822 48.3439V47.8969C33.6159 47.9101 33.3615 47.6835 33.3615 46.917V38.6061L31.225 38.6918V39.1358ZM34.8237 48.4285V47.9834C35.672 47.9268 35.8141 47.7569 35.8141 47.0171V40.1002C35.8141 39.3646 35.672 39.1945 34.8237 39.1359V38.692H38.2472V39.1359C37.3709 39.1946 37.2011 39.3647 37.2011 40.1002V43.0446H40.2508V40.1002C40.2508 39.3646 40.0821 39.1945 39.2069 39.1359V38.692H42.6293V39.1359C41.7798 39.1946 41.6387 39.3647 41.6387 40.1002V47.0171C41.6387 47.7569 41.7798 47.9268 42.6293 47.9834V48.4285H39.2067V47.9834C40.0819 47.9268 40.2507 47.7569 40.2507 47.0171V43.5772H37.201V47.0171C37.201 47.7569 37.3708 47.9268 38.2471 47.9834V48.4285H34.8237ZM44.0944 44.4683C44.0944 42.6449 44.6341 41.931 45.4444 41.931C46.1888 41.931 46.613 42.6449 46.613 44.4682H44.0944V44.4683ZM48 44.9998C48 42.9568 47.0094 41.4858 45.4382 41.4858C43.8391 41.4858 42.7065 42.9569 42.7065 45.0432C42.7065 46.8172 43.868 48.6004 45.6225 48.6004C47.2195 48.6004 47.9104 47.3723 48.0349 46.1084L47.5891 46.0228C47.447 46.9881 47.0063 48.0678 45.7707 48.0678C44.8184 48.0678 44.0944 46.9883 44.0944 44.9998H48ZM52.0846 45.6107C52.0846 47.2169 51.4297 48.0678 50.7058 48.0678C50.2652 48.0678 49.9254 47.6981 49.9254 46.9449C49.9254 45.7396 50.9468 45.1996 52.0846 44.8V45.6107ZM54.0029 46.4752C53.9739 47.4993 53.8628 47.8113 53.5951 47.8113C53.3986 47.8113 53.3005 47.627 53.3005 47.2159V43.267C53.3005 42.2018 52.692 41.4858 51.1053 41.4858C49.8717 41.4858 48.9657 42.2451 48.9657 43.2093C48.9657 43.7779 49.2488 44.0624 49.6453 44.0624C50.0416 44.0624 50.3536 43.7491 50.3536 43.2381C50.3536 42.8249 50.2114 42.4852 49.7585 42.4418C50.0551 42.0884 50.466 41.9308 50.9632 41.9308C51.7148 41.9308 52.0845 42.2872 52.0845 43.0961V44.2612C50.8622 44.7155 48.6227 45.383 48.6227 47.0036C48.6227 47.94 49.2591 48.6005 50.3505 48.6005C51.3452 48.6005 51.7703 48.1389 52.1133 47.5001H52.14C52.2255 48.2645 52.6065 48.6005 53.286 48.6005C54.155 48.6005 54.4475 47.9699 54.4475 46.4771H54.0026M54.5927 48.4285V47.9834C55.2723 47.9546 55.4987 47.6981 55.4987 47.2747V39.9035C55.4987 39.4213 55.2579 39.1659 54.5638 39.1359V38.6898L56.7158 38.6064V47.2747C56.7158 47.6982 56.9423 47.9547 57.6209 47.9834V48.4285H54.5927ZM59.9098 39.0503V41.6569H61.6108V42.1883H59.9098V47.1881C59.9098 47.8136 60.124 48.0678 60.507 48.0678C60.9765 48.0678 61.3317 47.7702 61.3317 46.265V45.8673H61.7766V46.5349C61.7766 47.9699 61.2597 48.6005 60.1939 48.6005C59.2581 48.6005 58.6939 48.0122 58.6939 46.8759V42.1882H57.8156V41.77C58.8349 41.3456 59.3724 40.8634 59.4568 39.0501H59.9098M62.1513 48.4285V47.9834C62.8309 47.9546 63.0573 47.6981 63.0573 47.2737V39.8724C63.0573 39.2647 62.8875 39.1656 62.1235 39.1358V38.6918L64.2745 38.6062V42.7612H64.3021C64.5873 42.1368 65.1289 41.4858 66.0824 41.4858C67.1759 41.4858 67.8545 42.2502 67.8545 43.4998V47.2735C67.8545 47.6979 68.0954 47.9544 68.7317 47.9832V48.4283H66.6384V43.4575C66.6384 42.4634 66.2822 42.1367 65.7704 42.1367C65.0579 42.1367 64.2745 43.0743 64.2745 44.4351V47.2736C64.2745 47.6979 64.503 47.9544 65.1856 47.9833V48.4283H62.1513M77.5473 38.6918V42.451H77.1017C76.733 40.0754 76.1359 38.9998 74.8025 38.9998C73.6833 38.9998 72.6453 39.9331 72.6453 43.5545C72.6453 47.0396 73.6402 48.1203 74.8025 48.1203C75.7683 48.1203 76.2801 47.4949 76.2801 45.8177C76.2801 44.3404 76.067 44.1139 74.9456 44.058V43.6109H78.7141V44.058C77.8368 44.1137 77.667 44.2836 77.667 45.0224V48.4283H77.214C77.0441 48.1162 76.903 47.8885 76.761 47.8885C76.5766 47.8885 76.5611 48.0729 76.0083 48.3574C75.6398 48.5541 75.1713 48.6519 74.7315 48.6519C72.8866 48.6519 71.0557 46.8697 71.0557 43.5545C71.0557 40.6975 72.7598 38.4692 74.7749 38.4692C75.2846 38.4692 75.7953 38.6227 76.2205 38.874C76.5068 39.0428 76.619 39.1697 76.7467 39.1697C76.9042 39.1697 76.9886 38.9998 77.1019 38.6915H77.5474M79.0468 48.4285V47.9834C79.6408 47.9546 79.8674 47.6981 79.8674 47.2726V43.4103C79.8674 42.4428 79.6975 42.1318 78.9901 42.1019V41.6558L80.9424 41.5722V43.2093H80.9712C81.1544 42.4717 81.6652 41.4858 82.5187 41.4858C83.0408 41.4858 83.5515 41.9186 83.5515 42.7128C83.5515 43.3247 83.2529 43.6359 82.8873 43.6359C82.5742 43.6359 82.2489 43.437 82.2489 42.7984C82.2489 42.4573 82.4466 42.1008 82.8584 42.1008C82.7864 41.9896 82.6463 41.9308 82.4887 41.9308C81.524 41.9452 81.0843 44.0202 81.0843 45.2553V47.2725C81.0843 47.6981 81.3118 47.9546 82.2765 47.9834V48.4285H79.0468ZM85.1329 45.0443C85.1329 42.5851 85.699 41.9308 86.4941 41.9308C87.288 41.9308 87.8572 42.5851 87.8572 45.0443C87.8572 47.5014 87.2878 48.1545 86.4941 48.1545C85.6992 48.1545 85.1329 47.5014 85.1329 45.0443ZM83.8303 45.0443C83.8303 47.1892 85.1606 48.6006 86.4941 48.6006C87.8284 48.6006 89.1587 47.1892 89.1587 45.0443C89.1587 42.8983 87.8284 41.4858 86.4941 41.4858C85.1606 41.4858 83.8303 42.8983 83.8303 45.0443ZM95.8051 48.3441L93.8942 48.4285V47.1551H93.8653C93.5122 47.9918 93.0036 48.6006 92.012 48.6006C90.8238 48.6006 90.243 47.9918 90.243 46.5874V42.8416C90.243 42.2307 90.0732 42.1316 89.4502 42.1019V41.6569L91.4601 41.5722V46.8419C91.4601 47.694 91.7998 47.9495 92.2652 47.9495C93.0736 47.9495 93.7377 46.8275 93.7377 45.651V42.8416C93.7377 42.2307 93.5679 42.1316 92.8471 42.1019V41.6569L94.9558 41.5722V47.1871C94.9558 47.7403 95.1947 47.868 95.8052 47.8969V48.3441M98.0032 45.313C98.0032 42.8981 98.7097 42.0174 99.4448 42.0174C100.167 42.0174 100.675 42.8983 100.675 45.0854C100.675 47.2446 100.167 48.1544 99.4181 48.1544C98.8374 48.1544 98.0033 47.5014 98.0033 45.313H98.0032ZM99.0494 51V50.5539C98.2287 50.526 98.0033 50.2705 98.0033 49.8461V47.6856H98.0311C98.3133 48.2099 98.7798 48.6004 99.5158 48.6004C101.057 48.6004 102.062 47.0036 102.062 45.0441C102.062 43.5935 101.257 41.4857 99.6425 41.4857C98.7386 41.4857 98.1578 42.1306 97.9457 42.8126H97.9179V41.4857L95.8801 41.5721V42.0171C96.6163 42.0471 96.7863 42.1451 96.7863 42.7559V49.8459C96.7863 50.2704 96.5597 50.5259 95.8801 50.5538V50.9998H99.0494M58.2675 31.202C58.2738 31.3205 58.3004 31.4174 58.3479 31.4926C58.4405 31.6317 58.6001 31.7029 58.8307 31.7029C58.9337 31.7029 59.0274 31.6872 59.1119 31.6553C59.2765 31.5967 59.359 31.4907 59.359 31.337C59.359 31.2215 59.323 31.1393 59.255 31.0897C59.184 31.0434 59.0737 31.0021 58.9234 30.9672L58.6465 30.9043C58.4652 30.8621 58.3376 30.8168 58.2635 30.7642C58.1338 30.6767 58.069 30.5447 58.069 30.3697C58.069 30.18 58.1328 30.0233 58.2606 29.9019C58.3882 29.7793 58.5695 29.7195 58.8021 29.7195C59.0173 29.7195 59.2006 29.7731 59.3509 29.8791C59.5012 29.9853 59.5764 30.1572 59.5764 30.3922H59.3097C59.2952 30.2799 59.2664 30.1924 59.2212 30.1326C59.1379 30.0223 58.9957 29.9678 58.7949 29.9678C58.6321 29.9678 58.5159 30.0019 58.4459 30.0739C58.3748 30.144 58.3388 30.2264 58.3388 30.3203C58.3388 30.4233 58.381 30.4995 58.4644 30.5468C58.5201 30.5778 58.6425 30.6149 58.8371 30.6612L59.1234 30.7293C59.2603 30.7612 59.3674 30.8065 59.4426 30.8632C59.5723 30.961 59.6382 31.1042 59.6382 31.2919C59.6382 31.5247 59.555 31.6926 59.3901 31.7925C59.2254 31.8925 59.0318 31.9428 58.8114 31.9428C58.5571 31.9428 58.3574 31.8759 58.2122 31.743C58.0679 31.609 57.9958 31.4287 57.999 31.2021H58.2675M60.0313 29.7762H60.4422L61.0455 31.5563L61.6468 29.7762H62.0557V31.882H61.7808V30.6395C61.7808 30.5963 61.7818 30.5251 61.7848 30.4252C61.7868 30.3263 61.7879 30.2202 61.7879 30.1059L61.1856 31.8819H60.9024L60.3 30.1059V30.1706C60.3 30.2211 60.301 30.3005 60.3031 30.4066C60.3052 30.5128 60.3072 30.5898 60.3072 30.6393V31.8819H60.0313V29.7762Z" fill="#263D96"/>
</svg>
